<svg id="Layer_1" data-name="Layer 1" xmlns="http://www.w3.org/2000/svg" viewBox="0 0 360 70"><defs><style>.cls-1{fill:#f00f38;}.cls-2{fill:#3a3a3a;}.cls-3{fill:#fff;stroke-width:0.65px;}.cls-3,.cls-5{stroke:#3a3a3a;stroke-miterlimit:10;}.cls-4{fill:#ff4a55;}.cls-5{fill:#ccc;stroke-width:0.83px;}</style></defs><path class="cls-1" d="M89.93,1.59A10.16,10.16,0,0,1,94,2.43a11.46,11.46,0,0,1,3.48,2.32A11.67,11.67,0,0,1,99.9,8.21a10,10,0,0,1,.9,4.22,9.91,9.91,0,0,1-.9,4.21,11.57,11.57,0,0,1-2.42,3.44A11.31,11.31,0,0,1,94,22.41a10.32,10.32,0,0,1-4.07.83,10.43,10.43,0,0,1-4.07-.83,11.08,11.08,0,0,1-3.48-2.33A11.43,11.43,0,0,1,80,16.64a9.91,9.91,0,0,1-.9-4.21A10,10,0,0,1,80,8.21a11.52,11.52,0,0,1,2.43-3.46,11.22,11.22,0,0,1,3.48-2.32A10.27,10.27,0,0,1,89.93,1.59ZM89.17,3a3.73,3.73,0,0,0-2.37.75,5.27,5.27,0,0,0-1.54,2,11.15,11.15,0,0,0-.84,2.71,17,17,0,0,0-.26,2.91A20.21,20.21,0,0,0,84.51,15a13,13,0,0,0,1.09,3.4,7,7,0,0,0,2,2.51,4.83,4.83,0,0,0,3,.95A3.86,3.86,0,0,0,93,21.13a5.43,5.43,0,0,0,1.56-1.95,10.51,10.51,0,0,0,.85-2.68,17.22,17.22,0,0,0,.26-2.92,20.3,20.3,0,0,0-.34-3.7,13.1,13.1,0,0,0-1.12-3.44,6.85,6.85,0,0,0-2-2.52A4.91,4.91,0,0,0,89.17,3Z"/><path class="cls-1" d="M112.49,8.57a5.72,5.72,0,0,1,3.34,1A6.42,6.42,0,0,1,118,12.07a7.7,7.7,0,0,1,.75,3.35,7.21,7.21,0,0,1-.72,3.27,7.73,7.73,0,0,1-1.89,2.44,8.45,8.45,0,0,1-2.53,1.52,7.56,7.56,0,0,1-2.69.53,4.61,4.61,0,0,1-1.21-.15,4.33,4.33,0,0,0-.66-.15c-.06,0-.09.18-.09.53v1.7q0,1,0,1.77a3.75,3.75,0,0,0,.23,1.24.8.8,0,0,0,.5.33,4.13,4.13,0,0,0,.89.18l.67.08a.91.91,0,0,1,.12.59,1.38,1.38,0,0,1-.12.59c-.61-.06-1.33-.12-2.14-.16s-1.57-.07-2.25-.07-1.42,0-2.23.07-1.52.1-2.16.16a1.41,1.41,0,0,1-.11-.59,1,1,0,0,1,.11-.59l.69-.08a4.39,4.39,0,0,0,.89-.18c.28-.09.44-.2.49-.33a3.43,3.43,0,0,0,.19-1.08c0-.43,0-.94,0-1.5V14.6c0-.11,0-.35,0-.71s0-.73-.07-1.11a2,2,0,0,0-.18-.8.83.83,0,0,0-.57-.4,6.92,6.92,0,0,0-.88-.19,4.3,4.3,0,0,0-.58-.07.75.75,0,0,1-.06-.28,1.85,1.85,0,0,1,0-.47c0-.15,0-.23.1-.23a16.44,16.44,0,0,0,2.4-.39c.8-.2,1.54-.42,2.21-.66a15.92,15.92,0,0,0,1.61-.65.7.7,0,0,1,.36.26.83.83,0,0,1,.2.29,3,3,0,0,1-.17.41,1.54,1.54,0,0,0-.13.67c0,.22,0,.29.13.2a8.5,8.5,0,0,1,1.67-1.33A3.38,3.38,0,0,1,112.49,8.57Zm-1.77,2.36a2,2,0,0,0-1.32.37c-.3.26-.44.43-.44.51v8a1.65,1.65,0,0,0,.68,1.44,2.52,2.52,0,0,0,1.51.49,2.24,2.24,0,0,0,1.23-.52,4.37,4.37,0,0,0,1.24-1.69,7.19,7.19,0,0,0,.54-3,9.47,9.47,0,0,0-.75-4.06A2.72,2.72,0,0,0,110.72,10.93Z"/><path class="cls-1" d="M124.94,15.19a6.51,6.51,0,0,0,.49,2.73,4.25,4.25,0,0,0,1.21,1.62,4.33,4.33,0,0,0,1.49.77,5.1,5.1,0,0,0,1.3.21,4,4,0,0,0,2.22-.54A8.47,8.47,0,0,0,133,18.92a.4.4,0,0,1,.27.23.7.7,0,0,1,.12.36,1.2,1.2,0,0,1-.1.59,9.46,9.46,0,0,1-1.08,1.18,7.88,7.88,0,0,1-2,1.34,6.17,6.17,0,0,1-2.74.59,7.06,7.06,0,0,1-3.3-.8,6.35,6.35,0,0,1-2.48-2.29,6.66,6.66,0,0,1-.93-3.59,7.63,7.63,0,0,1,.59-2.93A9,9,0,0,1,123,11a7.58,7.58,0,0,1,2.27-1.78,5.75,5.75,0,0,1,2.66-.66,6.53,6.53,0,0,1,2.65.49,4.84,4.84,0,0,1,2.65,2.84,4.49,4.49,0,0,1,.3,1.52,1.65,1.65,0,0,1-.25.92.78.78,0,0,1-.6.42c-.73.07-1.53.13-2.43.18s-1.8.1-2.72.13Zm0-1.28.64,0,1.24-.06,1.33-.1.92-.08a.42.42,0,0,0,.36-.22,1,1,0,0,0,.06-.31,5.59,5.59,0,0,0-.19-1.47,3,3,0,0,0-.62-1.21,1.45,1.45,0,0,0-1.15-.49,1.71,1.71,0,0,0-1.21.45,3.7,3.7,0,0,0-.81,1.12,6,6,0,0,0-.44,1.32A6.73,6.73,0,0,0,125,13.91Z"/><path class="cls-1" d="M146.62,8.64a4,4,0,0,1,2.77.83A4.43,4.43,0,0,1,150.65,12,22.51,22.51,0,0,1,151,16.2v2.06q0,1,0,1.77a3.82,3.82,0,0,0,.23,1.25.8.8,0,0,0,.51.33,5.7,5.7,0,0,0,.88.18l.67.08a.9.9,0,0,1,.12.59,1.27,1.27,0,0,1-.12.59c-.61-.07-1.32-.12-2.14-.17s-1.57-.06-2.25-.06-1.35,0-2,.06-1.33.1-2,.17a1.27,1.27,0,0,1-.12-.59.9.9,0,0,1,.12-.59q.33,0,.93-.15c.41-.08.65-.22.74-.44a3.85,3.85,0,0,0,.2-1.08c0-.44,0-.94,0-1.51v-3a12.74,12.74,0,0,0-.18-2.18,4.17,4.17,0,0,0-.64-1.67,1.53,1.53,0,0,0-1.31-.63,2.93,2.93,0,0,0-1.28.31,4,4,0,0,0-1.1.72,1.12,1.12,0,0,0-.44.73v5.24q0,.89,0,1.71a4.35,4.35,0,0,0,.23,1.31.83.83,0,0,0,.45.33,4.12,4.12,0,0,0,.75.18l.61.08a1,1,0,0,1,.11.59,1.45,1.45,0,0,1-.11.59c-.62-.07-1.29-.12-2-.17s-1.45-.06-2.12-.06-1.42,0-2.21.06-1.52.1-2.15.17a1.3,1.3,0,0,1-.11-.59.85.85,0,0,1,.11-.59l.67-.08a6.09,6.09,0,0,0,.87-.18c.28-.09.45-.2.49-.33a3.82,3.82,0,0,0,.23-1.25q0-.75,0-1.77V14.6c0-.11,0-.35,0-.71s0-.73-.09-1.11a2.37,2.37,0,0,0-.19-.8.88.88,0,0,0-.58-.4,7,7,0,0,0-.86-.19,4,4,0,0,0-.56-.07.89.89,0,0,1-.07-.28,1.85,1.85,0,0,1,0-.47c0-.15.06-.23.1-.23a16.57,16.57,0,0,0,2.41-.39c.8-.2,1.53-.42,2.21-.66a17,17,0,0,0,1.61-.65.57.57,0,0,1,.36.21.59.59,0,0,1,.19.34c0,.09-.06.28-.11.58s-.11.57-.15.83-.07.4-.07.43a.3.3,0,0,0,0,.19s.12-.05.23-.16A6.84,6.84,0,0,1,143.4,10,9.13,9.13,0,0,1,145,9,3.93,3.93,0,0,1,146.62,8.64Z"/><path class="cls-1" d="M181.18,7.49a5.87,5.87,0,0,1-.94,3.31,6.57,6.57,0,0,1-5.48,2.94,3.25,3.25,0,0,1-1.46-.29,3.29,3.29,0,0,1-.77-.46.76.76,0,0,1-.17-.34,1.92,1.92,0,0,1-.06-.44c0-.16,0-.23.13-.23a4.42,4.42,0,0,0,.61.09,5.37,5.37,0,0,0,.7,0,2.23,2.23,0,0,0,1.93-1.17,5.41,5.41,0,0,0,.76-3A6.23,6.23,0,0,0,176,5.57a4.53,4.53,0,0,0-1.24-1.78,2.8,2.8,0,0,0-1.88-.69c-.35,0-.69,0-1,0a.71.71,0,0,0-.61.31,2.32,2.32,0,0,0-.11.66c0,.26,0,.56,0,.91V18.69c0,.57,0,1.07,0,1.51a3.53,3.53,0,0,0,.2,1.08.8.8,0,0,0,.51.33,5.47,5.47,0,0,0,.88.18l.67.08a.9.9,0,0,1,.12.59,1.27,1.27,0,0,1-.12.59c-.61-.07-1.36-.12-2.24-.17s-1.67-.06-2.34-.06-1.44,0-2.3.06-1.59.1-2.22.17a1.27,1.27,0,0,1-.12-.59.9.9,0,0,1,.12-.59l.69-.08a6.23,6.23,0,0,0,.88-.18c.28-.09.45-.2.49-.33A3.82,3.82,0,0,0,166.6,20q0-.75,0-1.77V6.51c0-.7,0-1.3,0-1.79a3.8,3.8,0,0,0-.23-1.23c0-.15-.21-.26-.49-.32A6.21,6.21,0,0,0,165,3l-.69,0a1,1,0,0,1-.12-.62,1.12,1.12,0,0,1,.12-.59c.72,0,1.49.07,2.32.08l2.26,0c.68,0,1.44,0,2.28,0s1.73-.05,2.67-.05a9.74,9.74,0,0,1,3.67.67,6.41,6.41,0,0,1,2.67,1.93A4.88,4.88,0,0,1,181.18,7.49Z"/><path class="cls-1" d="M193.42,8.6a5.12,5.12,0,0,1,1.15.13,2,2,0,0,1,.85.43,2.06,2.06,0,0,1,.23.59,3.46,3.46,0,0,1,.13,1,2.93,2.93,0,0,1-.24,1.11,3,3,0,0,1-.67,1,1.38,1.38,0,0,1-1,.41,1.11,1.11,0,0,1-.75-.28l-.62-.5q-.27-.27-.51-.48a1,1,0,0,0-.67-.21,1.48,1.48,0,0,0-1.13.51,4,4,0,0,0-.74,1.11,2.75,2.75,0,0,0-.26,1v3.89q0,.89,0,1.71a4.06,4.06,0,0,0,.23,1.31c.07.13.26.24.59.33a8.18,8.18,0,0,0,1,.18l.74.08a.85.85,0,0,1,.11.59,1.3,1.3,0,0,1-.11.59c-.61-.07-1.38-.12-2.31-.17s-1.73-.06-2.41-.06-1.41,0-2.21.06-1.51.1-2.14.17a1.27,1.27,0,0,1-.12-.59.9.9,0,0,1,.12-.59l.67-.08a6.72,6.72,0,0,0,.87-.18c.28-.09.44-.2.49-.33A3.82,3.82,0,0,0,185,20q0-.75,0-1.77V14.6c0-.11,0-.35,0-.71a10.74,10.74,0,0,0-.08-1.11,2.37,2.37,0,0,0-.19-.8.88.88,0,0,0-.58-.4,6.77,6.77,0,0,0-.87-.19,3.89,3.89,0,0,0-.55-.07.66.66,0,0,1-.07-.28,1.85,1.85,0,0,1,0-.47c0-.15.06-.23.1-.23a16.57,16.57,0,0,0,2.41-.39c.79-.2,1.53-.42,2.21-.66a16.6,16.6,0,0,0,1.6-.65.7.7,0,0,1,.36.26.83.83,0,0,1,.2.29q0,.13-.12.66c-.05.35-.1.71-.14,1.08a6.48,6.48,0,0,0-.07.78c0,.09,0,.13.08.13a.17.17,0,0,0,.12,0,15.71,15.71,0,0,1,.93-1.44,5,5,0,0,1,1.3-1.26A3.06,3.06,0,0,1,193.42,8.6Z"/><path class="cls-1" d="M204.4,8.6a7.86,7.86,0,0,1,3.91.94A6.84,6.84,0,0,1,211,12.07a7.06,7.06,0,0,1,1,3.64,7.22,7.22,0,0,1-1,3.7,7.43,7.43,0,0,1-2.65,2.72,7.13,7.13,0,0,1-3.8,1,8,8,0,0,1-3.93-.95,6.94,6.94,0,0,1-2.65-2.59,7.16,7.16,0,0,1-.95-3.64,7,7,0,0,1,1-3.7,7.62,7.62,0,0,1,2.68-2.67A7.37,7.37,0,0,1,204.4,8.6ZM204,10a1.89,1.89,0,0,0-1.4.5,3.24,3.24,0,0,0-.75,1.33,9.52,9.52,0,0,0-.33,1.75c-.05.62-.08,1.23-.08,1.82a12.9,12.9,0,0,0,.2,2.18,10.17,10.17,0,0,0,.59,2.09,4.62,4.62,0,0,0,1,1.58,2.11,2.11,0,0,0,1.51.6,1.87,1.87,0,0,0,1.39-.51A3.08,3.08,0,0,0,207,20a7.69,7.69,0,0,0,.35-1.73c0-.62.08-1.22.08-1.79a13.06,13.06,0,0,0-.2-2.21,9.39,9.39,0,0,0-.61-2.11,4.61,4.61,0,0,0-1-1.59A2.07,2.07,0,0,0,204,10Z"/><path class="cls-1" d="M220.71,23.18a7.07,7.07,0,0,1-2.33-.38,5.63,5.63,0,0,0-1.7-.38,2.53,2.53,0,0,0-.72.09,4.55,4.55,0,0,0-.46.14,1.38,1.38,0,0,1-.42-.31c-.25-.2-.36-.36-.36-.47a7.35,7.35,0,0,0,.27-1.35,19.12,19.12,0,0,0,.12-2.45v-13c0-.29,0-.55,0-.77a3.25,3.25,0,0,0-.2-.77c0-.14-.2-.24-.48-.33a4,4,0,0,0-.83-.18c-.29,0-.49,0-.62,0s-.11-.16-.12-.48,0-.5.12-.57a26.08,26.08,0,0,0,3.17-.46A22.26,22.26,0,0,0,218.3.92l.84-.24a.44.44,0,0,1,.29.23,1.45,1.45,0,0,1,.17.32,19.48,19.48,0,0,0-.33,3.25V9.65a2.23,2.23,0,0,0,0,.33c0,.13.08.15.16.06l.81-.55a7,7,0,0,1,1.18-.64,2.84,2.84,0,0,1,1.16-.28,6.48,6.48,0,0,1,5.76,3.31,6.87,6.87,0,0,1,.89,3.5,7.22,7.22,0,0,1-2.72,5.82,8.86,8.86,0,0,1-2.75,1.49A10.12,10.12,0,0,1,220.71,23.18ZM221,10.93a2.14,2.14,0,0,0-1,.21,2.11,2.11,0,0,0-.6.48.37.37,0,0,0-.1.29v7.86a1.94,1.94,0,0,0,2.09,2,2.33,2.33,0,0,0,1.76-.79,5.39,5.39,0,0,0,1.14-2,7.24,7.24,0,0,0,.41-2.36,9.34,9.34,0,0,0-.51-3.44,3.69,3.69,0,0,0-1.32-1.77A3.34,3.34,0,0,0,221,10.93Z"/><path class="cls-1" d="M232.83,5.07c0-.29,0-.55,0-.77a3.25,3.25,0,0,0-.2-.77c0-.14-.2-.24-.46-.33a3.75,3.75,0,0,0-.82-.18c-.28,0-.49,0-.62,0s-.11-.16-.12-.48,0-.5.12-.57a25.9,25.9,0,0,0,3.16-.46q1.37-.28,2.16-.54l.84-.24a.5.5,0,0,1,.31.23,1,1,0,0,1,.18.32c-.11.75-.2,1.37-.26,1.87a10.16,10.16,0,0,0-.1,1.41V18.26q0,1,0,1.77a3.82,3.82,0,0,0,.23,1.25.8.8,0,0,0,.51.33,5.47,5.47,0,0,0,.88.18l.67.08a.9.9,0,0,1,.12.59,1.27,1.27,0,0,1-.12.59c-.61-.07-1.32-.12-2.14-.17s-1.57-.06-2.25-.06-1.42,0-2.22.06-1.53.1-2.17.17a1.45,1.45,0,0,1-.11-.59,1,1,0,0,1,.11-.59l.69-.08a6.37,6.37,0,0,0,.89-.18c.28-.09.44-.2.49-.33a3.85,3.85,0,0,0,.2-1.08c0-.44,0-.94,0-1.51V5.07Z"/><path class="cls-1" d="M244.75,15.19a6.51,6.51,0,0,0,.49,2.73,4.25,4.25,0,0,0,1.21,1.62,4.33,4.33,0,0,0,1.49.77,5.16,5.16,0,0,0,1.3.21,4,4,0,0,0,2.22-.54,8.47,8.47,0,0,0,1.35-1.06.4.4,0,0,1,.27.23.7.7,0,0,1,.12.36,1.2,1.2,0,0,1-.1.59A9.46,9.46,0,0,1,252,21.28a7.88,7.88,0,0,1-2,1.34,6.17,6.17,0,0,1-2.74.59,7.06,7.06,0,0,1-3.3-.8,6.42,6.42,0,0,1-2.48-2.29,6.66,6.66,0,0,1-.93-3.59,7.63,7.63,0,0,1,.59-2.93A9,9,0,0,1,242.77,11,7.58,7.58,0,0,1,245,9.26a5.75,5.75,0,0,1,2.66-.66,6.53,6.53,0,0,1,2.65.49,4.94,4.94,0,0,1,1.72,1.25,4.8,4.8,0,0,1,.93,1.59,4.49,4.49,0,0,1,.3,1.52,1.65,1.65,0,0,1-.25.92.78.78,0,0,1-.6.42q-1.08.11-2.43.18c-.89.06-1.8.1-2.72.13Zm0-1.28.64,0,1.25-.06,1.32-.1.92-.08c.19,0,.32-.1.36-.22a1,1,0,0,0,.06-.31,5.59,5.59,0,0,0-.19-1.47,3,3,0,0,0-.62-1.21,1.45,1.45,0,0,0-1.15-.49,1.71,1.71,0,0,0-1.21.45,3.7,3.7,0,0,0-.81,1.12,6,6,0,0,0-.44,1.32A6.73,6.73,0,0,0,244.78,13.91Z"/><path class="cls-1" d="M266.43,8.64a4.49,4.49,0,0,1,2.47.6,4.09,4.09,0,0,1,1.49,2.15,13.6,13.6,0,0,1,1.66-1.33A9.54,9.54,0,0,1,274,9a4.57,4.57,0,0,1,1.68-.39,4,4,0,0,1,2.77.83A4.32,4.32,0,0,1,279.66,12,22.51,22.51,0,0,1,280,16.2v2.49c0,.57,0,1.07,0,1.51a3.85,3.85,0,0,0,.2,1.08.83.83,0,0,0,.51.33,5.7,5.7,0,0,0,.88.18l.67.08a.9.9,0,0,1,.12.59,1.27,1.27,0,0,1-.12.59c-.61-.07-1.32-.12-2.14-.17s-1.57-.06-2.24-.06-1.36,0-2,.06-1.33.1-2,.17a1.27,1.27,0,0,1-.12-.59.9.9,0,0,1,.12-.59q.33,0,.93-.15c.41-.08.65-.22.74-.44A3.82,3.82,0,0,0,275.8,20q0-.75,0-1.77V15.74a12.74,12.74,0,0,0-.18-2.18,4,4,0,0,0-.65-1.67,1.57,1.57,0,0,0-1.33-.63,3.41,3.41,0,0,0-1.33.29,4.85,4.85,0,0,0-1.19.7c-.33.28-.49.52-.49.74v.2q.06.64.09,1.41c0,.5,0,1,0,1.6v2.06q0,1,0,1.77a3.82,3.82,0,0,0,.23,1.25.81.81,0,0,0,.49.33,5.31,5.31,0,0,0,.85.18l.66.08a1,1,0,0,1,.11.59,1.45,1.45,0,0,1-.11.59c-.61-.07-1.32-.12-2.11-.17s-1.54-.06-2.22-.06-1.36,0-2.06.06-1.36.1-2,.17a1.45,1.45,0,0,1-.11-.59.91.91,0,0,1,.11-.59c.22,0,.54-.07,1-.15s.68-.22.77-.44a3.85,3.85,0,0,0,.2-1.08c0-.44,0-.94,0-1.51v-3a12.74,12.74,0,0,0-.18-2.18,4.17,4.17,0,0,0-.64-1.67,1.53,1.53,0,0,0-1.31-.63,2.93,2.93,0,0,0-1.28.31,4,4,0,0,0-1.1.72,1.12,1.12,0,0,0-.44.73v5.24c0,.59,0,1.16,0,1.71a4.09,4.09,0,0,0,.22,1.31.83.83,0,0,0,.45.33,4.12,4.12,0,0,0,.75.18l.61.08a1,1,0,0,1,.11.59,1.45,1.45,0,0,1-.11.59c-.62-.07-1.29-.12-2-.17s-1.46-.06-2.13-.06-1.42,0-2.21.06-1.52.1-2.15.17a1.3,1.3,0,0,1-.11-.59.85.85,0,0,1,.11-.59l.67-.08a6.09,6.09,0,0,0,.87-.18c.28-.09.45-.2.49-.33a3.82,3.82,0,0,0,.23-1.25q0-.75,0-1.77V14.6c0-.11,0-.35,0-.71s0-.73-.09-1.11a2.37,2.37,0,0,0-.19-.8.88.88,0,0,0-.58-.4,7,7,0,0,0-.86-.19,4,4,0,0,0-.56-.07.89.89,0,0,1-.07-.28,1.85,1.85,0,0,1,0-.47c0-.15.06-.23.1-.23a16.57,16.57,0,0,0,2.41-.39c.8-.2,1.53-.42,2.21-.66a17,17,0,0,0,1.61-.65.74.74,0,0,1,.36.26.74.74,0,0,1,.19.29c0,.09-.06.28-.13.58s-.11.57-.15.83,0,.4,0,.43,0,.17,0,.19.12-.05.23-.16A6.84,6.84,0,0,1,263.21,10a9.13,9.13,0,0,1,1.63-1A3.93,3.93,0,0,1,266.43,8.64Z"/><path class="cls-1" d="M289.69,8.57a7.48,7.48,0,0,1,2,.23c.55.15,1.08.28,1.61.39.08.35.18.8.29,1.36s.2,1.08.28,1.56a6.81,6.81,0,0,1,.11,1c0,.07-.07.12-.21.17a1.42,1.42,0,0,1-.38.06.61.61,0,0,1-.32-.08l-.3-.18a6.74,6.74,0,0,0-.52-1.46,3.37,3.37,0,0,0-1-1.24,3,3,0,0,0-1.8-.51,2,2,0,0,0-1.31.43,1.54,1.54,0,0,0-.53,1.27,1.77,1.77,0,0,0,.53,1.33,4,4,0,0,0,1.29.83c.52.22,1,.45,1.46.69a14.41,14.41,0,0,1,1.64.89,4.11,4.11,0,0,1,1.29,1.27,4,4,0,0,1,.51,2.17,3.7,3.7,0,0,1-.87,2.57,5.08,5.08,0,0,1-2.31,1.41,10.72,10.72,0,0,1-3.11.44,8.42,8.42,0,0,1-2.1-.28c-.69-.19-1.24-.32-1.63-.41,0-.17-.05-.47-.09-.88s-.06-.86-.09-1.33S284,19.39,284,19s0-.6,0-.69.06-.17.18-.18l.32,0a1.7,1.7,0,0,1,.39.07.39.39,0,0,1,.29.23,4.77,4.77,0,0,0,.82,2.13,3.28,3.28,0,0,0,1.31,1.05,3.69,3.69,0,0,0,1.35.29,1.68,1.68,0,0,0,1.32-.54,1.76,1.76,0,0,0,.48-1.2,1.69,1.69,0,0,0-.51-1.29,4.65,4.65,0,0,0-1.26-.82c-.5-.23-1-.47-1.51-.73a10.88,10.88,0,0,1-2.41-1.74,3.5,3.5,0,0,1-1-2.59,3.56,3.56,0,0,1,.58-2.05,4.43,4.43,0,0,1,1.47-1.35,7,7,0,0,1,1.93-.77A8.28,8.28,0,0,1,289.69,8.57Z"/><path class="cls-2" d="M310.78,19.21c0,.49,0,.93,0,1.35a3.83,3.83,0,0,0,.14,1c.05.11.2.21.48.3a4.62,4.62,0,0,0,.87.18c.3,0,.52.05.65.05a.88.88,0,0,1,.12.46.57.57,0,0,1-.12.45l-1.72-.11c-.49,0-1.05,0-1.69,0s-1.16,0-1.67,0l-1.73.11a.57.57,0,0,1-.12-.45.8.8,0,0,1,.12-.46l.67-.05a5,5,0,0,0,.9-.18c.28-.09.44-.19.46-.3a3.79,3.79,0,0,0,.15-1c0-.42,0-.86,0-1.35v-6c0-.21,0-.5,0-.85a2.4,2.4,0,0,0-.15-.82.73.73,0,0,0-.56-.41,4.74,4.74,0,0,0-.92-.13h-.58a1.28,1.28,0,0,1-.07-.4.68.68,0,0,1,.07-.46,16.21,16.21,0,0,0,2.42-.49,9.66,9.66,0,0,0,2.13-.85c.08,0,.17.07.24.2a.67.67,0,0,1,.12.33,4.73,4.73,0,0,1-.07.55c0,.31-.08.61-.11.92s-.05.51-.05.62ZM307.7,4a1.56,1.56,0,0,1,.47-1.13,1.58,1.58,0,0,1,1.13-.47A1.62,1.62,0,0,1,310.91,4a1.52,1.52,0,0,1-.48,1.13,1.52,1.52,0,0,1-1.13.48A1.62,1.62,0,0,1,307.7,4Z"/><path class="cls-2" d="M323.91,8.9a4.07,4.07,0,0,1,2.62.72,3.74,3.74,0,0,1,1.2,2.22,19.42,19.42,0,0,1,.31,3.84v3.53c0,.49,0,.93,0,1.35a3.83,3.83,0,0,0,.14,1q.07.16.48.3a4.62,4.62,0,0,0,.87.18c.3,0,.52.05.65.05a.88.88,0,0,1,.12.46.57.57,0,0,1-.12.45l-1.72-.11c-.49,0-1.05,0-1.68,0s-1.17,0-1.68,0l-1.73.11a.57.57,0,0,1-.12-.45.8.8,0,0,1,.12-.46l.67-.05a5,5,0,0,0,.9-.18c.28-.09.44-.19.46-.3a3.42,3.42,0,0,0,.15-1c0-.42,0-.86,0-1.35V16a14.18,14.18,0,0,0-.26-3.13,2.56,2.56,0,0,0-.95-1.62,3.26,3.26,0,0,0-1.93-.5,2.83,2.83,0,0,0-1.3.38,8.31,8.31,0,0,0-1.22.8c-.35.29-.53.48-.53.59v6.68c0,.49,0,.93,0,1.35a3.42,3.42,0,0,0,.15,1c0,.11.2.21.47.3a4.62,4.62,0,0,0,.87.18l.65.05a.8.8,0,0,1,.12.46.57.57,0,0,1-.12.45l-1.71-.11c-.5,0-1.06,0-1.69,0s-1.17,0-1.67,0l-1.74.11a.57.57,0,0,1-.11-.45.9.9,0,0,1,.11-.46l.67-.05a5,5,0,0,0,.9-.18c.29-.09.44-.19.46-.3a3.42,3.42,0,0,0,.15-1c0-.42,0-.86,0-1.35V13.38c0-.21,0-.52,0-.91a2.39,2.39,0,0,0-.15-.89.71.71,0,0,0-.55-.41,5,5,0,0,0-.92-.13h-.59a2.55,2.55,0,0,1-.07-.4.68.68,0,0,1,.07-.46,16,16,0,0,0,2.42-.49,9.29,9.29,0,0,0,2.13-.85c.09,0,.17.07.25.2a.75.75,0,0,1,.11.33,4,4,0,0,1-.05.5c0,.28-.06.54-.09.81a3.63,3.63,0,0,0-.05.52c0,.09,0,.13.06.13a.18.18,0,0,0,.1-.06,8.15,8.15,0,0,1,1.06-.92,10.49,10.49,0,0,1,1.62-1A3.64,3.64,0,0,1,323.91,8.9Z"/><path class="cls-2" d="M86.32,40.8a11.83,11.83,0,0,1,2.67.28l2.7.6c.09.85.16,1.71.22,2.56S92,46,92.06,47a.43.43,0,0,1-.37.2h0l-.51,0c-.25,0-.38-.08-.4-.21a6.87,6.87,0,0,0-.43-1.51,6.66,6.66,0,0,0-.89-1.57,5.27,5.27,0,0,0-1.29-1.25,3,3,0,0,0-1.65-.49,3.28,3.28,0,0,0-1.25.25,2.3,2.3,0,0,0-1,.85,2.91,2.91,0,0,0-.42,1.69,3,3,0,0,0,.75,1.91,10.44,10.44,0,0,0,1.82,1.74c.71.53,1.39,1,2,1.46s1.41,1,2.14,1.49a7.15,7.15,0,0,1,1.84,2,5.86,5.86,0,0,1,.73,3.1,5,5,0,0,1-1,3.08,7,7,0,0,1-2.61,2.09,7.61,7.61,0,0,1-3.35.76,18.49,18.49,0,0,1-3-.27C82,62.11,81,61.91,80,61.7c-.1-.49-.21-1.1-.32-1.84s-.2-1.46-.28-2.14-.13-1.18-.15-1.46a.88.88,0,0,1,.44-.3,1.93,1.93,0,0,1,.48-.13c.26,0,.4.08.42.23a5.23,5.23,0,0,0,.53,1.52,9,9,0,0,0,1.1,1.71,5.87,5.87,0,0,0,1.57,1.37,3.78,3.78,0,0,0,2,.54A3.53,3.53,0,0,0,88,60.5a2.83,2.83,0,0,0,.93-2.41,2.87,2.87,0,0,0-.51-1.62,7,7,0,0,0-1.26-1.42,16.9,16.9,0,0,0-1.57-1.22l-1.41-.95c-.76-.52-1.51-1.05-2.23-1.6a7,7,0,0,1-1.75-1.93,5.31,5.31,0,0,1-.67-2.79,4.65,4.65,0,0,1,1-3,7.16,7.16,0,0,1,2.58-2.05A7.39,7.39,0,0,1,86.32,40.8Z"/><path class="cls-2" d="M101.49,52.33v5.24c0,.59,0,1.16,0,1.7a4,4,0,0,0,.23,1.31.8.8,0,0,0,.44.33,2.92,2.92,0,0,0,.76.18l.6.08a.91.91,0,0,1,.12.59,1.27,1.27,0,0,1-.12.59c-.61-.07-1.29-.12-2-.16s-1.45-.07-2.13-.07-1.41,0-2.21.07-1.51.09-2.14.16a1.27,1.27,0,0,1-.12-.59.91.91,0,0,1,.12-.59l.67-.08a4.49,4.49,0,0,0,.87-.18c.28-.09.44-.2.49-.33a4.09,4.09,0,0,0,.23-1.24c0-.5,0-1.1,0-1.77V53.9c0-.11,0-.34,0-.7s0-.74-.08-1.12a2.11,2.11,0,0,0-.2-.8.82.82,0,0,0-.57-.39,5.46,5.46,0,0,0-.87-.2c-.28,0-.47-.07-.55-.07s-.05-.11-.07-.27a1.93,1.93,0,0,1,0-.48c0-.15,0-.23.1-.23a15.32,15.32,0,0,0,2.41-.39c.79-.2,1.53-.42,2.21-.66a14.36,14.36,0,0,0,1.6-.65.7.7,0,0,1,.36.26c.13.15.2.25.2.3a5.37,5.37,0,0,0-.18.83c-.08.43-.13.76-.15,1s0,.74,0,1.18ZM96.77,42.5a2.19,2.19,0,0,1,.69-1.62,2.25,2.25,0,0,1,1.64-.67,2.23,2.23,0,0,1,1.63.67,2.19,2.19,0,0,1,.69,1.62,2.25,2.25,0,0,1-.69,1.64,2.28,2.28,0,0,1-3.27,0A2.25,2.25,0,0,1,96.77,42.5Z"/><path class="cls-2" d="M116.29,47.94a4.07,4.07,0,0,1,2.77.83,4.43,4.43,0,0,1,1.26,2.53,22.36,22.36,0,0,1,.33,4.21v2.06c0,.67,0,1.27,0,1.77a3.81,3.81,0,0,0,.23,1.24.83.83,0,0,0,.51.33,4,4,0,0,0,.88.18l.67.08a.91.91,0,0,1,.12.59,1.27,1.27,0,0,1-.12.59c-.61-.07-1.32-.12-2.14-.16s-1.57-.07-2.25-.07-1.35,0-2,.07-1.33.09-2,.16a1.27,1.27,0,0,1-.12-.59.91.91,0,0,1,.12-.59q.33,0,.93-.15c.41-.07.65-.22.74-.44a3.72,3.72,0,0,0,.2-1.08c0-.44,0-.94,0-1.51V55.05a12.66,12.66,0,0,0-.18-2.18,3.92,3.92,0,0,0-.64-1.67,1.51,1.51,0,0,0-1.31-.64,2.93,2.93,0,0,0-1.28.31,4.48,4.48,0,0,0-1.09.72,1.1,1.1,0,0,0-.45.74v5.24c0,.59,0,1.16,0,1.7a3.76,3.76,0,0,0,.23,1.31.76.76,0,0,0,.44.33,2.94,2.94,0,0,0,.75.18l.61.08a1,1,0,0,1,.11.59,1.45,1.45,0,0,1-.11.59c-.62-.07-1.29-.12-2-.16s-1.46-.07-2.13-.07-1.42,0-2.21.07-1.52.09-2.15.16a1.45,1.45,0,0,1-.11-.59.86.86,0,0,1,.11-.59l.67-.08a4.2,4.2,0,0,0,.87-.18c.28-.09.45-.2.49-.33a3.81,3.81,0,0,0,.23-1.24c0-.5,0-1.1,0-1.77V53.9c0-.11,0-.34,0-.7a11,11,0,0,0-.09-1.12,2.15,2.15,0,0,0-.19-.8.87.87,0,0,0-.57-.39,6,6,0,0,0-.87-.2c-.29,0-.47-.07-.56-.07a.73.73,0,0,1-.06-.27,1.29,1.29,0,0,1,0-.48c0-.15,0-.23.09-.23a15.32,15.32,0,0,0,2.41-.39c.8-.2,1.53-.42,2.21-.66a14.64,14.64,0,0,0,1.61-.65.53.53,0,0,1,.36.21.58.58,0,0,1,.19.35c0,.08-.06.27-.11.57s-.11.57-.15.83-.06.41-.06.43a.4.4,0,0,0,0,.2s.12-.06.23-.17a6.84,6.84,0,0,1,1.23-1.08,9.13,9.13,0,0,1,1.63-1A3.93,3.93,0,0,1,116.29,47.94Z"/><path class="cls-2" d="M133.62,59.14a4.56,4.56,0,0,1,2.42.72,4.25,4.25,0,0,1,1.39,1.46,2.91,2.91,0,0,1,.45,1.36,5,5,0,0,1-.72,2.63,6.93,6.93,0,0,1-1.94,2.07,9.52,9.52,0,0,1-2.73,1.34,10.48,10.48,0,0,1-3.16.48,6.72,6.72,0,0,1-3.87-1,3.07,3.07,0,0,1-1.5-2.63,2,2,0,0,1,.44-1.25,6,6,0,0,1,1.06-1.08,6.81,6.81,0,0,1,1.21-.78,2.35,2.35,0,0,1-1.35-1.18,4,4,0,0,1-.54-2,1.09,1.09,0,0,1,.4-.7,7.42,7.42,0,0,1,1-.85,9.72,9.72,0,0,1,1.21-.77,4.88,4.88,0,0,1-2.18-1.66,4.2,4.2,0,0,1,0-4.89,5.28,5.28,0,0,1,2.08-1.72,6.54,6.54,0,0,1,2.94-.64,9.15,9.15,0,0,1,1.92.18,4,4,0,0,1,1.49.64.3.3,0,0,0,.2.09l4-.39.22.12a.26.26,0,0,1,.14.24,1.73,1.73,0,0,1-.13.46,4.28,4.28,0,0,1-.31.69,1.56,1.56,0,0,1-.34.46l-.85-.1-.95-.1c-.13,0-.2,0-.2.1a3.29,3.29,0,0,1,.54,1,4.28,4.28,0,0,1,.15,1.18,4.1,4.1,0,0,1-.76,2.4,5.29,5.29,0,0,1-2.06,1.75,6.53,6.53,0,0,1-3,.66c-.28,0-.57,0-.85,0s-.56-.06-.82-.1c-.18.15-.34.31-.51.47a.75.75,0,0,0-.24.51c0,.24.15.43.47.58a2.53,2.53,0,0,0,1,.21h2.69C132.69,59.11,133.2,59.12,133.62,59.14Zm-2.1,3.54H128a3.19,3.19,0,0,0-.32.52,2,2,0,0,0-.17.89,3,3,0,0,0,1.08,2.44,4.31,4.31,0,0,0,2.76.86,5,5,0,0,0,2.35-.44,2.46,2.46,0,0,0,1.12-1.06,2.82,2.82,0,0,0,.29-1.15,1.66,1.66,0,0,0-1-1.54A5.56,5.56,0,0,0,131.52,62.68Zm-1.44-13.43a1.39,1.39,0,0,0-1.19.49,2.48,2.48,0,0,0-.48,1.21,10,10,0,0,0-.1,1.44,7.39,7.39,0,0,0,.23,1.79,3.64,3.64,0,0,0,.74,1.5,1.63,1.63,0,0,0,1.32.61,1.31,1.31,0,0,0,1.15-.47,2.39,2.39,0,0,0,.39-1.17,12.57,12.57,0,0,0,.07-1.37v-.17a9,9,0,0,0-.18-1.78,3.44,3.44,0,0,0-.64-1.49A1.53,1.53,0,0,0,130.08,49.25Z"/><path class="cls-2" d="M141.28,44.37c0-.28,0-.54,0-.77a2.83,2.83,0,0,0-.2-.77c0-.13-.19-.24-.46-.33a3.66,3.66,0,0,0-.81-.18c-.29,0-.5,0-.63,0s-.1-.16-.11-.47,0-.51.11-.58a25.76,25.76,0,0,0,3.16-.45c.91-.2,1.63-.38,2.17-.55l.83-.24a.54.54,0,0,1,.31.23.91.91,0,0,1,.18.33c-.11.74-.19,1.36-.26,1.86a10.37,10.37,0,0,0-.1,1.41V57.57c0,.67,0,1.27,0,1.77a4.09,4.09,0,0,0,.23,1.24.87.87,0,0,0,.51.33,4,4,0,0,0,.89.18l.67.08a1,1,0,0,1,.11.59,1.45,1.45,0,0,1-.11.59c-.61-.07-1.33-.12-2.15-.16s-1.56-.07-2.24-.07-1.42,0-2.23.07-1.53.09-2.16.16a1.3,1.3,0,0,1-.11-.59.86.86,0,0,1,.11-.59l.69-.08a4.29,4.29,0,0,0,.88-.18c.28-.09.45-.2.49-.33a3.41,3.41,0,0,0,.2-1.08c0-.44,0-.94,0-1.51V44.37Z"/><path class="cls-2" d="M153.2,54.49a6.46,6.46,0,0,0,.5,2.73,4.19,4.19,0,0,0,1.21,1.63,4.42,4.42,0,0,0,1.49.77,5,5,0,0,0,1.29.21,4,4,0,0,0,2.23-.54,8.83,8.83,0,0,0,1.34-1.07.44.44,0,0,1,.28.23.68.68,0,0,1,.11.36,1.33,1.33,0,0,1-.09.59,8.79,8.79,0,0,1-1.08,1.18,8,8,0,0,1-2,1.34,6,6,0,0,1-2.73.59,7,7,0,0,1-3.31-.8A6.25,6.25,0,0,1,150,59.42a6.64,6.64,0,0,1-.94-3.59,7.67,7.67,0,0,1,.59-2.93,9.28,9.28,0,0,1,1.59-2.55,7.79,7.79,0,0,1,2.28-1.79,5.8,5.8,0,0,1,2.65-.65,6.33,6.33,0,0,1,2.65.49,4.63,4.63,0,0,1,1.72,1.24,5,5,0,0,1,.94,1.59,4.82,4.82,0,0,1,.29,1.52,1.73,1.73,0,0,1-.24.92.82.82,0,0,1-.61.43l-2.42.18c-.9,0-1.8.1-2.72.13Zm0-1.28h.64l1.24-.07,1.33-.1.91-.08q.3,0,.36-.21a.84.84,0,0,0,.07-.31,5.62,5.62,0,0,0-.2-1.48,3.09,3.09,0,0,0-.62-1.21,1.43,1.43,0,0,0-1.15-.49,1.69,1.69,0,0,0-1.21.46,3.51,3.51,0,0,0-.8,1.11,5.19,5.19,0,0,0-.44,1.33A5.64,5.64,0,0,0,153.24,53.21Z"/><path class="cls-2" d="M165,53.67l2.42-.11,2.14-.1,2-.1,1.2,0a.41.41,0,0,1,.16,0s.06.1.06.23a3.6,3.6,0,0,1-.14,1,6.82,6.82,0,0,1-.35,1l-2,.09c-.84,0-1.75.09-2.74.13l-2.94.14c-.16,0-.23-.12-.23-.36a3.79,3.79,0,0,1,.14-1A6.5,6.5,0,0,1,165,53.67Z"/><path class="cls-2" d="M187.07,40.9c1.05,0,2.18.05,3.41.14a25.86,25.86,0,0,1,3.24.45c0,.08.09.36.2.83s.23,1,.37,1.57.26,1.11.36,1.58a6.5,6.5,0,0,1,.15.86c0,.09-.09.19-.26.3a1,1,0,0,1-.56.16h-.24a.37.37,0,0,1-.22-.12,7.7,7.7,0,0,0-.47-1.19A5.59,5.59,0,0,0,192,44a5.49,5.49,0,0,0-1.82-1.23,7.29,7.29,0,0,0-2.83-.49,5.26,5.26,0,0,0-3.64,1.23,7,7,0,0,0-2,3.21,14.2,14.2,0,0,0-.62,4.24,17.26,17.26,0,0,0,.39,3.67,11,11,0,0,0,1.23,3.24,6.82,6.82,0,0,0,2.15,2.31A5.48,5.48,0,0,0,188,61a6.32,6.32,0,0,0,2.39-.39,4.91,4.91,0,0,0,1.57-1,5.72,5.72,0,0,0,1.18-1.5,13.42,13.42,0,0,0,.77-1.61c.18-.48.29-.76.31-.85a1.65,1.65,0,0,1,1.11.36,7.59,7.59,0,0,1-.13.87c-.08.49-.2,1-.34,1.64s-.28,1.13-.43,1.6-.27.73-.41.77c-1,.35-2,.69-3.14,1a13.78,13.78,0,0,1-3.86.49,11.4,11.4,0,0,1-4.26-.79,11,11,0,0,1-3.51-2.19,10.36,10.36,0,0,1-2.37-3.34,10.12,10.12,0,0,1-.87-4.2,10.69,10.69,0,0,1,.87-4.32,11,11,0,0,1,2.39-3.5,11.11,11.11,0,0,1,3.52-2.36A10.77,10.77,0,0,1,187.07,40.9Z"/><path class="cls-2" d="M201.45,54.49a6.47,6.47,0,0,0,.49,2.73,4.29,4.29,0,0,0,1.21,1.63,4.52,4.52,0,0,0,1.49.77,5.16,5.16,0,0,0,1.3.21,4,4,0,0,0,2.22-.54,8.48,8.48,0,0,0,1.35-1.07.4.4,0,0,1,.27.23.7.7,0,0,1,.12.36,1.17,1.17,0,0,1-.1.59,8.79,8.79,0,0,1-1.08,1.18,7.71,7.71,0,0,1-2,1.34,6,6,0,0,1-2.74.59,6.94,6.94,0,0,1-3.3-.8,6.35,6.35,0,0,1-2.48-2.29,6.64,6.64,0,0,1-.93-3.59,7.67,7.67,0,0,1,.59-2.93,8.83,8.83,0,0,1,1.59-2.55,7.62,7.62,0,0,1,2.27-1.79,5.87,5.87,0,0,1,2.66-.65,6.33,6.33,0,0,1,2.65.49,4.79,4.79,0,0,1,2.65,2.83,4.58,4.58,0,0,1,.3,1.52,1.65,1.65,0,0,1-.25.92.79.79,0,0,1-.6.43l-2.43.18c-.89,0-1.8.1-2.72.13Zm0-1.28h.64l1.25-.07,1.32-.1.92-.08q.3,0,.36-.21a1,1,0,0,0,.06-.31,5.61,5.61,0,0,0-.19-1.48,3.09,3.09,0,0,0-.62-1.21,1.45,1.45,0,0,0-1.15-.49,1.68,1.68,0,0,0-1.21.46,3.54,3.54,0,0,0-.81,1.11,6.1,6.1,0,0,0-.44,1.33A6.64,6.64,0,0,0,201.48,53.21Z"/><path class="cls-2" d="M213.8,44.37a6.08,6.08,0,0,0,0-.77,2.78,2.78,0,0,0-.19-.77c0-.13-.2-.24-.46-.33a3.75,3.75,0,0,0-.82-.18c-.28,0-.49,0-.62,0s-.11-.16-.12-.47,0-.51.12-.58a26,26,0,0,0,3.16-.45c.9-.2,1.63-.38,2.16-.55l.84-.24a.57.57,0,0,1,.31.23,1.1,1.1,0,0,1,.18.33c-.11.74-.2,1.36-.26,1.86a10.37,10.37,0,0,0-.1,1.41V57.57c0,.67,0,1.27,0,1.77a3.81,3.81,0,0,0,.23,1.24.8.8,0,0,0,.51.33,3.92,3.92,0,0,0,.88.18l.67.08a.91.91,0,0,1,.12.59,1.27,1.27,0,0,1-.12.59c-.61-.07-1.32-.12-2.14-.16s-1.57-.07-2.25-.07-1.42,0-2.22.07-1.53.09-2.17.16a1.45,1.45,0,0,1-.11-.59,1,1,0,0,1,.11-.59l.69-.08a4.39,4.39,0,0,0,.89-.18c.28-.09.44-.2.49-.33a3.43,3.43,0,0,0,.19-1.08c0-.44,0-.94,0-1.51V44.37Z"/><path class="cls-2" d="M223.56,44.37a6.08,6.08,0,0,0,0-.77,2.78,2.78,0,0,0-.19-.77c-.05-.13-.2-.24-.46-.33a3.75,3.75,0,0,0-.82-.18c-.28,0-.49,0-.62,0s-.11-.16-.12-.47,0-.51.12-.58a26,26,0,0,0,3.16-.45c.9-.2,1.62-.38,2.16-.55l.84-.24a.57.57,0,0,1,.31.23,1.39,1.39,0,0,1,.18.33c-.11.74-.2,1.36-.26,1.86a10.37,10.37,0,0,0-.1,1.41V57.57c0,.67,0,1.27,0,1.77a3.81,3.81,0,0,0,.23,1.24.8.8,0,0,0,.51.33,3.92,3.92,0,0,0,.88.18l.67.08a.91.91,0,0,1,.12.59,1.27,1.27,0,0,1-.12.59c-.61-.07-1.32-.12-2.14-.16s-1.57-.07-2.25-.07-1.42,0-2.22.07-1.53.09-2.17.16a1.45,1.45,0,0,1-.11-.59,1,1,0,0,1,.11-.59l.69-.08a4.39,4.39,0,0,0,.89-.18c.28-.09.44-.2.49-.33a3.43,3.43,0,0,0,.19-1.08c0-.44,0-.94,0-1.51V44.37Z"/><path class="cls-2" d="M243.08,57.93l6.81-15.66a4.25,4.25,0,0,1,.54-.77c.25-.29.46-.44.64-.44.37,0,.6.07.69.2l6.55,16.21a10.26,10.26,0,0,1,.49,1.26,10.55,10.55,0,0,0,.39,1.07,2,2,0,0,0,.84,1,3.28,3.28,0,0,0,1.05.36l.63.06a1.4,1.4,0,0,1,.15.66.86.86,0,0,1-.08.52l-2.1-.16c-.76-.07-1.49-.1-2.19-.1-.48,0-1,0-1.64,0l-1.75.11c-.56,0-1,.08-1.43.1a1,1,0,0,1-.09-.38,1.63,1.63,0,0,1,0-.54c0-.17,0-.26.09-.26a4,4,0,0,0,1-.15,2,2,0,0,0,.9-.44.67.67,0,0,0,.27-.52,3.08,3.08,0,0,0-.2-.61l-.48-1.23c-.18-.48-.37-.95-.55-1.42s-.41-1-.67-1.62a.49.49,0,0,0-.23-.13c-.46,0-.9,0-1.33,0h-3.47c-.49,0-1,0-1.59,0-.09,0-.16.05-.23.16-.28.66-.51,1.19-.69,1.6s-.33.78-.46,1.09-.31.83-.47,1.31a4.73,4.73,0,0,0-.25.88c0,.26.19.47.56.64a4.68,4.68,0,0,0,1.16.34,6.26,6.26,0,0,0,.74.1.81.81,0,0,1,.13.62,1.38,1.38,0,0,1-.1.56l-1.6-.18c-.53-.05-1.14-.08-1.84-.08s-1.37,0-1.88.08l-1.62.18a.85.85,0,0,1-.13-.49,1.69,1.69,0,0,1,.06-.66,2.92,2.92,0,0,0,.67-.14,7,7,0,0,0,.95-.38,1.51,1.51,0,0,0,.64-.49,8.16,8.16,0,0,0,.63-1.13C242.72,58.74,242.88,58.37,243.08,57.93ZM249.5,47l-2.72,6.29c0,.06,0,.1.06.1l1.31.06,1.35,0h1.29l1.26-.05s.08,0,.1-.13Z"/><path class="cls-2" d="M273.8,47.94a4.07,4.07,0,0,1,2.77.83,4.43,4.43,0,0,1,1.26,2.53,22.36,22.36,0,0,1,.33,4.21v2.06c0,.67,0,1.27,0,1.77a3.81,3.81,0,0,0,.23,1.24.8.8,0,0,0,.51.33,3.92,3.92,0,0,0,.88.18l.67.08a.91.91,0,0,1,.12.59,1.42,1.42,0,0,1-.12.59c-.61-.07-1.32-.12-2.14-.16s-1.57-.07-2.25-.07-1.35,0-2,.07-1.33.09-2,.16a1.27,1.27,0,0,1-.12-.59.91.91,0,0,1,.12-.59q.33,0,.93-.15c.4-.07.65-.22.74-.44A3.43,3.43,0,0,0,274,59.5c0-.44,0-.94,0-1.51V55.05a12.66,12.66,0,0,0-.18-2.18,4.05,4.05,0,0,0-.64-1.67,1.52,1.52,0,0,0-1.31-.64,2.93,2.93,0,0,0-1.28.31,4.55,4.55,0,0,0-1.1.72,1.12,1.12,0,0,0-.44.74v5.24c0,.59,0,1.16,0,1.7a4,4,0,0,0,.23,1.31.84.84,0,0,0,.44.33,2.92,2.92,0,0,0,.76.18l.6.08a.91.91,0,0,1,.12.59,1.27,1.27,0,0,1-.12.59c-.61-.07-1.28-.12-2-.16s-1.45-.07-2.13-.07-1.41,0-2.21.07-1.51.09-2.14.16a1.27,1.27,0,0,1-.12-.59.91.91,0,0,1,.12-.59l.67-.08a4.49,4.49,0,0,0,.87-.18c.28-.09.45-.2.49-.33a3.81,3.81,0,0,0,.23-1.24c0-.5,0-1.1,0-1.77V53.9c0-.11,0-.34,0-.7s0-.74-.09-1.12a2.37,2.37,0,0,0-.19-.8.87.87,0,0,0-.58-.39,5.46,5.46,0,0,0-.87-.2c-.28,0-.46-.07-.55-.07a.65.65,0,0,1-.07-.27,1.93,1.93,0,0,1,0-.48c0-.15.06-.23.1-.23a15.32,15.32,0,0,0,2.41-.39c.8-.2,1.53-.42,2.21-.66a13.6,13.6,0,0,0,1.6-.65.57.57,0,0,1,.37.21.58.58,0,0,1,.19.35c0,.08-.06.27-.11.57s-.11.57-.15.83-.07.41-.07.43,0,.17,0,.2.12-.06.23-.17a7.1,7.1,0,0,1,1.22-1.08,9.58,9.58,0,0,1,1.64-1A3.93,3.93,0,0,1,273.8,47.94Z"/><path class="cls-2" d="M288.64,47.87a4.79,4.79,0,0,1,4.16,2.34,5,5,0,0,1,.65,2.54v6a1.85,1.85,0,0,0,.21,1,.65.65,0,0,0,.54.35,1.05,1.05,0,0,0,.59-.15,2,2,0,0,1,.33-.18c.15.07.23.24.23.52a1,1,0,0,1-.13.5l-.75.6a7.63,7.63,0,0,1-1.18.74,3,3,0,0,1-1.35.33,2.47,2.47,0,0,1-1.49-.53,2.67,2.67,0,0,1-.93-1.08,5.39,5.39,0,0,1-.8.54,14.22,14.22,0,0,1-1.46.77,3.36,3.36,0,0,1-1.37.36,4.16,4.16,0,0,1-2.17-.57,4.23,4.23,0,0,1-1.49-1.48,3.53,3.53,0,0,1-.54-1.85,2.69,2.69,0,0,1,.53-1.65,2.35,2.35,0,0,1,1.14-.9c.42-.13,1-.34,1.71-.62l2.24-.89,2-.75V52.26a4.57,4.57,0,0,0-.52-2.19,1.56,1.56,0,0,0-1.38-1,1.26,1.26,0,0,0-1.26.81,12.23,12.23,0,0,0-.61,1.88,2.25,2.25,0,0,1-.52,1,1.6,1.6,0,0,1-1.24.44,1.76,1.76,0,0,1-1.15-.44,1.38,1.38,0,0,1-.52-1.1,1.72,1.72,0,0,1,.13-.66,4.33,4.33,0,0,1,.32-.65,7.61,7.61,0,0,1,.74-.56,13.05,13.05,0,0,1,1.43-.83,10.79,10.79,0,0,1,1.86-.76A7.31,7.31,0,0,1,288.64,47.87ZM288,60.22a1.62,1.62,0,0,0,.95-.26q.36-.27.36-.39V55.08c-.33.15-.68.31-1.06.46a6.34,6.34,0,0,0-1.07.55,2.36,2.36,0,0,0-.91,1,2.29,2.29,0,0,0-.23,1.13,1.82,1.82,0,0,0,.68,1.49A2.25,2.25,0,0,0,288,60.22Z"/><path class="cls-2" d="M298.59,44.37c0-.28,0-.54,0-.77a2.83,2.83,0,0,0-.2-.77q-.06-.19-.45-.33a3.88,3.88,0,0,0-.82-.18c-.29,0-.49,0-.63,0s-.1-.16-.11-.47,0-.51.11-.58a26.23,26.23,0,0,0,3.17-.45c.9-.2,1.62-.38,2.16-.55l.83-.24a.54.54,0,0,1,.31.23.91.91,0,0,1,.18.33c-.11.74-.19,1.36-.26,1.86a12.28,12.28,0,0,0-.1,1.41V57.57c0,.67,0,1.27,0,1.77a3.56,3.56,0,0,0,.23,1.24.8.8,0,0,0,.5.33,4.13,4.13,0,0,0,.89.18l.67.08a.92.92,0,0,1,.11.59,1.45,1.45,0,0,1-.11.59c-.61-.07-1.33-.12-2.15-.16s-1.56-.07-2.24-.07-1.42,0-2.23.07-1.53.09-2.16.16a1.45,1.45,0,0,1-.11-.59.86.86,0,0,1,.11-.59l.69-.08a4.29,4.29,0,0,0,.88-.18c.29-.09.45-.2.49-.33a3.41,3.41,0,0,0,.2-1.08c0-.44,0-.94,0-1.51V44.37Z"/><path class="cls-2" d="M309.47,48.27c.67,0,1.42,0,2.22-.09s1.41-.1,1.81-.14a.94.94,0,0,1,.13.59,1.12,1.12,0,0,1-.13.62,3.37,3.37,0,0,0-.66.1,3.69,3.69,0,0,0-.85.28c-.26.12-.39.27-.39.47a2,2,0,0,0,0,.21,2.33,2.33,0,0,0,.05.28c.29.55.61,1.18,1,1.9s.74,1.42,1.1,2.08L315,56.88l.87-1.92c.25-.55.52-1.16.82-1.81l.83-1.87a2.9,2.9,0,0,0,.23-.59,1.92,1.92,0,0,0,.1-.59q0-.39-.51-.57a4.18,4.18,0,0,0-1.06-.23l-.69,0a.88.88,0,0,1-.13-.59,1.26,1.26,0,0,1,.1-.62c.48.06,1,.12,1.59.16s1.17.07,1.78.07,1.34,0,2-.1l1.33-.13a1.27,1.27,0,0,1,.11.59,1,1,0,0,1-.11.62c-.13,0-.38,0-.74.06a4.36,4.36,0,0,0-1.08.3,1.42,1.42,0,0,0-.77.69c-.46,1-.88,1.88-1.28,2.7s-.82,1.72-1.27,2.7-.93,2-1.41,3-.92,1.91-1.31,2.76l-1.26,2.71a11.6,11.6,0,0,1-1.56,2.4,7.75,7.75,0,0,1-2.28,2.11,3.86,3.86,0,0,1-1.78.55,2.12,2.12,0,0,1-1.57-.55,1.6,1.6,0,0,1-.56-1.16,1.86,1.86,0,0,1,.2-.91,1.65,1.65,0,0,1,.52-.59,11.81,11.81,0,0,0,2.21-.18,4.38,4.38,0,0,0,1.67-.71,5.22,5.22,0,0,0,1.39-1.6,7.51,7.51,0,0,0,.63-1.13c.11-.28.27-.65.49-1.13l-1.05-2.12L310,56.31c-.49-1-1-1.93-1.39-2.82s-.93-1.89-1.48-3a1.43,1.43,0,0,0-.64-.75,2.79,2.79,0,0,0-.83-.36,2.45,2.45,0,0,0-.53-.1,1.18,1.18,0,0,1-.11-.64,1.2,1.2,0,0,1,.11-.57l1.22.1c.52,0,1.07.07,1.63.09S309.05,48.27,309.47,48.27Z"/><path class="cls-2" d="M329.12,47.87a7.56,7.56,0,0,1,2,.23c.54.16,1.08.29,1.6.4.09.35.19.8.29,1.35s.21,1.08.28,1.56a7.2,7.2,0,0,1,.12,1c0,.06-.07.12-.22.16a1.4,1.4,0,0,1-.37.07.58.58,0,0,1-.33-.09l-.29-.18a6.71,6.71,0,0,0-.53-1.45,3.32,3.32,0,0,0-1.05-1.25,3,3,0,0,0-1.8-.51,2,2,0,0,0-1.31.43,1.54,1.54,0,0,0-.52,1.28,1.74,1.74,0,0,0,.52,1.32,4.17,4.17,0,0,0,1.3.84c.51.22,1,.45,1.45.69a13.55,13.55,0,0,1,1.64.88,4,4,0,0,1,1.29,1.28,3.92,3.92,0,0,1,.51,2.16,3.69,3.69,0,0,1-.87,2.57A5,5,0,0,1,330.49,62a10.67,10.67,0,0,1-3.11.44,7.91,7.91,0,0,1-2.09-.28l-1.64-.41c0-.17,0-.47-.08-.88s-.07-.86-.1-1.33-.06-.89-.07-1.26,0-.6,0-.69.06-.17.18-.18h.31a1.55,1.55,0,0,1,.39.06.43.43,0,0,1,.3.23,4.55,4.55,0,0,0,.82,2.13,3.28,3.28,0,0,0,1.31,1,3.45,3.45,0,0,0,1.34.29,1.65,1.65,0,0,0,1.32-.54,1.74,1.74,0,0,0,.48-1.19,1.69,1.69,0,0,0-.51-1.3,4.63,4.63,0,0,0-1.26-.81c-.5-.23-1-.48-1.5-.74a10.07,10.07,0,0,1-2.41-1.74,3.43,3.43,0,0,1-1-2.58,3.54,3.54,0,0,1,.57-2,4.4,4.4,0,0,1,1.48-1.36,6.9,6.9,0,0,1,1.93-.77A8.26,8.26,0,0,1,329.12,47.87Z"/><path class="cls-2" d="M342.25,52.33v5.24c0,.59,0,1.16,0,1.7a3.76,3.76,0,0,0,.23,1.31.76.76,0,0,0,.44.33,2.94,2.94,0,0,0,.75.18l.61.08a1,1,0,0,1,.11.59,1.45,1.45,0,0,1-.11.59c-.61-.07-1.29-.12-2-.16s-1.46-.07-2.13-.07-1.42,0-2.21.07-1.52.09-2.15.16a1.45,1.45,0,0,1-.11-.59.86.86,0,0,1,.11-.59l.67-.08a4.2,4.2,0,0,0,.87-.18c.28-.09.45-.2.49-.33a3.81,3.81,0,0,0,.23-1.24c0-.5,0-1.1,0-1.77V53.9c0-.11,0-.34,0-.7s0-.74-.08-1.12a2.33,2.33,0,0,0-.2-.8.87.87,0,0,0-.57-.39,6,6,0,0,0-.87-.2c-.29,0-.47-.07-.56-.07a.73.73,0,0,1-.06-.27,1.29,1.29,0,0,1,0-.48c0-.15.05-.23.09-.23a15.32,15.32,0,0,0,2.41-.39c.8-.2,1.53-.42,2.21-.66a14.64,14.64,0,0,0,1.61-.65.7.7,0,0,1,.36.26c.13.15.19.25.19.3s-.1.41-.18.83-.12.76-.14,1,0,.74,0,1.18Zm-4.71-9.83a2.21,2.21,0,0,1,.68-1.62,2.34,2.34,0,0,1,3.28,0,2.19,2.19,0,0,1,.69,1.62,2.32,2.32,0,0,1-4,1.64A2.28,2.28,0,0,1,337.54,42.5Z"/><path class="cls-2" d="M352.08,47.87a7.42,7.42,0,0,1,2,.23c.55.16,1.09.29,1.61.4.09.35.19.8.29,1.35s.21,1.08.28,1.56a7.2,7.2,0,0,1,.12,1c0,.06-.07.12-.22.16a1.4,1.4,0,0,1-.37.07.58.58,0,0,1-.33-.09l-.29-.18a6.71,6.71,0,0,0-.53-1.45,3.32,3.32,0,0,0-1.05-1.25,3,3,0,0,0-1.8-.51,2,2,0,0,0-1.31.43,1.54,1.54,0,0,0-.52,1.28,1.74,1.74,0,0,0,.52,1.32,4.17,4.17,0,0,0,1.3.84c.51.22,1,.45,1.45.69a13.55,13.55,0,0,1,1.64.88,4,4,0,0,1,1.29,1.28,3.92,3.92,0,0,1,.51,2.16,3.69,3.69,0,0,1-.87,2.57A5,5,0,0,1,353.45,62a10.67,10.67,0,0,1-3.11.44,7.91,7.91,0,0,1-2.09-.28l-1.64-.41c0-.17-.05-.47-.08-.88s-.07-.86-.1-1.33-.06-.89-.07-1.26,0-.6,0-.69.06-.17.18-.18h.31a1.55,1.55,0,0,1,.39.06.46.46,0,0,1,.3.23,4.55,4.55,0,0,0,.82,2.13,3.28,3.28,0,0,0,1.31,1,3.45,3.45,0,0,0,1.34.29,1.65,1.65,0,0,0,1.32-.54,1.74,1.74,0,0,0,.48-1.19,1.69,1.69,0,0,0-.51-1.3,4.63,4.63,0,0,0-1.26-.81c-.5-.23-1-.48-1.5-.74a10.07,10.07,0,0,1-2.41-1.74,3.43,3.43,0,0,1-1-2.58,3.54,3.54,0,0,1,.57-2,4.4,4.4,0,0,1,1.48-1.36,6.9,6.9,0,0,1,1.93-.77A8.26,8.26,0,0,1,352.08,47.87Z"/><path class="cls-3" d="M25.39,4.33C24.5,4.58,11.24,8.7,6.54,23,1.63,37.91,9.19,54.45,19.1,62.1,34.6,74,60.05,67.47,65.84,50.41c4.67-13.8-4.92-30.27-14-38.22C49.07,9.71,38.61.49,25.39,4.33Z"/><path class="cls-4" d="M26.48,7.75c-.79.23-12.59,3.89-16.77,16.6-4.37,13.29,2.36,28,11.18,34.82C34.69,69.8,57.34,64,62.49,48.76c4.16-12.27-4.38-26.93-12.41-34C47.57,12.53,38.25,4.33,26.48,7.75Z"/><ellipse class="cls-5" cx="42.65" cy="43.86" rx="12.06" ry="12.05"/></svg>