<svg id="Layer_1" data-name="Layer 1" xmlns="http://www.w3.org/2000/svg" viewBox="0 0 400 400"><defs><style>.cls-1{fill:#7f7e7e;}.cls-2{fill:#ff414b;}.cls-3{fill:#c9c9c9;}</style></defs><title>multimodal_icon</title><path class="cls-1" d="M248.44,93.74a4.48,4.48,0,0,0-6.48,0c-13,13-34.69,16.19-60.59,9.71-6.93-25.9-3.23-47.17,9.72-60.59a4.58,4.58,0,1,0-6.48-6.47c-14.34,14.8-19,37.46-13,64.28a91.63,91.63,0,0,0-21.74-2.31c-20.35,0-36.53,7.4-47.17,20.81-11.1,14.34-13.88,35.62-8.79,59.67-27.29-6-49.95-1.39-64.29,12.95a4.58,4.58,0,0,0,6.48,6.47c13-12.95,34.69-16.19,60.59-9.71,6.93,25.9,3.23,47.17-9.72,60.59a4.47,4.47,0,0,0,0,6.47,4.47,4.47,0,0,0,6.48,0c14.34-14.8,19-37.46,13-64.28a91.63,91.63,0,0,0,21.74,2.31h0c20.35,0,36.53-7.4,47.17-20.81,11.1-14.34,13.88-35.62,8.79-59.67a97.11,97.11,0,0,0,22.2,2.78c17.57,0,31.91-5.09,42.55-15.73C250.29,98.82,250.29,95.59,248.44,93.74ZM168,167.27c-8.32,11.1-22.2,17.12-39.77,17.12a96.88,96.88,0,0,1-24.52-3.24c-6-23.13-3.7-43.48,6-56.43,8.32-11.1,22.2-17.11,39.77-17.11A96.75,96.75,0,0,1,174,110.85C180,134,177.67,154.32,168,167.27Z"/><path class="cls-2" d="M190.62,59.05,225.77,94.2A5.05,5.05,0,0,0,229,95.59a4.23,4.23,0,0,0,3.24-1.39,4.48,4.48,0,0,0,0-6.48L197.1,52.58a4.48,4.48,0,0,0-6.48,0A5.57,5.57,0,0,0,190.62,59.05Z"/><path class="cls-2" d="M183.69,70.61a4.48,4.48,0,0,0,0,6.48l24.05,24a5,5,0,0,0,3.23,1.38,4.2,4.2,0,0,0,3.24-1.38,4.48,4.48,0,0,0,0-6.48l-24.05-24A4.47,4.47,0,0,0,183.69,70.61Z"/><path class="cls-2" d="M87,232.49,51.87,197.34a4.57,4.57,0,1,0-6.47,6.47L80.55,239A4.46,4.46,0,0,0,87,239C88.87,237.57,88.87,234.34,87,232.49Z"/><path class="cls-2" d="M90.72,222.31A4.18,4.18,0,0,0,94,220.92a4.47,4.47,0,0,0,0-6.47l-24-24a4.57,4.57,0,1,0-6.47,6.47l24,24A5,5,0,0,0,90.72,222.31Z"/><path class="cls-2" d="M124.49,125.19a4.58,4.58,0,0,0-6.48,6.47l35.15,35.15a5,5,0,0,0,3.24,1.39,4.19,4.19,0,0,0,3.24-1.39,4.47,4.47,0,0,0,0-6.47Z"/><path class="cls-2" d="M115.24,145.54a4.58,4.58,0,1,0-6.48,6.47l24,24.05a5,5,0,0,0,3.24,1.39,4.19,4.19,0,0,0,3.24-1.39,4.47,4.47,0,0,0,0-6.47Z"/><path class="cls-2" d="M144.84,115.94a4.58,4.58,0,0,0-6.48,6.47l24,24.05a4.47,4.47,0,0,0,6.48,0,4.47,4.47,0,0,0,0-6.47Z"/><path class="cls-2" d="M356.77,239.78c-.32,1.06-1.95,5.16-13.36,6.21-19.59,1.79-66.18,6-80.56-29.6-10.71-26.54,2.22-60.89,22.84-75.88,42.18-30.67,108.27,25.76,105.21,41-1.81,9-44.44-.52-52,18.76-8.27,21.13,19.22,35,17.86,39.48"/><path class="cls-2" d="M356.77,239.78c-.32,1.06-1.95,5.16-13.36,6.21-19.59,1.79-66.18,6-80.56-29.6-10.71-26.54,2.22-60.89,22.84-75.88,42.18-30.67,108.27,25.76,105.21,41-1.81,9-44.44-.52-52,18.76C330.64,221.43,358.13,235.28,356.77,239.78Z"/><rect class="cls-3" x="38.31" y="323.43" width="352.69" height="16.21"/><rect class="cls-2" x="106.31" y="318.09" width="218.26" height="26.89"/><circle class="cls-1" cx="36.72" cy="331.54" r="23.72"/></svg>
