<?xml version="1.0" encoding="UTF-8"?><svg id="Layer_1" xmlns="http://www.w3.org/2000/svg" viewBox="0 0 600 200"><defs><style>.cls-1{stroke:#211f1f;stroke-width:3px;}.cls-1,.cls-2{fill:none;stroke-miterlimit:10;}.cls-3{fill:#fa950e;}.cls-4{fill:#f58b00;}.cls-5{fill:#ffdfb4;}.cls-6{fill:#ff9f1c;}.cls-7{fill:#ffaf43;}.cls-8{fill:#ffefda;}.cls-9{fill:#ffbf69;}.cls-10{fill:#ffa730;}.cls-11{fill:#ffbb60;}.cls-12{fill:#ffc77c;}.cls-13{fill:#ffcf8f;}.cls-14{fill:#ffb756;}.cls-15{fill:#7ddcd3;}.cls-16{fill:#6ad6cc;}.cls-17{fill:#91e2db;}.cls-18{fill:#b8eee9;}.cls-19{fill:#2ec4b6;}.cls-20{fill:#a4e8e2;}.cls-21{fill:#aeebe6;}.cls-22{fill:#cbf3f0;}.cls-23{fill:#c2f1ed;}.cls-24{fill:#211f1f;}.cls-25{fill:#56d0c5;}.cls-26{font-family:ArialMT, Arial;font-size:16px;}.cls-2{stroke:#231f20;stroke-width:2px;}.cls-27{fill:#b5d399;}.cls-27,.cls-28,.cls-29,.cls-30,.cls-31{opacity:.9;}.cls-28{fill:#f5a099;}.cls-29{fill:#006c3b;}.cls-30{fill:#9a7eb8;}.cls-31{fill:#fad174;}</style></defs><g><line class="cls-1" x1="303.6" y1="99.05" x2="387.42" y2="99.05"/><polygon class="cls-24" points="385.23 106.53 398.18 99.05 385.23 91.57 385.23 106.53"/></g><g><ellipse class="cls-27" cx="284.05" cy="126.05" rx="4.44" ry="4.37" transform="translate(133.18 397.73) rotate(-84.89)"/><ellipse class="cls-27" cx="284.05" cy="106.73" rx="4.37" ry="4.44" transform="translate(-7.38 22.22) rotate(-4.42)"/><ellipse class="cls-31" cx="284.05" cy="164.69" rx="4.35" ry="4.46" transform="translate(-4.46 7.95) rotate(-1.59)"/><ellipse class="cls-28" cx="284.05" cy="87.41" rx="4.36" ry="4.45"/><ellipse class="cls-28" cx="284.05" cy="68.09" rx="4.36" ry="4.45"/><ellipse class="cls-29" cx="284.05" cy="29.46" rx="4.36" ry="4.45"/><ellipse class="cls-30" cx="284.05" cy="48.78" rx="4.44" ry="4.37" transform="translate(220.24 329.83) rotate(-86.95)"/><g><g><rect class="cls-15" x="218.94" y="124.78" width="14.7" height="2.5" transform="translate(100.26 352.32) rotate(-90)"/><rect class="cls-25" x="208.84" y="124.78" width="14.7" height="2.5" transform="translate(90.16 342.22) rotate(-90)"/><rect class="cls-8" x="226.51" y="124.78" width="14.7" height="2.5" transform="translate(107.83 359.89) rotate(-90)"/><rect class="cls-5" x="229.03" y="124.78" width="14.7" height="2.5" transform="translate(110.35 362.41) rotate(-90)"/><rect class="cls-25" x="196.22" y="124.78" width="14.7" height="2.5" transform="translate(77.54 329.6) rotate(-90)"/><rect class="cls-23" x="221.46" y="124.78" width="14.7" height="2.5" transform="translate(102.78 354.84) rotate(-90)"/><rect class="cls-20" x="216.41" y="124.78" width="14.7" height="2.5" transform="translate(97.73 349.79) rotate(-90)"/><rect class="cls-5" x="241.65" y="124.78" width="14.7" height="2.5" transform="translate(122.97 375.03) rotate(-90)"/><rect class="cls-5" x="239.13" y="124.78" width="14.7" height="2.5" transform="translate(120.45 372.51) rotate(-90)"/><rect class="cls-21" x="203.79" y="124.78" width="14.7" height="2.5" transform="translate(85.11 337.17) rotate(-90)"/><rect class="cls-17" x="213.89" y="124.78" width="14.7" height="2.5" transform="translate(95.21 347.27) rotate(-90)"/><rect class="cls-25" x="198.75" y="124.78" width="14.7" height="2.5" transform="translate(80.06 332.12) rotate(-90)"/><rect class="cls-3" x="256.8" y="124.78" width="14.7" height="2.5" transform="translate(138.11 390.18) rotate(-90)"/><rect class="cls-7" x="264.37" y="124.78" width="14.7" height="2.5" transform="translate(145.69 397.75) rotate(-90)"/><rect class="cls-6" x="259.32" y="124.78" width="14.7" height="2.5" transform="translate(140.64 392.7) rotate(-90)"/><rect class="cls-3" x="261.85" y="124.78" width="14.7" height="2.5" transform="translate(143.16 395.22) rotate(-90)"/><rect class="cls-9" x="254.27" y="124.78" width="14.7" height="2.5" transform="translate(135.59 387.65) rotate(-90)"/><rect class="cls-13" x="246.7" y="124.78" width="14.7" height="2.5" transform="translate(128.02 380.08) rotate(-90)"/><rect class="cls-6" x="251.75" y="124.78" width="14.7" height="2.5" transform="translate(133.07 385.13) rotate(-90)"/><rect class="cls-4" x="249.23" y="124.78" width="14.7" height="2.5" transform="translate(130.54 382.6) rotate(-90)"/><rect class="cls-8" x="244.18" y="124.78" width="14.7" height="2.5" transform="translate(125.49 377.56) rotate(-90)"/><rect class="cls-5" x="236.61" y="124.78" width="14.7" height="2.5" transform="translate(117.92 369.98) rotate(-90)"/><rect class="cls-12" x="234.08" y="124.78" width="14.7" height="2.5" transform="translate(115.4 367.46) rotate(-90)"/><rect class="cls-5" x="231.56" y="124.78" width="14.7" height="2.5" transform="translate(112.87 364.94) rotate(-90)"/><rect class="cls-5" x="223.99" y="124.78" width="14.7" height="2.5" transform="translate(105.3 357.36) rotate(-90)"/><rect class="cls-21" x="211.37" y="124.78" width="14.7" height="2.5" transform="translate(344.74 -92.68) rotate(90)"/><rect class="cls-17" x="206.32" y="124.78" width="14.7" height="2.5" transform="translate(339.7 -87.64) rotate(90)"/><rect class="cls-19" x="201.27" y="124.78" width="14.7" height="2.5" transform="translate(334.65 -82.59) rotate(90)"/><rect class="cls-15" x="170.98" y="124.78" width="14.7" height="2.5" transform="translate(52.3 304.36) rotate(-90)"/><rect class="cls-25" x="181.08" y="124.78" width="14.7" height="2.5" transform="translate(62.4 314.46) rotate(-90)"/><rect class="cls-8" x="163.41" y="124.78" width="14.7" height="2.5" transform="translate(44.73 296.79) rotate(-90)"/><rect class="cls-5" x="160.89" y="124.78" width="14.7" height="2.5" transform="translate(42.2 294.27) rotate(-90)"/><rect class="cls-25" x="193.7" y="124.78" width="14.7" height="2.5" transform="translate(75.02 327.08) rotate(-90)"/><rect class="cls-23" x="168.46" y="124.78" width="14.7" height="2.5" transform="translate(49.78 301.84) rotate(-90)"/><rect class="cls-20" x="173.51" y="124.78" width="14.7" height="2.5" transform="translate(54.82 306.89) rotate(-90)"/><rect class="cls-5" x="148.27" y="124.78" width="14.7" height="2.5" transform="translate(29.58 281.65) rotate(-90)"/><rect class="cls-5" x="150.79" y="124.78" width="14.7" height="2.5" transform="translate(32.11 284.17) rotate(-90)"/><rect class="cls-21" x="186.13" y="124.78" width="14.7" height="2.5" transform="translate(67.44 319.5) rotate(-90)"/><rect class="cls-17" x="176.03" y="124.78" width="14.7" height="2.5" transform="translate(57.35 309.41) rotate(-90)"/><rect class="cls-25" x="191.17" y="124.78" width="14.7" height="2.5" transform="translate(72.49 324.55) rotate(-90)"/><rect class="cls-3" x="133.12" y="124.78" width="14.7" height="2.5" transform="translate(14.44 266.5) rotate(-90)"/><rect class="cls-7" x="125.55" y="124.78" width="14.7" height="2.5" transform="translate(6.87 258.93) rotate(-90)"/><rect class="cls-6" x="130.6" y="124.78" width="14.7" height="2.5" transform="translate(11.92 263.98) rotate(-90)"/><rect class="cls-3" x="128.08" y="124.78" width="14.7" height="2.5" transform="translate(9.39 261.45) rotate(-90)"/><rect class="cls-9" x="135.65" y="124.78" width="14.7" height="2.5" transform="translate(16.96 269.03) rotate(-90)"/><rect class="cls-13" x="143.22" y="124.78" width="14.7" height="2.5" transform="translate(24.54 276.6) rotate(-90)"/><rect class="cls-6" x="138.17" y="124.78" width="14.7" height="2.5" transform="translate(19.49 271.55) rotate(-90)"/><rect class="cls-4" x="140.7" y="124.78" width="14.7" height="2.5" transform="translate(22.01 274.07) rotate(-90)"/><rect class="cls-8" x="145.74" y="124.78" width="14.7" height="2.5" transform="translate(27.06 279.12) rotate(-90)"/><rect class="cls-5" x="153.32" y="124.78" width="14.7" height="2.5" transform="translate(34.63 286.69) rotate(-90)"/><rect class="cls-12" x="155.84" y="124.78" width="14.7" height="2.5" transform="translate(37.16 289.22) rotate(-90)"/><rect class="cls-5" x="158.36" y="124.78" width="14.7" height="2.5" transform="translate(39.68 291.74) rotate(-90)"/><rect class="cls-5" x="165.93" y="124.78" width="14.7" height="2.5" transform="translate(47.25 299.31) rotate(-90)"/><rect class="cls-21" x="178.55" y="124.78" width="14.7" height="2.5" transform="translate(311.93 -59.87) rotate(90)"/><rect class="cls-17" x="183.6" y="124.78" width="14.7" height="2.5" transform="translate(316.98 -64.92) rotate(90)"/><rect class="cls-19" x="188.65" y="124.78" width="14.7" height="2.5" transform="translate(322.03 -69.97) rotate(90)"/><rect class="cls-15" x="67.5" y="124.78" width="14.7" height="2.5" transform="translate(-51.18 200.88) rotate(-90)"/><rect class="cls-25" x="77.6" y="124.78" width="14.7" height="2.5" transform="translate(-41.09 210.97) rotate(-90)"/><rect class="cls-8" x="59.93" y="124.78" width="14.7" height="2.5" transform="translate(-58.75 193.31) rotate(-90)"/><rect class="cls-5" x="57.4" y="124.78" width="14.7" height="2.5" transform="translate(-61.28 190.78) rotate(-90)"/><rect class="cls-25" x="90.22" y="124.78" width="14.7" height="2.5" transform="translate(-28.47 223.59) rotate(-90)"/><rect class="cls-23" x="64.98" y="124.78" width="14.7" height="2.5" transform="translate(-53.71 198.36) rotate(-90)"/><rect class="cls-20" x="70.02" y="124.78" width="14.7" height="2.5" transform="translate(-48.66 203.4) rotate(-90)"/><rect class="cls-5" x="44.79" y="124.78" width="14.7" height="2.5" transform="translate(-73.9 178.16) rotate(-90)"/><rect class="cls-5" x="47.31" y="124.78" width="14.7" height="2.5" transform="translate(-71.37 180.69) rotate(-90)"/><rect class="cls-21" x="82.64" y="124.78" width="14.7" height="2.5" transform="translate(-36.04 216.02) rotate(-90)"/><rect class="cls-17" x="72.55" y="124.78" width="14.7" height="2.5" transform="translate(-46.13 205.93) rotate(-90)"/><rect class="cls-25" x="87.69" y="124.78" width="14.7" height="2.5" transform="translate(-30.99 221.07) rotate(-90)"/><rect class="cls-3" x="29.64" y="124.78" width="14.7" height="2.5" transform="translate(-89.04 163.02) rotate(-90)"/><rect class="cls-7" x="22.07" y="124.78" width="14.7" height="2.5" transform="translate(-96.61 155.45) rotate(-90)"/><rect class="cls-6" x="27.12" y="124.78" width="14.7" height="2.5" transform="translate(-91.57 160.5) rotate(-90)"/><rect class="cls-3" x="24.59" y="124.78" width="14.7" height="2.5" transform="translate(-94.09 157.97) rotate(-90)"/><rect class="cls-9" x="32.17" y="124.78" width="14.7" height="2.5" transform="translate(-86.52 165.54) rotate(-90)"/><rect class="cls-13" x="39.74" y="124.78" width="14.7" height="2.5" transform="translate(-78.95 173.12) rotate(-90)"/><rect class="cls-6" x="34.69" y="124.78" width="14.7" height="2.5" transform="translate(-83.99 168.07) rotate(-90)"/><rect class="cls-4" x="37.21" y="124.78" width="14.7" height="2.5" transform="translate(-81.47 170.59) rotate(-90)"/><rect class="cls-8" x="42.26" y="124.78" width="14.7" height="2.5" transform="translate(-76.42 175.64) rotate(-90)"/><rect class="cls-5" x="49.83" y="124.78" width="14.7" height="2.5" transform="translate(-68.85 183.21) rotate(-90)"/><rect class="cls-12" x="52.36" y="124.78" width="14.7" height="2.5" transform="translate(-66.33 185.74) rotate(-90)"/><rect class="cls-5" x="54.88" y="124.78" width="14.7" height="2.5" transform="translate(-63.8 188.26) rotate(-90)"/><rect class="cls-5" x="62.45" y="124.78" width="14.7" height="2.5" transform="translate(-56.23 195.83) rotate(-90)"/><rect class="cls-21" x="75.07" y="124.78" width="14.7" height="2.5" transform="translate(208.45 43.61) rotate(90)"/><rect class="cls-17" x="80.12" y="124.78" width="14.7" height="2.5" transform="translate(213.5 38.56) rotate(90)"/><rect class="cls-19" x="85.17" y="124.78" width="14.7" height="2.5" transform="translate(218.55 33.51) rotate(90)"/><rect class="cls-17" x="112.93" y="124.78" width="14.7" height="2.5" transform="translate(246.31 5.75) rotate(90)"/><rect class="cls-18" x="117.98" y="124.78" width="14.7" height="2.5" transform="translate(251.36 .7) rotate(90)"/><rect class="cls-21" x="110.41" y="124.78" width="14.7" height="2.5" transform="translate(243.79 8.27) rotate(90)"/><rect class="cls-17" x="105.36" y="124.78" width="14.7" height="2.5" transform="translate(238.74 13.32) rotate(90)"/><rect class="cls-15" x="115.46" y="124.78" width="14.7" height="2.5" transform="translate(248.83 3.23) rotate(90)"/><rect class="cls-22" x="123.03" y="124.78" width="14.7" height="2.5" transform="translate(256.41 -4.34) rotate(90)"/><rect class="cls-23" x="120.5" y="124.78" width="14.7" height="2.5" transform="translate(253.88 -1.82) rotate(90)"/><rect class="cls-20" x="95.26" y="124.78" width="14.7" height="2.5" transform="translate(228.64 23.42) rotate(90)"/><rect class="cls-16" x="92.74" y="124.78" width="14.7" height="2.5" transform="translate(226.12 25.94) rotate(90)"/><rect class="cls-19" x="100.31" y="124.78" width="14.7" height="2.5" transform="translate(233.69 18.37) rotate(90)"/><rect class="cls-25" x="102.84" y="124.78" width="14.7" height="2.5" transform="translate(-15.85 236.21) rotate(-90)"/><rect class="cls-21" x="97.79" y="124.78" width="14.7" height="2.5" transform="translate(-20.89 231.17) rotate(-90)"/><rect class="cls-17" x="107.88" y="124.78" width="14.7" height="2.5" transform="translate(-10.8 241.26) rotate(-90)"/></g><g><rect class="cls-9" x="244.18" y="86.12" width="14.7" height="2.5" transform="translate(164.15 338.9) rotate(-90)"/><rect class="cls-13" x="239.13" y="86.12" width="14.7" height="2.5" transform="translate(159.11 333.85) rotate(-90)"/><rect class="cls-17" x="216.41" y="86.12" width="14.7" height="2.5" transform="translate(136.39 311.13) rotate(-90)"/><rect class="cls-13" x="241.65" y="86.12" width="14.7" height="2.5" transform="translate(161.63 336.37) rotate(-90)"/><rect class="cls-18" x="221.46" y="86.12" width="14.7" height="2.5" transform="translate(141.44 316.18) rotate(-90)"/><rect class="cls-21" x="213.89" y="86.12" width="14.7" height="2.5" transform="translate(133.87 308.61) rotate(-90)"/><rect class="cls-17" x="208.84" y="86.12" width="14.7" height="2.5" transform="translate(128.82 303.56) rotate(-90)"/><rect class="cls-15" x="218.94" y="86.12" width="14.7" height="2.5" transform="translate(138.91 313.66) rotate(-90)"/><rect class="cls-22" x="226.51" y="86.12" width="14.7" height="2.5" transform="translate(146.49 321.23) rotate(-90)"/><rect class="cls-23" x="223.99" y="86.12" width="14.7" height="2.5" transform="translate(143.96 318.71) rotate(-90)"/><rect class="cls-20" x="198.75" y="86.12" width="14.7" height="2.5" transform="translate(118.72 293.47) rotate(-90)"/><rect class="cls-22" x="229.03" y="86.12" width="14.7" height="2.5" transform="translate(149.01 323.75) rotate(-90)"/><rect class="cls-16" x="196.22" y="86.12" width="14.7" height="2.5" transform="translate(116.2 290.94) rotate(-90)"/><rect class="cls-19" x="203.79" y="86.12" width="14.7" height="2.5" transform="translate(123.77 298.51) rotate(-90)"/><rect class="cls-11" x="256.8" y="86.12" width="14.7" height="2.5" transform="translate(176.77 351.52) rotate(-90)"/><rect class="cls-6" x="264.37" y="86.12" width="14.7" height="2.5" transform="translate(184.34 359.09) rotate(-90)"/><rect class="cls-6" x="259.32" y="86.12" width="14.7" height="2.5" transform="translate(179.3 354.04) rotate(-90)"/><rect class="cls-10" x="261.85" y="86.12" width="14.7" height="2.5" transform="translate(181.82 356.56) rotate(-90)"/><rect class="cls-4" x="254.27" y="86.12" width="14.7" height="2.5" transform="translate(174.25 348.99) rotate(-90)"/><rect class="cls-14" x="246.7" y="86.12" width="14.7" height="2.5" transform="translate(166.68 341.42) rotate(-90)"/><rect class="cls-12" x="251.75" y="86.12" width="14.7" height="2.5" transform="translate(171.73 346.47) rotate(-90)"/><rect class="cls-13" x="249.23" y="86.12" width="14.7" height="2.5" transform="translate(169.2 343.95) rotate(-90)"/><rect class="cls-13" x="234.08" y="86.12" width="14.7" height="2.5" transform="translate(154.06 328.8) rotate(-90)"/><rect class="cls-13" x="231.56" y="86.12" width="14.7" height="2.5" transform="translate(151.53 326.28) rotate(-90)"/><rect class="cls-5" x="236.61" y="86.12" width="14.7" height="2.5" transform="translate(156.58 331.33) rotate(-90)"/><rect class="cls-25" x="206.32" y="86.12" width="14.7" height="2.5" transform="translate(301.04 -126.29) rotate(90)"/><rect class="cls-21" x="201.27" y="86.12" width="14.7" height="2.5" transform="translate(295.99 -121.25) rotate(90)"/><rect class="cls-17" x="211.37" y="86.12" width="14.7" height="2.5" transform="translate(306.09 -131.34) rotate(90)"/><rect class="cls-18" x="148.27" y="86.12" width="14.7" height="2.5" transform="translate(242.99 -68.24) rotate(90)"/><rect class="cls-18" x="143.22" y="86.12" width="14.7" height="2.5" transform="translate(237.94 -63.2) rotate(90)"/><rect class="cls-21" x="150.79" y="86.12" width="14.7" height="2.5" transform="translate(245.51 -70.77) rotate(90)"/><rect class="cls-16" x="145.74" y="86.12" width="14.7" height="2.5" transform="translate(240.46 -65.72) rotate(90)"/><rect class="cls-11" x="170.98" y="86.12" width="14.7" height="2.5" transform="translate(265.7 -90.96) rotate(90)"/><rect class="cls-12" x="168.46" y="86.12" width="14.7" height="2.5" transform="translate(263.18 -88.43) rotate(90)"/><rect class="cls-16" x="128.08" y="86.12" width="14.7" height="2.5" transform="translate(222.8 -48.05) rotate(90)"/><rect class="cls-19" x="125.55" y="86.12" width="14.7" height="2.5" transform="translate(220.27 -45.53) rotate(90)"/><rect class="cls-8" x="155.84" y="86.12" width="14.7" height="2.5" transform="translate(250.56 -75.81) rotate(90)"/><rect class="cls-18" x="138.17" y="86.12" width="14.7" height="2.5" transform="translate(232.89 -58.15) rotate(90)"/><rect class="cls-15" x="133.12" y="86.12" width="14.7" height="2.5" transform="translate(227.84 -53.1) rotate(90)"/><rect class="cls-23" x="153.32" y="86.12" width="14.7" height="2.5" transform="translate(248.03 -73.29) rotate(90)"/><rect class="cls-20" x="158.36" y="86.12" width="14.7" height="2.5" transform="translate(253.08 -78.34) rotate(90)"/><rect class="cls-9" x="186.13" y="86.12" width="14.7" height="2.5" transform="translate(280.85 -106.1) rotate(90)"/><rect class="cls-10" x="193.7" y="86.12" width="14.7" height="2.5" transform="translate(288.42 -113.67) rotate(90)"/><rect class="cls-11" x="188.65" y="86.12" width="14.7" height="2.5" transform="translate(283.37 -108.63) rotate(90)"/><rect class="cls-9" x="191.17" y="86.12" width="14.7" height="2.5" transform="translate(285.89 -111.15) rotate(90)"/><rect class="cls-4" x="183.6" y="86.12" width="14.7" height="2.5" transform="translate(278.32 -103.58) rotate(90)"/><rect class="cls-11" x="176.03" y="86.12" width="14.7" height="2.5" transform="translate(270.75 -96.01) rotate(90)"/><rect class="cls-10" x="181.08" y="86.12" width="14.7" height="2.5" transform="translate(275.8 -101.05) rotate(90)"/><rect class="cls-14" x="178.55" y="86.12" width="14.7" height="2.5" transform="translate(273.27 -98.53) rotate(90)"/><rect class="cls-5" x="173.51" y="86.12" width="14.7" height="2.5" transform="translate(268.23 -93.48) rotate(90)"/><rect class="cls-11" x="160.89" y="86.12" width="14.7" height="2.5" transform="translate(255.61 -80.86) rotate(90)"/><rect class="cls-12" x="163.41" y="86.12" width="14.7" height="2.5" transform="translate(258.13 -83.39) rotate(90)"/><rect class="cls-8" x="165.93" y="86.12" width="14.7" height="2.5" transform="translate(260.65 -85.91) rotate(90)"/><rect class="cls-16" x="130.6" y="86.12" width="14.7" height="2.5" transform="translate(50.58 225.32) rotate(-90)"/><rect class="cls-19" x="140.7" y="86.12" width="14.7" height="2.5" transform="translate(60.67 235.42) rotate(-90)"/><rect class="cls-20" x="135.65" y="86.12" width="14.7" height="2.5" transform="translate(55.62 230.37) rotate(-90)"/><rect class="cls-18" x="44.79" y="86.12" width="14.7" height="2.5" transform="translate(139.5 35.24) rotate(90)"/><rect class="cls-18" x="39.74" y="86.12" width="14.7" height="2.5" transform="translate(134.46 40.29) rotate(90)"/><rect class="cls-21" x="47.31" y="86.12" width="14.7" height="2.5" transform="translate(142.03 32.72) rotate(90)"/><rect class="cls-16" x="42.26" y="86.12" width="14.7" height="2.5" transform="translate(136.98 37.76) rotate(90)"/><rect class="cls-11" x="67.5" y="86.12" width="14.7" height="2.5" transform="translate(162.22 12.52) rotate(90)"/><rect class="cls-12" x="64.98" y="86.12" width="14.7" height="2.5" transform="translate(159.7 15.05) rotate(90)"/><rect class="cls-16" x="24.59" y="86.12" width="14.7" height="2.5" transform="translate(119.31 55.43) rotate(90)"/><rect class="cls-19" x="22.07" y="86.12" width="14.7" height="2.5" transform="translate(116.79 57.95) rotate(90)"/><rect class="cls-8" x="52.36" y="86.12" width="14.7" height="2.5" transform="translate(147.08 27.67) rotate(90)"/><rect class="cls-18" x="34.69" y="86.12" width="14.7" height="2.5" transform="translate(129.41 45.33) rotate(90)"/><rect class="cls-15" x="29.64" y="86.12" width="14.7" height="2.5" transform="translate(124.36 50.38) rotate(90)"/><rect class="cls-23" x="49.83" y="86.12" width="14.7" height="2.5" transform="translate(144.55 30.19) rotate(90)"/><rect class="cls-20" x="54.88" y="86.12" width="14.7" height="2.5" transform="translate(149.6 25.14) rotate(90)"/><rect class="cls-9" x="82.64" y="86.12" width="14.7" height="2.5" transform="translate(177.36 -2.62) rotate(90)"/><rect class="cls-10" x="90.22" y="86.12" width="14.7" height="2.5" transform="translate(184.94 -10.19) rotate(90)"/><rect class="cls-11" x="85.17" y="86.12" width="14.7" height="2.5" transform="translate(179.89 -5.14) rotate(90)"/><rect class="cls-9" x="87.69" y="86.12" width="14.7" height="2.5" transform="translate(182.41 -7.67) rotate(90)"/><rect class="cls-4" x="80.12" y="86.12" width="14.7" height="2.5" transform="translate(174.84 -.1) rotate(90)"/><rect class="cls-11" x="72.55" y="86.12" width="14.7" height="2.5" transform="translate(167.27 7.48) rotate(90)"/><rect class="cls-10" x="77.6" y="86.12" width="14.7" height="2.5" transform="translate(172.32 2.43) rotate(90)"/><rect class="cls-14" x="75.07" y="86.12" width="14.7" height="2.5" transform="translate(169.79 4.95) rotate(90)"/><rect class="cls-5" x="70.02" y="86.12" width="14.7" height="2.5" transform="translate(164.74 10) rotate(90)"/><rect class="cls-11" x="57.4" y="86.12" width="14.7" height="2.5" transform="translate(152.12 22.62) rotate(90)"/><rect class="cls-12" x="59.93" y="86.12" width="14.7" height="2.5" transform="translate(154.65 20.1) rotate(90)"/><rect class="cls-8" x="62.45" y="86.12" width="14.7" height="2.5" transform="translate(157.17 17.57) rotate(90)"/><rect class="cls-16" x="27.12" y="86.12" width="14.7" height="2.5" transform="translate(-52.91 121.84) rotate(-90)"/><rect class="cls-19" x="37.21" y="86.12" width="14.7" height="2.5" transform="translate(-42.81 131.93) rotate(-90)"/><rect class="cls-20" x="32.17" y="86.12" width="14.7" height="2.5" transform="translate(-47.86 126.89) rotate(-90)"/><rect class="cls-16" x="115.46" y="86.12" width="14.7" height="2.5" transform="translate(35.43 210.18) rotate(-90)"/><rect class="cls-19" x="105.36" y="86.12" width="14.7" height="2.5" transform="translate(25.34 200.08) rotate(-90)"/><rect class="cls-20" x="110.41" y="86.12" width="14.7" height="2.5" transform="translate(30.38 205.13) rotate(-90)"/><rect class="cls-15" x="102.84" y="86.12" width="14.7" height="2.5" transform="translate(22.81 197.56) rotate(-90)"/><rect class="cls-19" x="120.5" y="86.12" width="14.7" height="2.5" transform="translate(40.48 215.22) rotate(-90)"/><rect class="cls-25" x="123.03" y="86.12" width="14.7" height="2.5" transform="translate(43 217.75) rotate(-90)"/><rect class="cls-18" x="107.88" y="86.12" width="14.7" height="2.5" transform="translate(202.6 -27.86) rotate(90)"/><rect class="cls-18" x="112.93" y="86.12" width="14.7" height="2.5" transform="translate(207.65 -32.91) rotate(90)"/><rect class="cls-15" x="117.98" y="86.12" width="14.7" height="2.5" transform="translate(212.7 -37.96) rotate(90)"/><rect class="cls-20" x="95.26" y="86.12" width="14.7" height="2.5" transform="translate(189.98 -15.24) rotate(90)"/><rect class="cls-16" x="92.74" y="86.12" width="14.7" height="2.5" transform="translate(187.46 -12.72) rotate(90)"/><rect class="cls-19" x="100.31" y="86.12" width="14.7" height="2.5" transform="translate(195.03 -20.29) rotate(90)"/><rect class="cls-21" x="97.79" y="86.12" width="14.7" height="2.5" transform="translate(17.76 192.51) rotate(-90)"/></g><g><rect class="cls-21" x="223.99" y="163.44" width="14.7" height="2.5" transform="translate(66.64 396.02) rotate(-90)"/><rect class="cls-17" x="218.94" y="163.44" width="14.7" height="2.5" transform="translate(61.6 390.97) rotate(-90)"/><rect class="cls-22" x="221.46" y="163.44" width="14.7" height="2.5" transform="translate(64.12 393.5) rotate(-90)"/><rect class="cls-16" x="203.79" y="163.44" width="14.7" height="2.5" transform="translate(46.45 375.83) rotate(-90)"/><rect class="cls-19" x="213.89" y="163.44" width="14.7" height="2.5" transform="translate(56.55 385.93) rotate(-90)"/><rect class="cls-20" x="208.84" y="163.44" width="14.7" height="2.5" transform="translate(51.5 380.88) rotate(-90)"/><rect class="cls-14" x="244.18" y="163.44" width="14.7" height="2.5" transform="translate(86.84 416.21) rotate(-90)"/><rect class="cls-12" x="239.13" y="163.44" width="14.7" height="2.5" transform="translate(81.79 411.17) rotate(-90)"/><rect class="cls-15" x="216.41" y="163.44" width="14.7" height="2.5" transform="translate(59.07 388.45) rotate(-90)"/><rect class="cls-22" x="226.51" y="163.44" width="14.7" height="2.5" transform="translate(69.17 398.55) rotate(-90)"/><rect class="cls-19" x="198.75" y="163.44" width="14.7" height="2.5" transform="translate(41.41 370.78) rotate(-90)"/><rect class="cls-8" x="229.03" y="163.44" width="14.7" height="2.5" transform="translate(71.69 401.07) rotate(-90)"/><rect class="cls-25" x="196.22" y="163.44" width="14.7" height="2.5" transform="translate(38.88 368.26) rotate(-90)"/><rect class="cls-12" x="241.65" y="163.44" width="14.7" height="2.5" transform="translate(84.31 413.69) rotate(-90)"/><rect class="cls-4" x="256.8" y="163.44" width="14.7" height="2.5" transform="translate(99.46 428.83) rotate(-90)"/><rect class="cls-3" x="264.37" y="163.44" width="14.7" height="2.5" transform="translate(107.03 436.41) rotate(-90)"/><rect class="cls-7" x="259.32" y="163.44" width="14.7" height="2.5" transform="translate(101.98 431.36) rotate(-90)"/><rect class="cls-10" x="261.85" y="163.44" width="14.7" height="2.5" transform="translate(104.5 433.88) rotate(-90)"/><rect class="cls-7" x="254.27" y="163.44" width="14.7" height="2.5" transform="translate(96.93 426.31) rotate(-90)"/><rect class="cls-7" x="246.7" y="163.44" width="14.7" height="2.5" transform="translate(89.36 418.74) rotate(-90)"/><rect class="cls-14" x="251.75" y="163.44" width="14.7" height="2.5" transform="translate(94.41 423.79) rotate(-90)"/><rect class="cls-3" x="249.23" y="163.44" width="14.7" height="2.5" transform="translate(91.88 421.26) rotate(-90)"/><rect class="cls-12" x="234.08" y="163.44" width="14.7" height="2.5" transform="translate(76.74 406.12) rotate(-90)"/><rect class="cls-8" x="236.61" y="163.44" width="14.7" height="2.5" transform="translate(79.26 408.64) rotate(-90)"/><rect class="cls-22" x="231.56" y="163.44" width="14.7" height="2.5" transform="translate(74.22 403.59) rotate(-90)"/><rect class="cls-18" x="211.37" y="163.44" width="14.7" height="2.5" transform="translate(383.4 -54.02) rotate(90)"/><rect class="cls-18" x="206.32" y="163.44" width="14.7" height="2.5" transform="translate(378.35 -48.98) rotate(90)"/><rect class="cls-15" x="201.27" y="163.44" width="14.7" height="2.5" transform="translate(373.31 -43.93) rotate(90)"/><rect class="cls-21" x="165.93" y="163.44" width="14.7" height="2.5" transform="translate(8.59 337.97) rotate(-90)"/><rect class="cls-17" x="170.98" y="163.44" width="14.7" height="2.5" transform="translate(13.64 343.02) rotate(-90)"/><rect class="cls-22" x="168.46" y="163.44" width="14.7" height="2.5" transform="translate(11.12 340.5) rotate(-90)"/><rect class="cls-16" x="186.13" y="163.44" width="14.7" height="2.5" transform="translate(28.79 358.16) rotate(-90)"/><rect class="cls-19" x="176.03" y="163.44" width="14.7" height="2.5" transform="translate(18.69 348.07) rotate(-90)"/><rect class="cls-20" x="181.08" y="163.44" width="14.7" height="2.5" transform="translate(23.74 353.12) rotate(-90)"/><rect class="cls-14" x="145.74" y="163.44" width="14.7" height="2.5" transform="translate(-11.6 317.78) rotate(-90)"/><rect class="cls-12" x="150.79" y="163.44" width="14.7" height="2.5" transform="translate(-6.55 322.83) rotate(-90)"/><rect class="cls-15" x="173.51" y="163.44" width="14.7" height="2.5" transform="translate(16.17 345.54) rotate(-90)"/><rect class="cls-22" x="163.41" y="163.44" width="14.7" height="2.5" transform="translate(6.07 335.45) rotate(-90)"/><rect class="cls-19" x="191.17" y="163.44" width="14.7" height="2.5" transform="translate(33.83 363.21) rotate(-90)"/><rect class="cls-8" x="160.89" y="163.44" width="14.7" height="2.5" transform="translate(3.55 332.92) rotate(-90)"/><rect class="cls-25" x="193.7" y="163.44" width="14.7" height="2.5" transform="translate(36.36 365.74) rotate(-90)"/><rect class="cls-12" x="148.27" y="163.44" width="14.7" height="2.5" transform="translate(-9.07 320.3) rotate(-90)"/><rect class="cls-4" x="133.12" y="163.44" width="14.7" height="2.5" transform="translate(-24.22 305.16) rotate(-90)"/><rect class="cls-3" x="125.55" y="163.44" width="14.7" height="2.5" transform="translate(-31.79 297.59) rotate(-90)"/><rect class="cls-7" x="130.6" y="163.44" width="14.7" height="2.5" transform="translate(-26.74 302.64) rotate(-90)"/><rect class="cls-10" x="128.08" y="163.44" width="14.7" height="2.5" transform="translate(-29.27 300.11) rotate(-90)"/><rect class="cls-7" x="135.65" y="163.44" width="14.7" height="2.5" transform="translate(-21.69 307.68) rotate(-90)"/><rect class="cls-7" x="143.22" y="163.44" width="14.7" height="2.5" transform="translate(-14.12 315.26) rotate(-90)"/><rect class="cls-14" x="138.17" y="163.44" width="14.7" height="2.5" transform="translate(-19.17 310.21) rotate(-90)"/><rect class="cls-3" x="140.7" y="163.44" width="14.7" height="2.5" transform="translate(-16.65 312.73) rotate(-90)"/><rect class="cls-12" x="155.84" y="163.44" width="14.7" height="2.5" transform="translate(-1.5 327.88) rotate(-90)"/><rect class="cls-8" x="153.32" y="163.44" width="14.7" height="2.5" transform="translate(-4.03 325.35) rotate(-90)"/><rect class="cls-22" x="158.36" y="163.44" width="14.7" height="2.5" transform="translate(1.02 330.4) rotate(-90)"/><rect class="cls-18" x="178.55" y="163.44" width="14.7" height="2.5" transform="translate(350.59 -21.21) rotate(90)"/><rect class="cls-18" x="183.6" y="163.44" width="14.7" height="2.5" transform="translate(355.64 -26.26) rotate(90)"/><rect class="cls-15" x="188.65" y="163.44" width="14.7" height="2.5" transform="translate(360.69 -31.31) rotate(90)"/><rect class="cls-21" x="62.45" y="163.44" width="14.7" height="2.5" transform="translate(-94.89 234.49) rotate(-90)"/><rect class="cls-17" x="67.5" y="163.44" width="14.7" height="2.5" transform="translate(-89.84 239.54) rotate(-90)"/><rect class="cls-22" x="64.98" y="163.44" width="14.7" height="2.5" transform="translate(-92.36 237.01) rotate(-90)"/><rect class="cls-16" x="82.64" y="163.44" width="14.7" height="2.5" transform="translate(-74.7 254.68) rotate(-90)"/><rect class="cls-19" x="72.55" y="163.44" width="14.7" height="2.5" transform="translate(-84.79 244.59) rotate(-90)"/><rect class="cls-20" x="77.6" y="163.44" width="14.7" height="2.5" transform="translate(-79.74 249.63) rotate(-90)"/><rect class="cls-14" x="42.26" y="163.44" width="14.7" height="2.5" transform="translate(-115.08 214.3) rotate(-90)"/><rect class="cls-12" x="47.31" y="163.44" width="14.7" height="2.5" transform="translate(-110.03 219.35) rotate(-90)"/><rect class="cls-15" x="70.02" y="163.44" width="14.7" height="2.5" transform="translate(-87.32 242.06) rotate(-90)"/><rect class="cls-22" x="59.93" y="163.44" width="14.7" height="2.5" transform="translate(-97.41 231.97) rotate(-90)"/><rect class="cls-19" x="87.69" y="163.44" width="14.7" height="2.5" transform="translate(-69.65 259.73) rotate(-90)"/><rect class="cls-8" x="57.4" y="163.44" width="14.7" height="2.5" transform="translate(-99.94 229.44) rotate(-90)"/><rect class="cls-25" x="90.22" y="163.44" width="14.7" height="2.5" transform="translate(-67.12 262.25) rotate(-90)"/><rect class="cls-12" x="44.79" y="163.44" width="14.7" height="2.5" transform="translate(-112.56 216.82) rotate(-90)"/><rect class="cls-4" x="29.64" y="163.44" width="14.7" height="2.5" transform="translate(-127.7 201.68) rotate(-90)"/><rect class="cls-3" x="22.07" y="163.44" width="14.7" height="2.5" transform="translate(-135.27 194.11) rotate(-90)"/><rect class="cls-7" x="27.12" y="163.44" width="14.7" height="2.5" transform="translate(-130.22 199.15) rotate(-90)"/><rect class="cls-10" x="24.59" y="163.44" width="14.7" height="2.5" transform="translate(-132.75 196.63) rotate(-90)"/><rect class="cls-7" x="32.17" y="163.44" width="14.7" height="2.5" transform="translate(-125.18 204.2) rotate(-90)"/><rect class="cls-7" x="39.74" y="163.44" width="14.7" height="2.5" transform="translate(-117.6 211.77) rotate(-90)"/><rect class="cls-14" x="34.69" y="163.44" width="14.7" height="2.5" transform="translate(-122.65 206.73) rotate(-90)"/><rect class="cls-3" x="37.21" y="163.44" width="14.7" height="2.5" transform="translate(-120.13 209.25) rotate(-90)"/><rect class="cls-12" x="52.36" y="163.44" width="14.7" height="2.5" transform="translate(-104.98 224.39) rotate(-90)"/><rect class="cls-8" x="49.83" y="163.44" width="14.7" height="2.5" transform="translate(-107.51 221.87) rotate(-90)"/><rect class="cls-22" x="54.88" y="163.44" width="14.7" height="2.5" transform="translate(-102.46 226.92) rotate(-90)"/><rect class="cls-18" x="75.07" y="163.44" width="14.7" height="2.5" transform="translate(247.11 82.27) rotate(90)"/><rect class="cls-18" x="80.12" y="163.44" width="14.7" height="2.5" transform="translate(252.16 77.22) rotate(90)"/><rect class="cls-15" x="85.17" y="163.44" width="14.7" height="2.5" transform="translate(257.21 72.17) rotate(90)"/><rect class="cls-17" x="115.46" y="163.44" width="14.7" height="2.5" transform="translate(287.49 41.89) rotate(90)"/><rect class="cls-18" x="120.5" y="163.44" width="14.7" height="2.5" transform="translate(292.54 36.84) rotate(90)"/><rect class="cls-21" x="112.93" y="163.44" width="14.7" height="2.5" transform="translate(284.97 44.41) rotate(90)"/><rect class="cls-17" x="107.88" y="163.44" width="14.7" height="2.5" transform="translate(279.92 49.46) rotate(90)"/><rect class="cls-15" x="117.98" y="163.44" width="14.7" height="2.5" transform="translate(290.02 39.36) rotate(90)"/><rect class="cls-23" x="123.03" y="163.44" width="14.7" height="2.5" transform="translate(295.06 34.31) rotate(90)"/><rect class="cls-25" x="105.36" y="163.44" width="14.7" height="2.5" transform="translate(-51.98 277.4) rotate(-90)"/><rect class="cls-17" x="110.41" y="163.44" width="14.7" height="2.5" transform="translate(-46.93 282.44) rotate(-90)"/><rect class="cls-18" x="97.79" y="163.44" width="14.7" height="2.5" transform="translate(269.82 59.55) rotate(90)"/><rect class="cls-18" x="92.74" y="163.44" width="14.7" height="2.5" transform="translate(264.78 64.6) rotate(90)"/><rect class="cls-21" x="100.31" y="163.44" width="14.7" height="2.5" transform="translate(272.35 57.03) rotate(90)"/><rect class="cls-16" x="95.26" y="163.44" width="14.7" height="2.5" transform="translate(267.3 62.08) rotate(90)"/><rect class="cls-23" x="102.84" y="163.44" width="14.7" height="2.5" transform="translate(274.87 54.51) rotate(90)"/></g><g><rect class="cls-18" x="67.5" y="47.46" width="14.7" height="2.5" transform="translate(26.13 123.56) rotate(-90)"/><rect class="cls-18" x="72.55" y="47.46" width="14.7" height="2.5" transform="translate(31.18 128.61) rotate(-90)"/><rect class="cls-21" x="64.98" y="47.46" width="14.7" height="2.5" transform="translate(23.61 121.04) rotate(-90)"/><rect class="cls-16" x="70.02" y="47.46" width="14.7" height="2.5" transform="translate(28.66 126.09) rotate(-90)"/><rect class="cls-11" x="44.79" y="47.46" width="14.7" height="2.5" transform="translate(3.42 100.85) rotate(-90)"/><rect class="cls-12" x="47.31" y="47.46" width="14.7" height="2.5" transform="translate(5.94 103.37) rotate(-90)"/><rect class="cls-16" x="87.69" y="47.46" width="14.7" height="2.5" transform="translate(46.33 143.75) rotate(-90)"/><rect class="cls-19" x="90.22" y="47.46" width="14.7" height="2.5" transform="translate(48.85 146.28) rotate(-90)"/><rect class="cls-8" x="59.93" y="47.46" width="14.7" height="2.5" transform="translate(18.56 115.99) rotate(-90)"/><rect class="cls-18" x="77.6" y="47.46" width="14.7" height="2.5" transform="translate(36.23 133.66) rotate(-90)"/><rect class="cls-15" x="82.64" y="47.46" width="14.7" height="2.5" transform="translate(41.28 138.71) rotate(-90)"/><rect class="cls-23" x="62.45" y="47.46" width="14.7" height="2.5" transform="translate(21.09 118.51) rotate(-90)"/><rect class="cls-20" x="57.4" y="47.46" width="14.7" height="2.5" transform="translate(16.04 113.47) rotate(-90)"/><rect class="cls-9" x="29.64" y="47.46" width="14.7" height="2.5" transform="translate(-11.72 85.7) rotate(-90)"/><rect class="cls-10" x="22.07" y="47.46" width="14.7" height="2.5" transform="translate(-19.3 78.13) rotate(-90)"/><rect class="cls-11" x="27.12" y="47.46" width="14.7" height="2.5" transform="translate(-14.25 83.18) rotate(-90)"/><rect class="cls-9" x="24.59" y="47.46" width="14.7" height="2.5" transform="translate(-16.77 80.65) rotate(-90)"/><rect class="cls-4" x="32.17" y="47.46" width="14.7" height="2.5" transform="translate(-9.2 88.23) rotate(-90)"/><rect class="cls-11" x="39.74" y="47.46" width="14.7" height="2.5" transform="translate(-1.63 95.8) rotate(-90)"/><rect class="cls-10" x="34.69" y="47.46" width="14.7" height="2.5" transform="translate(-6.68 90.75) rotate(-90)"/><rect class="cls-14" x="37.21" y="47.46" width="14.7" height="2.5" transform="translate(-4.15 93.27) rotate(-90)"/><rect class="cls-5" x="42.26" y="47.46" width="14.7" height="2.5" transform="translate(.9 98.32) rotate(-90)"/><rect class="cls-11" x="54.88" y="47.46" width="14.7" height="2.5" transform="translate(13.52 110.94) rotate(-90)"/><rect class="cls-12" x="52.36" y="47.46" width="14.7" height="2.5" transform="translate(10.99 108.42) rotate(-90)"/><rect class="cls-8" x="49.83" y="47.46" width="14.7" height="2.5" transform="translate(8.47 105.89) rotate(-90)"/><rect class="cls-16" x="85.17" y="47.46" width="14.7" height="2.5" transform="translate(141.23 -43.8) rotate(90)"/><rect class="cls-19" x="75.07" y="47.46" width="14.7" height="2.5" transform="translate(131.13 -33.71) rotate(90)"/><rect class="cls-20" x="80.12" y="47.46" width="14.7" height="2.5" transform="translate(136.18 -38.75) rotate(90)"/><rect class="cls-9" x="112.93" y="47.46" width="14.7" height="2.5" transform="translate(168.99 -71.57) rotate(90)"/><rect class="cls-13" x="117.98" y="47.46" width="14.7" height="2.5" transform="translate(174.04 -76.61) rotate(90)"/><rect class="cls-17" x="140.7" y="47.46" width="14.7" height="2.5" transform="translate(196.76 -99.33) rotate(90)"/><rect class="cls-13" x="115.46" y="47.46" width="14.7" height="2.5" transform="translate(171.52 -74.09) rotate(90)"/><rect class="cls-18" x="135.65" y="47.46" width="14.7" height="2.5" transform="translate(191.71 -94.28) rotate(90)"/><rect class="cls-21" x="143.22" y="47.46" width="14.7" height="2.5" transform="translate(199.28 -101.85) rotate(90)"/><rect class="cls-17" x="148.27" y="47.46" width="14.7" height="2.5" transform="translate(204.33 -106.9) rotate(90)"/><rect class="cls-15" x="138.17" y="47.46" width="14.7" height="2.5" transform="translate(194.23 -96.81) rotate(90)"/><rect class="cls-22" x="130.6" y="47.46" width="14.7" height="2.5" transform="translate(186.66 -89.23) rotate(90)"/><rect class="cls-23" x="133.12" y="47.46" width="14.7" height="2.5" transform="translate(189.18 -91.76) rotate(90)"/><rect class="cls-20" x="158.36" y="47.46" width="14.7" height="2.5" transform="translate(214.42 -117) rotate(90)"/><rect class="cls-22" x="128.08" y="47.46" width="14.7" height="2.5" transform="translate(184.14 -86.71) rotate(90)"/><rect class="cls-16" x="160.89" y="47.46" width="14.7" height="2.5" transform="translate(216.95 -119.52) rotate(90)"/><rect class="cls-19" x="153.32" y="47.46" width="14.7" height="2.5" transform="translate(209.38 -111.95) rotate(90)"/><rect class="cls-11" x="100.31" y="47.46" width="14.7" height="2.5" transform="translate(156.37 -58.95) rotate(90)"/><rect class="cls-6" x="92.74" y="47.46" width="14.7" height="2.5" transform="translate(148.8 -51.37) rotate(90)"/><rect class="cls-6" x="97.79" y="47.46" width="14.7" height="2.5" transform="translate(153.85 -56.42) rotate(90)"/><rect class="cls-10" x="95.26" y="47.46" width="14.7" height="2.5" transform="translate(151.33 -53.9) rotate(90)"/><rect class="cls-4" x="102.84" y="47.46" width="14.7" height="2.5" transform="translate(158.9 -61.47) rotate(90)"/><rect class="cls-14" x="110.41" y="47.46" width="14.7" height="2.5" transform="translate(166.47 -69.04) rotate(90)"/><rect class="cls-12" x="105.36" y="47.46" width="14.7" height="2.5" transform="translate(161.42 -63.99) rotate(90)"/><rect class="cls-13" x="107.88" y="47.46" width="14.7" height="2.5" transform="translate(163.95 -66.52) rotate(90)"/><rect class="cls-13" x="123.03" y="47.46" width="14.7" height="2.5" transform="translate(179.09 -81.66) rotate(90)"/><rect class="cls-13" x="125.55" y="47.46" width="14.7" height="2.5" transform="translate(181.61 -84.19) rotate(90)"/><rect class="cls-5" x="120.5" y="47.46" width="14.7" height="2.5" transform="translate(176.57 -79.14) rotate(90)"/><rect class="cls-25" x="150.79" y="47.46" width="14.7" height="2.5" transform="translate(109.43 206.85) rotate(-90)"/><rect class="cls-21" x="155.84" y="47.46" width="14.7" height="2.5" transform="translate(114.47 211.9) rotate(-90)"/><rect class="cls-17" x="145.74" y="47.46" width="14.7" height="2.5" transform="translate(104.38 201.8) rotate(-90)"/><rect class="cls-9" x="216.41" y="47.46" width="14.7" height="2.5" transform="translate(272.48 -175.05) rotate(90)"/><rect class="cls-13" x="221.46" y="47.46" width="14.7" height="2.5" transform="translate(277.52 -180.1) rotate(90)"/><rect class="cls-17" x="244.18" y="47.46" width="14.7" height="2.5" transform="translate(300.24 -202.81) rotate(90)"/><rect class="cls-13" x="218.94" y="47.46" width="14.7" height="2.5" transform="translate(275 -177.57) rotate(90)"/><rect class="cls-18" x="239.13" y="47.46" width="14.7" height="2.5" transform="translate(295.19 -197.76) rotate(90)"/><rect class="cls-21" x="246.7" y="47.46" width="14.7" height="2.5" transform="translate(302.76 -205.34) rotate(90)"/><rect class="cls-17" x="251.75" y="47.46" width="14.7" height="2.5" transform="translate(307.81 -210.38) rotate(90)"/><rect class="cls-15" x="241.65" y="47.46" width="14.7" height="2.5" transform="translate(297.71 -200.29) rotate(90)"/><rect class="cls-22" x="234.08" y="47.46" width="14.7" height="2.5" transform="translate(290.14 -192.72) rotate(90)"/><rect class="cls-23" x="236.61" y="47.46" width="14.7" height="2.5" transform="translate(292.67 -195.24) rotate(90)"/><rect class="cls-20" x="261.85" y="47.46" width="14.7" height="2.5" transform="translate(317.91 -220.48) rotate(90)"/><rect class="cls-22" x="231.56" y="47.46" width="14.7" height="2.5" transform="translate(287.62 -190.19) rotate(90)"/><rect class="cls-16" x="264.37" y="47.46" width="14.7" height="2.5" transform="translate(320.43 -223) rotate(90)"/><rect class="cls-19" x="256.8" y="47.46" width="14.7" height="2.5" transform="translate(312.86 -215.43) rotate(90)"/><rect class="cls-11" x="203.79" y="47.46" width="14.7" height="2.5" transform="translate(259.86 -162.43) rotate(90)"/><rect class="cls-6" x="196.22" y="47.46" width="14.7" height="2.5" transform="translate(252.28 -154.86) rotate(90)"/><rect class="cls-6" x="201.27" y="47.46" width="14.7" height="2.5" transform="translate(257.33 -159.9) rotate(90)"/><rect class="cls-10" x="198.75" y="47.46" width="14.7" height="2.5" transform="translate(254.81 -157.38) rotate(90)"/><rect class="cls-4" x="206.32" y="47.46" width="14.7" height="2.5" transform="translate(262.38 -164.95) rotate(90)"/><rect class="cls-14" x="213.89" y="47.46" width="14.7" height="2.5" transform="translate(269.95 -172.52) rotate(90)"/><rect class="cls-12" x="208.84" y="47.46" width="14.7" height="2.5" transform="translate(264.9 -167.48) rotate(90)"/><rect class="cls-13" x="211.37" y="47.46" width="14.7" height="2.5" transform="translate(267.43 -170) rotate(90)"/><rect class="cls-13" x="226.51" y="47.46" width="14.7" height="2.5" transform="translate(282.57 -185.14) rotate(90)"/><rect class="cls-13" x="229.03" y="47.46" width="14.7" height="2.5" transform="translate(285.1 -187.67) rotate(90)"/><rect class="cls-5" x="223.99" y="47.46" width="14.7" height="2.5" transform="translate(280.05 -182.62) rotate(90)"/><rect class="cls-25" x="254.27" y="47.46" width="14.7" height="2.5" transform="translate(212.91 310.33) rotate(-90)"/><rect class="cls-21" x="259.32" y="47.46" width="14.7" height="2.5" transform="translate(217.96 315.38) rotate(-90)"/><rect class="cls-17" x="249.23" y="47.46" width="14.7" height="2.5" transform="translate(207.86 305.29) rotate(-90)"/><rect class="cls-17" x="170.98" y="47.46" width="14.7" height="2.5" transform="translate(227.04 -129.62) rotate(90)"/><rect class="cls-18" x="165.93" y="47.46" width="14.7" height="2.5" transform="translate(222 -124.57) rotate(90)"/><rect class="cls-21" x="173.51" y="47.46" width="14.7" height="2.5" transform="translate(229.57 -132.14) rotate(90)"/><rect class="cls-17" x="178.55" y="47.46" width="14.7" height="2.5" transform="translate(234.62 -137.19) rotate(90)"/><rect class="cls-15" x="168.46" y="47.46" width="14.7" height="2.5" transform="translate(224.52 -127.09) rotate(90)"/><rect class="cls-23" x="163.41" y="47.46" width="14.7" height="2.5" transform="translate(219.47 -122.05) rotate(90)"/><rect class="cls-25" x="181.08" y="47.46" width="14.7" height="2.5" transform="translate(139.71 237.14) rotate(-90)"/><rect class="cls-17" x="176.03" y="47.46" width="14.7" height="2.5" transform="translate(134.66 232.09) rotate(-90)"/><rect class="cls-18" x="188.65" y="47.46" width="14.7" height="2.5" transform="translate(244.71 -147.28) rotate(90)"/><rect class="cls-18" x="193.7" y="47.46" width="14.7" height="2.5" transform="translate(249.76 -152.33) rotate(90)"/><rect class="cls-21" x="186.13" y="47.46" width="14.7" height="2.5" transform="translate(242.19 -144.76) rotate(90)"/><rect class="cls-16" x="191.17" y="47.46" width="14.7" height="2.5" transform="translate(247.24 -149.81) rotate(90)"/><rect class="cls-23" x="183.6" y="47.46" width="14.7" height="2.5" transform="translate(239.66 -142.24) rotate(90)"/></g><g><rect class="cls-15" x="67.5" y="105.45" width="14.7" height="2.5" transform="translate(-31.85 181.55) rotate(-90)"/><rect class="cls-25" x="77.6" y="105.45" width="14.7" height="2.5" transform="translate(-21.76 191.65) rotate(-90)"/><rect class="cls-8" x="59.93" y="105.45" width="14.7" height="2.5" transform="translate(-39.42 173.98) rotate(-90)"/><rect class="cls-5" x="57.4" y="105.45" width="14.7" height="2.5" transform="translate(-41.95 171.45) rotate(-90)"/><rect class="cls-25" x="90.22" y="105.45" width="14.7" height="2.5" transform="translate(-9.14 204.27) rotate(-90)"/><rect class="cls-23" x="64.98" y="105.45" width="14.7" height="2.5" transform="translate(-34.38 179.03) rotate(-90)"/><rect class="cls-20" x="70.02" y="105.45" width="14.7" height="2.5" transform="translate(-29.33 184.07) rotate(-90)"/><rect class="cls-5" x="44.79" y="105.45" width="14.7" height="2.5" transform="translate(-54.57 158.83) rotate(-90)"/><rect class="cls-5" x="47.31" y="105.45" width="14.7" height="2.5" transform="translate(-52.04 161.36) rotate(-90)"/><rect class="cls-21" x="82.64" y="105.45" width="14.7" height="2.5" transform="translate(-16.71 196.69) rotate(-90)"/><rect class="cls-17" x="72.55" y="105.45" width="14.7" height="2.5" transform="translate(-26.8 186.6) rotate(-90)"/><rect class="cls-25" x="87.69" y="105.45" width="14.7" height="2.5" transform="translate(-11.66 201.74) rotate(-90)"/><rect class="cls-3" x="29.64" y="105.45" width="14.7" height="2.5" transform="translate(-69.71 143.69) rotate(-90)"/><rect class="cls-7" x="22.07" y="105.45" width="14.7" height="2.5" transform="translate(-77.28 136.12) rotate(-90)"/><rect class="cls-6" x="27.12" y="105.45" width="14.7" height="2.5" transform="translate(-72.24 141.17) rotate(-90)"/><rect class="cls-3" x="24.59" y="105.45" width="14.7" height="2.5" transform="translate(-74.76 138.64) rotate(-90)"/><rect class="cls-9" x="32.17" y="105.45" width="14.7" height="2.5" transform="translate(-67.19 146.21) rotate(-90)"/><rect class="cls-13" x="39.74" y="105.45" width="14.7" height="2.5" transform="translate(-59.62 153.79) rotate(-90)"/><rect class="cls-6" x="34.69" y="105.45" width="14.7" height="2.5" transform="translate(-64.66 148.74) rotate(-90)"/><rect class="cls-4" x="37.21" y="105.45" width="14.7" height="2.5" transform="translate(-62.14 151.26) rotate(-90)"/><rect class="cls-8" x="42.26" y="105.45" width="14.7" height="2.5" transform="translate(-57.09 156.31) rotate(-90)"/><rect class="cls-5" x="49.83" y="105.45" width="14.7" height="2.5" transform="translate(-49.52 163.88) rotate(-90)"/><rect class="cls-12" x="52.36" y="105.45" width="14.7" height="2.5" transform="translate(-47 166.41) rotate(-90)"/><rect class="cls-5" x="54.88" y="105.45" width="14.7" height="2.5" transform="translate(-44.47 168.93) rotate(-90)"/><rect class="cls-5" x="62.45" y="105.45" width="14.7" height="2.5" transform="translate(-36.9 176.5) rotate(-90)"/><rect class="cls-21" x="75.07" y="105.45" width="14.7" height="2.5" transform="translate(189.12 24.28) rotate(90)"/><rect class="cls-17" x="80.12" y="105.45" width="14.7" height="2.5" transform="translate(194.17 19.23) rotate(90)"/><rect class="cls-19" x="85.17" y="105.45" width="14.7" height="2.5" transform="translate(199.22 14.19) rotate(90)"/><rect class="cls-15" x="115.46" y="105.45" width="14.7" height="2.5" transform="translate(16.1 229.5) rotate(-90)"/><rect class="cls-25" x="105.36" y="105.45" width="14.7" height="2.5" transform="translate(6.01 219.41) rotate(-90)"/><rect class="cls-8" x="123.03" y="105.45" width="14.7" height="2.5" transform="translate(23.67 237.08) rotate(-90)"/><rect class="cls-5" x="125.55" y="105.45" width="14.7" height="2.5" transform="translate(26.2 239.6) rotate(-90)"/><rect class="cls-25" x="92.74" y="105.45" width="14.7" height="2.5" transform="translate(-6.61 206.79) rotate(-90)"/><rect class="cls-23" x="117.98" y="105.45" width="14.7" height="2.5" transform="translate(18.63 232.03) rotate(-90)"/><rect class="cls-20" x="112.93" y="105.45" width="14.7" height="2.5" transform="translate(13.58 226.98) rotate(-90)"/><rect class="cls-5" x="138.17" y="105.45" width="14.7" height="2.5" transform="translate(38.82 252.22) rotate(-90)"/><rect class="cls-5" x="135.65" y="105.45" width="14.7" height="2.5" transform="translate(36.29 249.7) rotate(-90)"/><rect class="cls-21" x="100.31" y="105.45" width="14.7" height="2.5" transform="translate(.96 214.36) rotate(-90)"/><rect class="cls-17" x="110.41" y="105.45" width="14.7" height="2.5" transform="translate(11.05 224.46) rotate(-90)"/><rect class="cls-25" x="95.26" y="105.45" width="14.7" height="2.5" transform="translate(-4.09 209.31) rotate(-90)"/><rect class="cls-3" x="153.32" y="105.45" width="14.7" height="2.5" transform="translate(53.96 267.36) rotate(-90)"/><rect class="cls-7" x="160.89" y="105.45" width="14.7" height="2.5" transform="translate(61.53 274.94) rotate(-90)"/><rect class="cls-6" x="155.84" y="105.45" width="14.7" height="2.5" transform="translate(56.49 269.89) rotate(-90)"/><rect class="cls-3" x="158.36" y="105.45" width="14.7" height="2.5" transform="translate(59.01 272.41) rotate(-90)"/><rect class="cls-9" x="150.79" y="105.45" width="14.7" height="2.5" transform="translate(51.44 264.84) rotate(-90)"/><rect class="cls-13" x="143.22" y="105.45" width="14.7" height="2.5" transform="translate(43.87 257.27) rotate(-90)"/><rect class="cls-6" x="148.27" y="105.45" width="14.7" height="2.5" transform="translate(48.91 262.32) rotate(-90)"/><rect class="cls-4" x="145.74" y="105.45" width="14.7" height="2.5" transform="translate(46.39 259.79) rotate(-90)"/><rect class="cls-8" x="140.7" y="105.45" width="14.7" height="2.5" transform="translate(41.34 254.74) rotate(-90)"/><rect class="cls-5" x="133.12" y="105.45" width="14.7" height="2.5" transform="translate(33.77 247.17) rotate(-90)"/><rect class="cls-12" x="130.6" y="105.45" width="14.7" height="2.5" transform="translate(31.25 244.65) rotate(-90)"/><rect class="cls-5" x="128.08" y="105.45" width="14.7" height="2.5" transform="translate(28.72 242.12) rotate(-90)"/><rect class="cls-5" x="120.5" y="105.45" width="14.7" height="2.5" transform="translate(21.15 234.55) rotate(-90)"/><rect class="cls-21" x="107.88" y="105.45" width="14.7" height="2.5" transform="translate(221.93 -8.53) rotate(90)"/><rect class="cls-17" x="102.84" y="105.45" width="14.7" height="2.5" transform="translate(216.89 -3.48) rotate(90)"/><rect class="cls-19" x="97.79" y="105.45" width="14.7" height="2.5" transform="translate(211.84 1.57) rotate(90)"/><rect class="cls-15" x="218.94" y="105.45" width="14.7" height="2.5" transform="translate(119.58 332.99) rotate(-90)"/><rect class="cls-25" x="208.84" y="105.45" width="14.7" height="2.5" transform="translate(109.49 322.89) rotate(-90)"/><rect class="cls-8" x="226.51" y="105.45" width="14.7" height="2.5" transform="translate(127.16 340.56) rotate(-90)"/><rect class="cls-5" x="229.03" y="105.45" width="14.7" height="2.5" transform="translate(129.68 343.08) rotate(-90)"/><rect class="cls-25" x="196.22" y="105.45" width="14.7" height="2.5" transform="translate(96.87 310.27) rotate(-90)"/><rect class="cls-23" x="221.46" y="105.45" width="14.7" height="2.5" transform="translate(122.11 335.51) rotate(-90)"/><rect class="cls-20" x="216.41" y="105.45" width="14.7" height="2.5" transform="translate(117.06 330.46) rotate(-90)"/><rect class="cls-5" x="241.65" y="105.45" width="14.7" height="2.5" transform="translate(142.3 355.7) rotate(-90)"/><rect class="cls-5" x="239.13" y="105.45" width="14.7" height="2.5" transform="translate(139.78 353.18) rotate(-90)"/><rect class="cls-21" x="203.79" y="105.45" width="14.7" height="2.5" transform="translate(104.44 317.84) rotate(-90)"/><rect class="cls-17" x="213.89" y="105.45" width="14.7" height="2.5" transform="translate(114.54 327.94) rotate(-90)"/><rect class="cls-25" x="198.75" y="105.45" width="14.7" height="2.5" transform="translate(99.39 312.8) rotate(-90)"/><rect class="cls-3" x="256.8" y="105.45" width="14.7" height="2.5" transform="translate(157.44 370.85) rotate(-90)"/><rect class="cls-7" x="264.37" y="105.45" width="14.7" height="2.5" transform="translate(165.02 378.42) rotate(-90)"/><rect class="cls-6" x="259.32" y="105.45" width="14.7" height="2.5" transform="translate(159.97 373.37) rotate(-90)"/><rect class="cls-3" x="261.85" y="105.45" width="14.7" height="2.5" transform="translate(162.49 375.89) rotate(-90)"/><rect class="cls-9" x="254.27" y="105.45" width="14.7" height="2.5" transform="translate(154.92 368.32) rotate(-90)"/><rect class="cls-13" x="246.7" y="105.45" width="14.7" height="2.5" transform="translate(147.35 360.75) rotate(-90)"/><rect class="cls-6" x="251.75" y="105.45" width="14.7" height="2.5" transform="translate(152.4 365.8) rotate(-90)"/><rect class="cls-4" x="249.23" y="105.45" width="14.7" height="2.5" transform="translate(149.87 363.27) rotate(-90)"/><rect class="cls-8" x="244.18" y="105.45" width="14.7" height="2.5" transform="translate(144.82 358.23) rotate(-90)"/><rect class="cls-5" x="236.61" y="105.45" width="14.7" height="2.5" transform="translate(137.25 350.65) rotate(-90)"/><rect class="cls-12" x="234.08" y="105.45" width="14.7" height="2.5" transform="translate(134.73 348.13) rotate(-90)"/><rect class="cls-5" x="231.56" y="105.45" width="14.7" height="2.5" transform="translate(132.2 345.61) rotate(-90)"/><rect class="cls-5" x="223.99" y="105.45" width="14.7" height="2.5" transform="translate(124.63 338.03) rotate(-90)"/><rect class="cls-21" x="211.37" y="105.45" width="14.7" height="2.5" transform="translate(325.42 -112.01) rotate(90)"/><rect class="cls-17" x="206.32" y="105.45" width="14.7" height="2.5" transform="translate(320.37 -106.96) rotate(90)"/><rect class="cls-19" x="201.27" y="105.45" width="14.7" height="2.5" transform="translate(315.32 -101.92) rotate(90)"/><rect class="cls-17" x="173.51" y="105.45" width="14.7" height="2.5" transform="translate(287.56 -74.15) rotate(90)"/><rect class="cls-18" x="168.46" y="105.45" width="14.7" height="2.5" transform="translate(282.51 -69.11) rotate(90)"/><rect class="cls-21" x="176.03" y="105.45" width="14.7" height="2.5" transform="translate(290.08 -76.68) rotate(90)"/><rect class="cls-17" x="181.08" y="105.45" width="14.7" height="2.5" transform="translate(295.13 -81.73) rotate(90)"/><rect class="cls-15" x="170.98" y="105.45" width="14.7" height="2.5" transform="translate(285.03 -71.63) rotate(90)"/><rect class="cls-22" x="163.41" y="105.45" width="14.7" height="2.5" transform="translate(277.46 -64.06) rotate(90)"/><rect class="cls-23" x="165.93" y="105.45" width="14.7" height="2.5" transform="translate(279.98 -66.58) rotate(90)"/><rect class="cls-20" x="191.17" y="105.45" width="14.7" height="2.5" transform="translate(305.22 -91.82) rotate(90)"/><rect class="cls-16" x="193.7" y="105.45" width="14.7" height="2.5" transform="translate(307.75 -94.34) rotate(90)"/><rect class="cls-19" x="186.13" y="105.45" width="14.7" height="2.5" transform="translate(300.18 -86.77) rotate(90)"/><rect class="cls-25" x="183.6" y="105.45" width="14.7" height="2.5" transform="translate(84.25 297.65) rotate(-90)"/><rect class="cls-21" x="188.65" y="105.45" width="14.7" height="2.5" transform="translate(89.3 302.7) rotate(-90)"/><rect class="cls-17" x="178.55" y="105.45" width="14.7" height="2.5" transform="translate(79.2 292.6) rotate(-90)"/></g><g><rect class="cls-9" x="244.18" y="66.79" width="14.7" height="2.5" transform="translate(183.48 319.57) rotate(-90)"/><rect class="cls-13" x="239.13" y="66.79" width="14.7" height="2.5" transform="translate(178.43 314.52) rotate(-90)"/><rect class="cls-17" x="216.41" y="66.79" width="14.7" height="2.5" transform="translate(155.72 291.8) rotate(-90)"/><rect class="cls-13" x="241.65" y="66.79" width="14.7" height="2.5" transform="translate(180.96 317.04) rotate(-90)"/><rect class="cls-18" x="221.46" y="66.79" width="14.7" height="2.5" transform="translate(160.77 296.85) rotate(-90)"/><rect class="cls-21" x="213.89" y="66.79" width="14.7" height="2.5" transform="translate(153.19 289.28) rotate(-90)"/><rect class="cls-17" x="208.84" y="66.79" width="14.7" height="2.5" transform="translate(148.15 284.23) rotate(-90)"/><rect class="cls-15" x="218.94" y="66.79" width="14.7" height="2.5" transform="translate(158.24 294.33) rotate(-90)"/><rect class="cls-22" x="226.51" y="66.79" width="14.7" height="2.5" transform="translate(165.81 301.9) rotate(-90)"/><rect class="cls-23" x="223.99" y="66.79" width="14.7" height="2.5" transform="translate(163.29 299.38) rotate(-90)"/><rect class="cls-20" x="198.75" y="66.79" width="14.7" height="2.5" transform="translate(138.05 274.14) rotate(-90)"/><rect class="cls-22" x="229.03" y="66.79" width="14.7" height="2.5" transform="translate(168.34 304.42) rotate(-90)"/><rect class="cls-16" x="196.22" y="66.79" width="14.7" height="2.5" transform="translate(135.53 271.61) rotate(-90)"/><rect class="cls-19" x="203.79" y="66.79" width="14.7" height="2.5" transform="translate(143.1 279.18) rotate(-90)"/><rect class="cls-11" x="256.8" y="66.79" width="14.7" height="2.5" transform="translate(196.1 332.19) rotate(-90)"/><rect class="cls-6" x="264.37" y="66.79" width="14.7" height="2.5" transform="translate(203.67 339.76) rotate(-90)"/><rect class="cls-6" x="259.32" y="66.79" width="14.7" height="2.5" transform="translate(198.63 334.71) rotate(-90)"/><rect class="cls-10" x="261.85" y="66.79" width="14.7" height="2.5" transform="translate(201.15 337.24) rotate(-90)"/><rect class="cls-4" x="254.27" y="66.79" width="14.7" height="2.5" transform="translate(193.58 329.66) rotate(-90)"/><rect class="cls-14" x="246.7" y="66.79" width="14.7" height="2.5" transform="translate(186.01 322.09) rotate(-90)"/><rect class="cls-12" x="251.75" y="66.79" width="14.7" height="2.5" transform="translate(191.05 327.14) rotate(-90)"/><rect class="cls-13" x="249.23" y="66.79" width="14.7" height="2.5" transform="translate(188.53 324.62) rotate(-90)"/><rect class="cls-13" x="234.08" y="66.79" width="14.7" height="2.5" transform="translate(173.39 309.47) rotate(-90)"/><rect class="cls-13" x="231.56" y="66.79" width="14.7" height="2.5" transform="translate(170.86 306.95) rotate(-90)"/><rect class="cls-5" x="236.61" y="66.79" width="14.7" height="2.5" transform="translate(175.91 312) rotate(-90)"/><rect class="cls-25" x="206.32" y="66.79" width="14.7" height="2.5" transform="translate(281.71 -145.62) rotate(90)"/><rect class="cls-21" x="201.27" y="66.79" width="14.7" height="2.5" transform="translate(276.66 -140.58) rotate(90)"/><rect class="cls-17" x="211.37" y="66.79" width="14.7" height="2.5" transform="translate(286.76 -150.67) rotate(90)"/><rect class="cls-18" x="148.27" y="66.79" width="14.7" height="2.5" transform="translate(223.66 -87.57) rotate(90)"/><rect class="cls-18" x="143.22" y="66.79" width="14.7" height="2.5" transform="translate(218.61 -82.52) rotate(90)"/><rect class="cls-21" x="150.79" y="66.79" width="14.7" height="2.5" transform="translate(226.18 -90.1) rotate(90)"/><rect class="cls-16" x="145.74" y="66.79" width="14.7" height="2.5" transform="translate(221.13 -85.05) rotate(90)"/><rect class="cls-11" x="170.98" y="66.79" width="14.7" height="2.5" transform="translate(246.37 -110.29) rotate(90)"/><rect class="cls-12" x="168.46" y="66.79" width="14.7" height="2.5" transform="translate(243.85 -107.76) rotate(90)"/><rect class="cls-16" x="128.08" y="66.79" width="14.7" height="2.5" transform="translate(203.47 -67.38) rotate(90)"/><rect class="cls-19" x="125.55" y="66.79" width="14.7" height="2.5" transform="translate(200.94 -64.86) rotate(90)"/><rect class="cls-8" x="155.84" y="66.79" width="14.7" height="2.5" transform="translate(231.23 -95.14) rotate(90)"/><rect class="cls-18" x="138.17" y="66.79" width="14.7" height="2.5" transform="translate(213.56 -77.48) rotate(90)"/><rect class="cls-15" x="133.12" y="66.79" width="14.7" height="2.5" transform="translate(208.51 -72.43) rotate(90)"/><rect class="cls-23" x="153.32" y="66.79" width="14.7" height="2.5" transform="translate(228.71 -92.62) rotate(90)"/><rect class="cls-20" x="158.36" y="66.79" width="14.7" height="2.5" transform="translate(233.75 -97.67) rotate(90)"/><rect class="cls-9" x="186.13" y="66.79" width="14.7" height="2.5" transform="translate(261.52 -125.43) rotate(90)"/><rect class="cls-10" x="193.7" y="66.79" width="14.7" height="2.5" transform="translate(269.09 -133) rotate(90)"/><rect class="cls-11" x="188.65" y="66.79" width="14.7" height="2.5" transform="translate(264.04 -127.96) rotate(90)"/><rect class="cls-9" x="191.17" y="66.79" width="14.7" height="2.5" transform="translate(266.57 -130.48) rotate(90)"/><rect class="cls-4" x="183.6" y="66.79" width="14.7" height="2.5" transform="translate(258.99 -122.91) rotate(90)"/><rect class="cls-11" x="176.03" y="66.79" width="14.7" height="2.5" transform="translate(251.42 -115.34) rotate(90)"/><rect class="cls-10" x="181.08" y="66.79" width="14.7" height="2.5" transform="translate(256.47 -120.38) rotate(90)"/><rect class="cls-14" x="178.55" y="66.79" width="14.7" height="2.5" transform="translate(253.95 -117.86) rotate(90)"/><rect class="cls-5" x="173.51" y="66.79" width="14.7" height="2.5" transform="translate(248.9 -112.81) rotate(90)"/><rect class="cls-11" x="160.89" y="66.79" width="14.7" height="2.5" transform="translate(236.28 -100.19) rotate(90)"/><rect class="cls-12" x="163.41" y="66.79" width="14.7" height="2.5" transform="translate(238.8 -102.72) rotate(90)"/><rect class="cls-8" x="165.93" y="66.79" width="14.7" height="2.5" transform="translate(241.33 -105.24) rotate(90)"/><rect class="cls-16" x="130.6" y="66.79" width="14.7" height="2.5" transform="translate(69.9 205.99) rotate(-90)"/><rect class="cls-19" x="140.7" y="66.79" width="14.7" height="2.5" transform="translate(80 216.09) rotate(-90)"/><rect class="cls-20" x="135.65" y="66.79" width="14.7" height="2.5" transform="translate(74.95 211.04) rotate(-90)"/><rect class="cls-18" x="44.79" y="66.79" width="14.7" height="2.5" transform="translate(120.18 15.91) rotate(90)"/><rect class="cls-18" x="39.74" y="66.79" width="14.7" height="2.5" transform="translate(115.13 20.96) rotate(90)"/><rect class="cls-21" x="47.31" y="66.79" width="14.7" height="2.5" transform="translate(122.7 13.39) rotate(90)"/><rect class="cls-16" x="42.26" y="66.79" width="14.7" height="2.5" transform="translate(117.65 18.43) rotate(90)"/><rect class="cls-11" x="67.5" y="66.79" width="14.7" height="2.5" transform="translate(142.89 -6.81) rotate(90)"/><rect class="cls-12" x="64.98" y="66.79" width="14.7" height="2.5" transform="translate(140.37 -4.28) rotate(90)"/><rect class="cls-16" x="24.59" y="66.79" width="14.7" height="2.5" transform="translate(99.98 36.1) rotate(90)"/><rect class="cls-19" x="22.07" y="66.79" width="14.7" height="2.5" transform="translate(97.46 38.63) rotate(90)"/><rect class="cls-8" x="52.36" y="66.79" width="14.7" height="2.5" transform="translate(127.75 8.34) rotate(90)"/><rect class="cls-18" x="34.69" y="66.79" width="14.7" height="2.5" transform="translate(110.08 26.01) rotate(90)"/><rect class="cls-15" x="29.64" y="66.79" width="14.7" height="2.5" transform="translate(105.03 31.05) rotate(90)"/><rect class="cls-23" x="49.83" y="66.79" width="14.7" height="2.5" transform="translate(125.22 10.86) rotate(90)"/><rect class="cls-20" x="54.88" y="66.79" width="14.7" height="2.5" transform="translate(130.27 5.81) rotate(90)"/><rect class="cls-9" x="82.64" y="66.79" width="14.7" height="2.5" transform="translate(158.04 -21.95) rotate(90)"/><rect class="cls-10" x="90.22" y="66.79" width="14.7" height="2.5" transform="translate(165.61 -29.52) rotate(90)"/><rect class="cls-11" x="85.17" y="66.79" width="14.7" height="2.5" transform="translate(160.56 -24.47) rotate(90)"/><rect class="cls-9" x="87.69" y="66.79" width="14.7" height="2.5" transform="translate(163.08 -27) rotate(90)"/><rect class="cls-4" x="80.12" y="66.79" width="14.7" height="2.5" transform="translate(155.51 -19.43) rotate(90)"/><rect class="cls-11" x="72.55" y="66.79" width="14.7" height="2.5" transform="translate(147.94 -11.85) rotate(90)"/><rect class="cls-10" x="77.6" y="66.79" width="14.7" height="2.5" transform="translate(152.99 -16.9) rotate(90)"/><rect class="cls-14" x="75.07" y="66.79" width="14.7" height="2.5" transform="translate(150.46 -14.38) rotate(90)"/><rect class="cls-5" x="70.02" y="66.79" width="14.7" height="2.5" transform="translate(145.42 -9.33) rotate(90)"/><rect class="cls-11" x="57.4" y="66.79" width="14.7" height="2.5" transform="translate(132.8 3.29) rotate(90)"/><rect class="cls-12" x="59.93" y="66.79" width="14.7" height="2.5" transform="translate(135.32 .77) rotate(90)"/><rect class="cls-8" x="62.45" y="66.79" width="14.7" height="2.5" transform="translate(137.84 -1.76) rotate(90)"/><rect class="cls-16" x="27.12" y="66.79" width="14.7" height="2.5" transform="translate(-33.58 102.51) rotate(-90)"/><rect class="cls-19" x="37.21" y="66.79" width="14.7" height="2.5" transform="translate(-23.48 112.6) rotate(-90)"/><rect class="cls-20" x="32.17" y="66.79" width="14.7" height="2.5" transform="translate(-28.53 107.56) rotate(-90)"/><rect class="cls-16" x="115.46" y="66.79" width="14.7" height="2.5" transform="translate(54.76 190.85) rotate(-90)"/><rect class="cls-19" x="105.36" y="66.79" width="14.7" height="2.5" transform="translate(44.66 180.75) rotate(-90)"/><rect class="cls-20" x="110.41" y="66.79" width="14.7" height="2.5" transform="translate(49.71 185.8) rotate(-90)"/><rect class="cls-15" x="102.84" y="66.79" width="14.7" height="2.5" transform="translate(42.14 178.23) rotate(-90)"/><rect class="cls-19" x="120.5" y="66.79" width="14.7" height="2.5" transform="translate(59.81 195.89) rotate(-90)"/><rect class="cls-25" x="123.03" y="66.79" width="14.7" height="2.5" transform="translate(62.33 198.42) rotate(-90)"/><rect class="cls-18" x="107.88" y="66.79" width="14.7" height="2.5" transform="translate(183.27 -47.19) rotate(90)"/><rect class="cls-18" x="112.93" y="66.79" width="14.7" height="2.5" transform="translate(188.32 -52.24) rotate(90)"/><rect class="cls-15" x="117.98" y="66.79" width="14.7" height="2.5" transform="translate(193.37 -57.28) rotate(90)"/><rect class="cls-20" x="95.26" y="66.79" width="14.7" height="2.5" transform="translate(170.65 -34.57) rotate(90)"/><rect class="cls-16" x="92.74" y="66.79" width="14.7" height="2.5" transform="translate(168.13 -32.05) rotate(90)"/><rect class="cls-19" x="100.31" y="66.79" width="14.7" height="2.5" transform="translate(175.7 -39.62) rotate(90)"/><rect class="cls-21" x="97.79" y="66.79" width="14.7" height="2.5" transform="translate(37.09 173.18) rotate(-90)"/></g><g><rect class="cls-21" x="223.99" y="144.11" width="14.7" height="2.5" transform="translate(85.97 376.69) rotate(-90)"/><rect class="cls-17" x="218.94" y="144.11" width="14.7" height="2.5" transform="translate(80.93 371.65) rotate(-90)"/><rect class="cls-22" x="221.46" y="144.11" width="14.7" height="2.5" transform="translate(83.45 374.17) rotate(-90)"/><rect class="cls-16" x="203.79" y="144.11" width="14.7" height="2.5" transform="translate(65.78 356.5) rotate(-90)"/><rect class="cls-19" x="213.89" y="144.11" width="14.7" height="2.5" transform="translate(75.88 366.6) rotate(-90)"/><rect class="cls-20" x="208.84" y="144.11" width="14.7" height="2.5" transform="translate(70.83 361.55) rotate(-90)"/><rect class="cls-14" x="244.18" y="144.11" width="14.7" height="2.5" transform="translate(106.17 396.88) rotate(-90)"/><rect class="cls-12" x="239.13" y="144.11" width="14.7" height="2.5" transform="translate(101.12 391.84) rotate(-90)"/><rect class="cls-15" x="216.41" y="144.11" width="14.7" height="2.5" transform="translate(78.4 369.12) rotate(-90)"/><rect class="cls-22" x="226.51" y="144.11" width="14.7" height="2.5" transform="translate(88.5 379.22) rotate(-90)"/><rect class="cls-19" x="198.75" y="144.11" width="14.7" height="2.5" transform="translate(60.73 351.45) rotate(-90)"/><rect class="cls-8" x="229.03" y="144.11" width="14.7" height="2.5" transform="translate(91.02 381.74) rotate(-90)"/><rect class="cls-25" x="196.22" y="144.11" width="14.7" height="2.5" transform="translate(58.21 348.93) rotate(-90)"/><rect class="cls-12" x="241.65" y="144.11" width="14.7" height="2.5" transform="translate(103.64 394.36) rotate(-90)"/><rect class="cls-4" x="256.8" y="144.11" width="14.7" height="2.5" transform="translate(118.79 409.5) rotate(-90)"/><rect class="cls-3" x="264.37" y="144.11" width="14.7" height="2.5" transform="translate(126.36 417.08) rotate(-90)"/><rect class="cls-7" x="259.32" y="144.11" width="14.7" height="2.5" transform="translate(121.31 412.03) rotate(-90)"/><rect class="cls-10" x="261.85" y="144.11" width="14.7" height="2.5" transform="translate(123.83 414.55) rotate(-90)"/><rect class="cls-7" x="254.27" y="144.11" width="14.7" height="2.5" transform="translate(116.26 406.98) rotate(-90)"/><rect class="cls-7" x="246.7" y="144.11" width="14.7" height="2.5" transform="translate(108.69 399.41) rotate(-90)"/><rect class="cls-14" x="251.75" y="144.11" width="14.7" height="2.5" transform="translate(113.74 404.46) rotate(-90)"/><rect class="cls-3" x="249.23" y="144.11" width="14.7" height="2.5" transform="translate(111.21 401.93) rotate(-90)"/><rect class="cls-12" x="234.08" y="144.11" width="14.7" height="2.5" transform="translate(96.07 386.79) rotate(-90)"/><rect class="cls-8" x="236.61" y="144.11" width="14.7" height="2.5" transform="translate(98.59 389.31) rotate(-90)"/><rect class="cls-22" x="231.56" y="144.11" width="14.7" height="2.5" transform="translate(93.55 384.27) rotate(-90)"/><rect class="cls-18" x="211.37" y="144.11" width="14.7" height="2.5" transform="translate(364.07 -73.35) rotate(90)"/><rect class="cls-18" x="206.32" y="144.11" width="14.7" height="2.5" transform="translate(359.03 -68.31) rotate(90)"/><rect class="cls-15" x="201.27" y="144.11" width="14.7" height="2.5" transform="translate(353.98 -63.26) rotate(90)"/><rect class="cls-21" x="165.93" y="144.11" width="14.7" height="2.5" transform="translate(27.92 318.64) rotate(-90)"/><rect class="cls-17" x="170.98" y="144.11" width="14.7" height="2.5" transform="translate(32.97 323.69) rotate(-90)"/><rect class="cls-22" x="168.46" y="144.11" width="14.7" height="2.5" transform="translate(30.45 321.17) rotate(-90)"/><rect class="cls-16" x="186.13" y="144.11" width="14.7" height="2.5" transform="translate(48.11 338.83) rotate(-90)"/><rect class="cls-19" x="176.03" y="144.11" width="14.7" height="2.5" transform="translate(38.02 328.74) rotate(-90)"/><rect class="cls-20" x="181.08" y="144.11" width="14.7" height="2.5" transform="translate(43.07 333.79) rotate(-90)"/><rect class="cls-14" x="145.74" y="144.11" width="14.7" height="2.5" transform="translate(7.73 298.45) rotate(-90)"/><rect class="cls-12" x="150.79" y="144.11" width="14.7" height="2.5" transform="translate(12.78 303.5) rotate(-90)"/><rect class="cls-15" x="173.51" y="144.11" width="14.7" height="2.5" transform="translate(35.49 326.21) rotate(-90)"/><rect class="cls-22" x="163.41" y="144.11" width="14.7" height="2.5" transform="translate(25.4 316.12) rotate(-90)"/><rect class="cls-19" x="191.17" y="144.11" width="14.7" height="2.5" transform="translate(53.16 343.88) rotate(-90)"/><rect class="cls-8" x="160.89" y="144.11" width="14.7" height="2.5" transform="translate(22.88 313.59) rotate(-90)"/><rect class="cls-25" x="193.7" y="144.11" width="14.7" height="2.5" transform="translate(55.69 346.41) rotate(-90)"/><rect class="cls-12" x="148.27" y="144.11" width="14.7" height="2.5" transform="translate(10.26 300.97) rotate(-90)"/><rect class="cls-4" x="133.12" y="144.11" width="14.7" height="2.5" transform="translate(-4.89 285.83) rotate(-90)"/><rect class="cls-3" x="125.55" y="144.11" width="14.7" height="2.5" transform="translate(-12.46 278.26) rotate(-90)"/><rect class="cls-7" x="130.6" y="144.11" width="14.7" height="2.5" transform="translate(-7.41 283.31) rotate(-90)"/><rect class="cls-10" x="128.08" y="144.11" width="14.7" height="2.5" transform="translate(-9.94 280.78) rotate(-90)"/><rect class="cls-7" x="135.65" y="144.11" width="14.7" height="2.5" transform="translate(-2.36 288.35) rotate(-90)"/><rect class="cls-7" x="143.22" y="144.11" width="14.7" height="2.5" transform="translate(5.21 295.93) rotate(-90)"/><rect class="cls-14" x="138.17" y="144.11" width="14.7" height="2.5" transform="translate(.16 290.88) rotate(-90)"/><rect class="cls-3" x="140.7" y="144.11" width="14.7" height="2.5" transform="translate(2.68 293.4) rotate(-90)"/><rect class="cls-12" x="155.84" y="144.11" width="14.7" height="2.5" transform="translate(17.83 308.55) rotate(-90)"/><rect class="cls-8" x="153.32" y="144.11" width="14.7" height="2.5" transform="translate(15.3 306.02) rotate(-90)"/><rect class="cls-22" x="158.36" y="144.11" width="14.7" height="2.5" transform="translate(20.35 311.07) rotate(-90)"/><rect class="cls-18" x="178.55" y="144.11" width="14.7" height="2.5" transform="translate(331.26 -40.54) rotate(90)"/><rect class="cls-18" x="183.6" y="144.11" width="14.7" height="2.5" transform="translate(336.31 -45.59) rotate(90)"/><rect class="cls-15" x="188.65" y="144.11" width="14.7" height="2.5" transform="translate(341.36 -50.64) rotate(90)"/><rect class="cls-21" x="62.45" y="144.11" width="14.7" height="2.5" transform="translate(-75.56 215.16) rotate(-90)"/><rect class="cls-17" x="67.5" y="144.11" width="14.7" height="2.5" transform="translate(-70.51 220.21) rotate(-90)"/><rect class="cls-22" x="64.98" y="144.11" width="14.7" height="2.5" transform="translate(-73.04 217.68) rotate(-90)"/><rect class="cls-16" x="82.64" y="144.11" width="14.7" height="2.5" transform="translate(-55.37 235.35) rotate(-90)"/><rect class="cls-19" x="72.55" y="144.11" width="14.7" height="2.5" transform="translate(-65.46 225.26) rotate(-90)"/><rect class="cls-20" x="77.6" y="144.11" width="14.7" height="2.5" transform="translate(-60.42 230.3) rotate(-90)"/><rect class="cls-14" x="42.26" y="144.11" width="14.7" height="2.5" transform="translate(-95.75 194.97) rotate(-90)"/><rect class="cls-12" x="47.31" y="144.11" width="14.7" height="2.5" transform="translate(-90.7 200.02) rotate(-90)"/><rect class="cls-15" x="70.02" y="144.11" width="14.7" height="2.5" transform="translate(-67.99 222.73) rotate(-90)"/><rect class="cls-22" x="59.93" y="144.11" width="14.7" height="2.5" transform="translate(-78.08 212.64) rotate(-90)"/><rect class="cls-19" x="87.69" y="144.11" width="14.7" height="2.5" transform="translate(-50.32 240.4) rotate(-90)"/><rect class="cls-8" x="57.4" y="144.11" width="14.7" height="2.5" transform="translate(-80.61 210.11) rotate(-90)"/><rect class="cls-25" x="90.22" y="144.11" width="14.7" height="2.5" transform="translate(-47.8 242.92) rotate(-90)"/><rect class="cls-12" x="44.79" y="144.11" width="14.7" height="2.5" transform="translate(-93.23 197.49) rotate(-90)"/><rect class="cls-4" x="29.64" y="144.11" width="14.7" height="2.5" transform="translate(-108.37 182.35) rotate(-90)"/><rect class="cls-3" x="22.07" y="144.11" width="14.7" height="2.5" transform="translate(-115.94 174.78) rotate(-90)"/><rect class="cls-7" x="27.12" y="144.11" width="14.7" height="2.5" transform="translate(-110.89 179.82) rotate(-90)"/><rect class="cls-10" x="24.59" y="144.11" width="14.7" height="2.5" transform="translate(-113.42 177.3) rotate(-90)"/><rect class="cls-7" x="32.17" y="144.11" width="14.7" height="2.5" transform="translate(-105.85 184.87) rotate(-90)"/><rect class="cls-7" x="39.74" y="144.11" width="14.7" height="2.5" transform="translate(-98.27 192.44) rotate(-90)"/><rect class="cls-14" x="34.69" y="144.11" width="14.7" height="2.5" transform="translate(-103.32 187.4) rotate(-90)"/><rect class="cls-3" x="37.21" y="144.11" width="14.7" height="2.5" transform="translate(-100.8 189.92) rotate(-90)"/><rect class="cls-12" x="52.36" y="144.11" width="14.7" height="2.5" transform="translate(-85.65 205.06) rotate(-90)"/><rect class="cls-8" x="49.83" y="144.11" width="14.7" height="2.5" transform="translate(-88.18 202.54) rotate(-90)"/><rect class="cls-22" x="54.88" y="144.11" width="14.7" height="2.5" transform="translate(-83.13 207.59) rotate(-90)"/><rect class="cls-18" x="75.07" y="144.11" width="14.7" height="2.5" transform="translate(227.78 62.94) rotate(90)"/><rect class="cls-18" x="80.12" y="144.11" width="14.7" height="2.5" transform="translate(232.83 57.89) rotate(90)"/><rect class="cls-15" x="85.17" y="144.11" width="14.7" height="2.5" transform="translate(237.88 52.84) rotate(90)"/><rect class="cls-17" x="115.46" y="144.11" width="14.7" height="2.5" transform="translate(268.16 22.56) rotate(90)"/><rect class="cls-18" x="120.5" y="144.11" width="14.7" height="2.5" transform="translate(273.21 17.51) rotate(90)"/><rect class="cls-21" x="112.93" y="144.11" width="14.7" height="2.5" transform="translate(265.64 25.08) rotate(90)"/><rect class="cls-17" x="107.88" y="144.11" width="14.7" height="2.5" transform="translate(260.59 30.13) rotate(90)"/><rect class="cls-15" x="117.98" y="144.11" width="14.7" height="2.5" transform="translate(270.69 20.03) rotate(90)"/><rect class="cls-23" x="123.03" y="144.11" width="14.7" height="2.5" transform="translate(275.74 14.98) rotate(90)"/><rect class="cls-25" x="105.36" y="144.11" width="14.7" height="2.5" transform="translate(-32.65 258.07) rotate(-90)"/><rect class="cls-17" x="110.41" y="144.11" width="14.7" height="2.5" transform="translate(-27.6 263.12) rotate(-90)"/><rect class="cls-18" x="97.79" y="144.11" width="14.7" height="2.5" transform="translate(250.5 40.22) rotate(90)"/><rect class="cls-18" x="92.74" y="144.11" width="14.7" height="2.5" transform="translate(245.45 45.27) rotate(90)"/><rect class="cls-21" x="100.31" y="144.11" width="14.7" height="2.5" transform="translate(253.02 37.7) rotate(90)"/><rect class="cls-16" x="95.26" y="144.11" width="14.7" height="2.5" transform="translate(247.97 42.75) rotate(90)"/><rect class="cls-23" x="102.84" y="144.11" width="14.7" height="2.5" transform="translate(255.54 35.18) rotate(90)"/></g><g><rect class="cls-18" x="218.94" y="28.13" width="14.7" height="2.5" transform="translate(196.9 255.67) rotate(-90)"/><rect class="cls-18" x="213.89" y="28.13" width="14.7" height="2.5" transform="translate(191.85 250.62) rotate(-90)"/><rect class="cls-21" x="221.46" y="28.13" width="14.7" height="2.5" transform="translate(199.43 258.19) rotate(-90)"/><rect class="cls-16" x="216.41" y="28.13" width="14.7" height="2.5" transform="translate(194.38 253.15) rotate(-90)"/><rect class="cls-11" x="241.65" y="28.13" width="14.7" height="2.5" transform="translate(219.62 278.39) rotate(-90)"/><rect class="cls-12" x="239.13" y="28.13" width="14.7" height="2.5" transform="translate(217.09 275.86) rotate(-90)"/><rect class="cls-16" x="198.75" y="28.13" width="14.7" height="2.5" transform="translate(176.71 235.48) rotate(-90)"/><rect class="cls-19" x="196.22" y="28.13" width="14.7" height="2.5" transform="translate(174.19 232.95) rotate(-90)"/><rect class="cls-8" x="226.51" y="28.13" width="14.7" height="2.5" transform="translate(204.47 263.24) rotate(-90)"/><rect class="cls-18" x="208.84" y="28.13" width="14.7" height="2.5" transform="translate(186.81 245.57) rotate(-90)"/><rect class="cls-15" x="203.79" y="28.13" width="14.7" height="2.5" transform="translate(181.76 240.53) rotate(-90)"/><rect class="cls-23" x="223.99" y="28.13" width="14.7" height="2.5" transform="translate(201.95 260.72) rotate(-90)"/><rect class="cls-20" x="229.03" y="28.13" width="14.7" height="2.5" transform="translate(207 265.77) rotate(-90)"/><rect class="cls-9" x="256.8" y="28.13" width="14.7" height="2.5" transform="translate(234.76 293.53) rotate(-90)"/><rect class="cls-10" x="264.37" y="28.13" width="14.7" height="2.5" transform="translate(242.33 301.1) rotate(-90)"/><rect class="cls-11" x="259.32" y="28.13" width="14.7" height="2.5" transform="translate(237.28 296.05) rotate(-90)"/><rect class="cls-9" x="261.85" y="28.13" width="14.7" height="2.5" transform="translate(239.81 298.58) rotate(-90)"/><rect class="cls-4" x="254.27" y="28.13" width="14.7" height="2.5" transform="translate(232.24 291.01) rotate(-90)"/><rect class="cls-11" x="246.7" y="28.13" width="14.7" height="2.5" transform="translate(224.66 283.43) rotate(-90)"/><rect class="cls-10" x="251.75" y="28.13" width="14.7" height="2.5" transform="translate(229.71 288.48) rotate(-90)"/><rect class="cls-14" x="249.23" y="28.13" width="14.7" height="2.5" transform="translate(227.19 285.96) rotate(-90)"/><rect class="cls-5" x="244.18" y="28.13" width="14.7" height="2.5" transform="translate(222.14 280.91) rotate(-90)"/><rect class="cls-11" x="231.56" y="28.13" width="14.7" height="2.5" transform="translate(209.52 268.29) rotate(-90)"/><rect class="cls-12" x="234.08" y="28.13" width="14.7" height="2.5" transform="translate(212.05 270.81) rotate(-90)"/><rect class="cls-8" x="236.61" y="28.13" width="14.7" height="2.5" transform="translate(214.57 273.34) rotate(-90)"/><rect class="cls-16" x="201.27" y="28.13" width="14.7" height="2.5" transform="translate(238 -179.23) rotate(90)"/><rect class="cls-19" x="211.37" y="28.13" width="14.7" height="2.5" transform="translate(248.1 -189.33) rotate(90)"/><rect class="cls-20" x="206.32" y="28.13" width="14.7" height="2.5" transform="translate(243.05 -184.28) rotate(90)"/><rect class="cls-9" x="173.51" y="28.13" width="14.7" height="2.5" transform="translate(210.24 -151.47) rotate(90)"/><rect class="cls-13" x="168.46" y="28.13" width="14.7" height="2.5" transform="translate(205.19 -146.42) rotate(90)"/><rect class="cls-17" x="145.74" y="28.13" width="14.7" height="2.5" transform="translate(182.48 -123.71) rotate(90)"/><rect class="cls-13" x="170.98" y="28.13" width="14.7" height="2.5" transform="translate(207.71 -148.95) rotate(90)"/><rect class="cls-18" x="150.79" y="28.13" width="14.7" height="2.5" transform="translate(187.52 -128.75) rotate(90)"/><rect class="cls-21" x="143.22" y="28.13" width="14.7" height="2.5" transform="translate(179.95 -121.18) rotate(90)"/><rect class="cls-17" x="138.17" y="28.13" width="14.7" height="2.5" transform="translate(174.9 -116.13) rotate(90)"/><rect class="cls-15" x="148.27" y="28.13" width="14.7" height="2.5" transform="translate(185 -126.23) rotate(90)"/><rect class="cls-22" x="155.84" y="28.13" width="14.7" height="2.5" transform="translate(192.57 -133.8) rotate(90)"/><rect class="cls-23" x="153.32" y="28.13" width="14.7" height="2.5" transform="translate(190.05 -131.28) rotate(90)"/><rect class="cls-20" x="128.08" y="28.13" width="14.7" height="2.5" transform="translate(164.81 -106.04) rotate(90)"/><rect class="cls-22" x="158.36" y="28.13" width="14.7" height="2.5" transform="translate(195.1 -136.33) rotate(90)"/><rect class="cls-16" x="125.55" y="28.13" width="14.7" height="2.5" transform="translate(162.28 -103.52) rotate(90)"/><rect class="cls-19" x="133.12" y="28.13" width="14.7" height="2.5" transform="translate(169.86 -111.09) rotate(90)"/><rect class="cls-11" x="186.13" y="28.13" width="14.7" height="2.5" transform="translate(222.86 -164.09) rotate(90)"/><rect class="cls-6" x="193.7" y="28.13" width="14.7" height="2.5" transform="translate(230.43 -171.66) rotate(90)"/><rect class="cls-6" x="188.65" y="28.13" width="14.7" height="2.5" transform="translate(225.38 -166.61) rotate(90)"/><rect class="cls-10" x="191.17" y="28.13" width="14.7" height="2.5" transform="translate(227.91 -169.14) rotate(90)"/><rect class="cls-4" x="183.6" y="28.13" width="14.7" height="2.5" transform="translate(220.33 -161.57) rotate(90)"/><rect class="cls-14" x="176.03" y="28.13" width="14.7" height="2.5" transform="translate(212.76 -153.99) rotate(90)"/><rect class="cls-12" x="181.08" y="28.13" width="14.7" height="2.5" transform="translate(217.81 -159.04) rotate(90)"/><rect class="cls-13" x="178.55" y="28.13" width="14.7" height="2.5" transform="translate(215.29 -156.52) rotate(90)"/><rect class="cls-13" x="163.41" y="28.13" width="14.7" height="2.5" transform="translate(200.14 -141.37) rotate(90)"/><rect class="cls-13" x="160.89" y="28.13" width="14.7" height="2.5" transform="translate(197.62 -138.85) rotate(90)"/><rect class="cls-5" x="165.93" y="28.13" width="14.7" height="2.5" transform="translate(202.67 -143.9) rotate(90)"/><rect class="cls-25" x="135.65" y="28.13" width="14.7" height="2.5" transform="translate(113.61 172.38) rotate(-90)"/><rect class="cls-21" x="130.6" y="28.13" width="14.7" height="2.5" transform="translate(108.56 167.33) rotate(-90)"/><rect class="cls-17" x="140.7" y="28.13" width="14.7" height="2.5" transform="translate(118.66 177.43) rotate(-90)"/><rect class="cls-9" x="70.02" y="28.13" width="14.7" height="2.5" transform="translate(106.76 -47.99) rotate(90)"/><rect class="cls-13" x="64.98" y="28.13" width="14.7" height="2.5" transform="translate(101.71 -42.94) rotate(90)"/><rect class="cls-17" x="42.26" y="28.13" width="14.7" height="2.5" transform="translate(78.99 -20.22) rotate(90)"/><rect class="cls-13" x="67.5" y="28.13" width="14.7" height="2.5" transform="translate(104.23 -45.46) rotate(90)"/><rect class="cls-18" x="47.31" y="28.13" width="14.7" height="2.5" transform="translate(84.04 -25.27) rotate(90)"/><rect class="cls-21" x="39.74" y="28.13" width="14.7" height="2.5" transform="translate(76.47 -17.7) rotate(90)"/><rect class="cls-17" x="34.69" y="28.13" width="14.7" height="2.5" transform="translate(71.42 -12.65) rotate(90)"/><rect class="cls-15" x="44.79" y="28.13" width="14.7" height="2.5" transform="translate(81.52 -22.75) rotate(90)"/><rect class="cls-22" x="52.36" y="28.13" width="14.7" height="2.5" transform="translate(89.09 -30.32) rotate(90)"/><rect class="cls-23" x="49.83" y="28.13" width="14.7" height="2.5" transform="translate(86.57 -27.8) rotate(90)"/><rect class="cls-20" x="24.59" y="28.13" width="14.7" height="2.5" transform="translate(61.33 -2.56) rotate(90)"/><rect class="cls-22" x="54.88" y="28.13" width="14.7" height="2.5" transform="translate(91.61 -32.84) rotate(90)"/><rect class="cls-16" x="22.07" y="28.13" width="14.7" height="2.5" transform="translate(58.8 -.03) rotate(90)"/><rect class="cls-19" x="29.64" y="28.13" width="14.7" height="2.5" transform="translate(66.37 -7.6) rotate(90)"/><rect class="cls-11" x="82.64" y="28.13" width="14.7" height="2.5" transform="translate(119.38 -60.61) rotate(90)"/><rect class="cls-6" x="90.22" y="28.13" width="14.7" height="2.5" transform="translate(126.95 -68.18) rotate(90)"/><rect class="cls-6" x="85.17" y="28.13" width="14.7" height="2.5" transform="translate(121.9 -63.13) rotate(90)"/><rect class="cls-10" x="87.69" y="28.13" width="14.7" height="2.5" transform="translate(124.42 -65.66) rotate(90)"/><rect class="cls-4" x="80.12" y="28.13" width="14.7" height="2.5" transform="translate(116.85 -58.08) rotate(90)"/><rect class="cls-14" x="72.55" y="28.13" width="14.7" height="2.5" transform="translate(109.28 -50.51) rotate(90)"/><rect class="cls-12" x="77.6" y="28.13" width="14.7" height="2.5" transform="translate(114.33 -55.56) rotate(90)"/><rect class="cls-13" x="75.07" y="28.13" width="14.7" height="2.5" transform="translate(111.8 -53.04) rotate(90)"/><rect class="cls-13" x="59.93" y="28.13" width="14.7" height="2.5" transform="translate(96.66 -37.89) rotate(90)"/><rect class="cls-13" x="57.4" y="28.13" width="14.7" height="2.5" transform="translate(94.14 -35.37) rotate(90)"/><rect class="cls-5" x="62.45" y="28.13" width="14.7" height="2.5" transform="translate(99.18 -40.42) rotate(90)"/><rect class="cls-25" x="32.17" y="28.13" width="14.7" height="2.5" transform="translate(10.13 68.9) rotate(-90)"/><rect class="cls-21" x="27.12" y="28.13" width="14.7" height="2.5" transform="translate(5.08 63.85) rotate(-90)"/><rect class="cls-17" x="37.21" y="28.13" width="14.7" height="2.5" transform="translate(15.18 73.95) rotate(-90)"/><rect class="cls-17" x="115.46" y="28.13" width="14.7" height="2.5" transform="translate(152.19 -93.42) rotate(90)"/><rect class="cls-18" x="120.5" y="28.13" width="14.7" height="2.5" transform="translate(157.24 -98.47) rotate(90)"/><rect class="cls-21" x="112.93" y="28.13" width="14.7" height="2.5" transform="translate(149.66 -90.9) rotate(90)"/><rect class="cls-17" x="107.88" y="28.13" width="14.7" height="2.5" transform="translate(144.62 -85.85) rotate(90)"/><rect class="cls-15" x="117.98" y="28.13" width="14.7" height="2.5" transform="translate(154.71 -95.94) rotate(90)"/><rect class="cls-23" x="123.03" y="28.13" width="14.7" height="2.5" transform="translate(159.76 -100.99) rotate(90)"/><rect class="cls-25" x="105.36" y="28.13" width="14.7" height="2.5" transform="translate(83.32 142.09) rotate(-90)"/><rect class="cls-17" x="110.41" y="28.13" width="14.7" height="2.5" transform="translate(88.37 147.14) rotate(-90)"/><rect class="cls-18" x="97.79" y="28.13" width="14.7" height="2.5" transform="translate(134.52 -75.75) rotate(90)"/><rect class="cls-18" x="92.74" y="28.13" width="14.7" height="2.5" transform="translate(129.47 -70.7) rotate(90)"/><rect class="cls-21" x="100.31" y="28.13" width="14.7" height="2.5" transform="translate(137.04 -78.28) rotate(90)"/><rect class="cls-16" x="95.26" y="28.13" width="14.7" height="2.5" transform="translate(132 -73.23) rotate(90)"/><rect class="cls-23" x="102.84" y="28.13" width="14.7" height="2.5" transform="translate(139.57 -80.8) rotate(90)"/></g></g><ellipse class="cls-31" cx="284.05" cy="145.37" rx="4.35" ry="4.46" transform="translate(-3.93 7.94) rotate(-1.59)"/></g><g><ellipse class="cls-27" cx="531.4" cy="21.95" rx="12.04" ry="11.84" transform="translate(.16 47.46) rotate(-5.11)"/><ellipse class="cls-27" cx="535.06" cy="62.91" rx="11.84" ry="12.04" transform="translate(431.09 591.53) rotate(-85.58)"/><ellipse class="cls-31" cx="466.04" cy="33.73" rx="11.78" ry="12.1" transform="translate(419.37 498.65) rotate(-88.41)"/><ellipse class="cls-28" cx="455.08" cy="132.56" rx="12.07" ry="11.81"/><ellipse class="cls-28" cx="479.22" cy="167.51" rx="12.07" ry="11.81"/><ellipse class="cls-29" cx="549.92" cy="43.29" rx="12.07" ry="11.81"/><ellipse class="cls-30" cx="555.83" cy="111.38" rx="12.03" ry="11.85" transform="translate(-5.14 29.71) rotate(-3.05)"/><ellipse class="cls-31" cx="450.48" cy="58.17" rx="11.78" ry="12.1" transform="translate(379.82 506.86) rotate(-88.41)"/></g><g><polyline class="cls-2" points="446.95 168.96 402.9 168.96 402.9 127.26"/><text class="cls-26" transform="translate(402.9 185.42)"><tspan x="0" y="0">dim-2</tspan></text><text class="cls-26" transform="translate(398.18 168.96) rotate(-90)"><tspan x="0" y="0">dim-1</tspan></text></g></svg>