<?xml version="1.0" encoding="UTF-8"?><svg id="Layer_1" xmlns="http://www.w3.org/2000/svg" viewBox="0 0 600 200"><defs><style>.cls-1{stroke:#211f1f;stroke-width:3px;}.cls-1,.cls-2,.cls-3,.cls-4,.cls-5,.cls-6,.cls-7,.cls-8,.cls-9{stroke-miterlimit:10;}.cls-1,.cls-3{fill:none;}.cls-10{fill:#211f1f;}.cls-2{fill:#9b7ebd;stroke:#1b1464;}.cls-2,.cls-4,.cls-5,.cls-6,.cls-7,.cls-8,.cls-9{opacity:.9;}.cls-2,.cls-4,.cls-5,.cls-6,.cls-8,.cls-9{stroke-width:.5px;}.cls-11{font-family:ArialMT, Arial;font-size:16px;}.cls-3{stroke:#231f20;stroke-width:2px;}.cls-4{fill:#b7d59b;}.cls-4,.cls-9{stroke:#006837;}.cls-5{fill:#fba29a;stroke:#ff1d25;}.cls-6{fill:#fcd375;stroke:#f7931e;}.cls-7{fill:#ccc;stroke:gray;stroke-width:.75px;}.cls-8{fill:#69aee9;stroke:#0071bc;}.cls-9{fill:#00a99d;}</style></defs><g><g><ellipse class="cls-6" cx="383.1" cy="93.49" rx="5.5" ry="5.48" transform="translate(-1.3 5.51) rotate(-.82)"/><ellipse class="cls-6" cx="396.94" cy="65.36" rx="5.5" ry="5.48" transform="translate(-.9 5.71) rotate(-.82)"/><ellipse class="cls-6" cx="382.92" cy="80.54" rx="5.48" ry="5.49" transform="translate(191.24 421.67) rotate(-72.55)"/><ellipse class="cls-6" cx="397.44" cy="80.54" rx="5.48" ry="5.49" transform="translate(201.4 435.53) rotate(-72.55)"/><ellipse class="cls-6" cx="382.68" cy="63.79" rx="5.39" ry="5.45" transform="translate(285.33 439.34) rotate(-84.93)"/><ellipse class="cls-2" cx="475.67" cy="35.33" rx="5.48" ry="5.49"/><ellipse class="cls-2" cx="426.43" cy="48.87" rx="5.48" ry="5.49"/><ellipse class="cls-2" cx="440.18" cy="44.94" rx="5.48" ry="5.49"/><ellipse class="cls-2" cx="448.47" cy="34.06" rx="5.48" ry="5.49"/><ellipse class="cls-8" cx="501.2" cy="50.04" rx="5.49" ry="5.48" transform="translate(292.48 508.45) rotate(-71.22)"/><ellipse class="cls-8" cx="524.55" cy="36.76" rx="5.48" ry="5.49"/><ellipse class="cls-8" cx="500.5" cy="20.39" rx="5.48" ry="5.49"/><ellipse class="cls-8" cx="484.65" cy="26.01" rx="5.48" ry="5.49"/><ellipse class="cls-8" cx="496.9" cy="35.98" rx="5.49" ry="5.48" transform="translate(302.87 494.85) rotate(-71.22)"/><ellipse class="cls-8" cx="527.48" cy="23.89" rx="5.49" ry="5.48" transform="translate(335.06 515.6) rotate(-71.22)"/><ellipse class="cls-8" cx="488.26" cy="45.64" rx="5.49" ry="5.48" transform="translate(287.87 493.22) rotate(-71.22)"/><rect class="cls-2" x="452.7" y="41.41" width="10.43" height="10.99"/><rect class="cls-8" x="508.5" y="62.73" width="10.43" height="10.99"/><rect class="cls-6" x="391.32" y="88.07" width="10.43" height="10.99"/><rect class="cls-6" x="392.23" y="44.67" width="10.43" height="10.99"/><rect class="cls-6" x="399.03" y="101.63" width="10.43" height="10.99"/><rect class="cls-2" x="417.6" y="57.23" width="10.43" height="10.99"/><rect class="cls-2" x="457.47" y="25.28" width="10.43" height="10.99"/><rect class="cls-2" x="439.86" y="51.94" width="10.43" height="10.99"/><rect class="cls-8" x="532.93" y="34.33" width="10.43" height="10.99"/><rect class="cls-8" x="509.77" y="16.26" width="10.43" height="10.99"/><rect class="cls-8" x="512.99" y="46.44" width="10.43" height="10.99"/><rect class="cls-8" x="505.73" y="31.27" width="10.43" height="10.99"/><ellipse class="cls-5" cx="551.74" cy="119.72" rx="5.48" ry="5.49" transform="translate(148.82 515.21) rotate(-56.71)"/><ellipse class="cls-5" cx="524.56" cy="123.01" rx="5.48" ry="5.49" transform="translate(133.82 493.97) rotate(-56.71)"/><ellipse class="cls-5" cx="542.21" cy="104.98" rx="5.39" ry="5.45" transform="translate(358.43 625.78) rotate(-81.52)"/><rect class="cls-5" x="520.74" y="104.04" width="10.43" height="10.99"/><rect class="cls-5" x="523.19" y="91.36" width="10.43" height="10.99"/><rect class="cls-5" x="533.49" y="112.02" width="10.43" height="10.99"/><ellipse class="cls-4" cx="502.3" cy="122.25" rx="5.49" ry="5.48" transform="translate(-4.22 225.62) rotate(-25.21)"/><ellipse class="cls-4" cx="471.98" cy="160.26" rx="5.49" ry="5.48" transform="translate(-23.3 216.32) rotate(-25.21)"/><ellipse class="cls-4" cx="458.43" cy="158" rx="5.49" ry="5.48" transform="translate(-23.63 210.33) rotate(-25.21)"/><ellipse class="cls-9" cx="486.04" cy="127.73" rx="5.49" ry="5.48" transform="translate(-8.11 219.21) rotate(-25.21)"/><ellipse class="cls-9" cx="469.48" cy="101.62" rx="5.49" ry="5.48" transform="translate(1.44 209.67) rotate(-25.21)"/><ellipse class="cls-9" cx="459.05" cy="127.73" rx="5.49" ry="5.48" transform="translate(-10.68 207.72) rotate(-25.21)"/><ellipse class="cls-9" cx="477.19" cy="115.71" rx="5.49" ry="5.48" transform="translate(-3.83 214.3) rotate(-25.21)"/><ellipse class="cls-4" cx="510.87" cy="137.65" rx="5.49" ry="5.48" transform="translate(-9.96 230.74) rotate(-25.21)"/><rect class="cls-4" x="491.88" y="139.34" width="10.43" height="10.99"/><rect class="cls-4" x="479.48" y="161.55" width="10.43" height="10.99"/><rect class="cls-4" x="479.48" y="146.77" width="10.43" height="10.99"/><rect class="cls-4" x="466.76" y="168.62" width="10.43" height="10.99"/><rect class="cls-4" x="482.63" y="174.11" width="10.43" height="10.99"/><rect class="cls-4" x="465.9" y="142.1" width="10.43" height="10.99"/><rect class="cls-4" x="453.21" y="135.24" width="10.43" height="10.99"/><rect class="cls-4" x="504.27" y="144.84" width="10.43" height="10.99"/><rect class="cls-9" x="477.42" y="93" width="10.43" height="10.99"/><rect class="cls-9" x="466.49" y="125.89" width="10.43" height="10.99"/><rect class="cls-9" x="484.91" y="107.62" width="10.43" height="10.99"/><rect class="cls-9" x="457.37" y="109.18" width="10.43" height="10.99"/></g><g><ellipse class="cls-6" cx="149.5" cy="179.94" rx="5.5" ry="5.48" transform="translate(-2.57 2.16) rotate(-.82)"/><ellipse class="cls-6" cx="149.32" cy="166.99" rx="5.48" ry="5.49" transform="translate(-54.77 259.35) rotate(-72.55)"/><ellipse class="cls-6" cx="163.84" cy="166.99" rx="5.48" ry="5.49" transform="translate(-44.6 273.2) rotate(-72.55)"/><ellipse class="cls-2" cx="159.35" cy="105.01" rx="5.48" ry="5.49"/><ellipse class="cls-8" cx="162.31" cy="69.54" rx="5.49" ry="5.48" transform="translate(44.23 200.83) rotate(-71.22)"/><ellipse class="cls-5" cx="172.01" cy="46.03" rx="5.48" ry="5.49" transform="translate(39.12 164.55) rotate(-56.71)"/><ellipse class="cls-5" cx="172.69" cy="60.61" rx="5.39" ry="5.45" transform="translate(87.28 222.48) rotate(-81.52)"/><ellipse class="cls-6" cx="156.95" cy="153.94" rx="5.5" ry="5.48" transform="translate(-2.19 2.27) rotate(-.82)"/><rect class="cls-8" x="30.85" y="95.89" width="10.43" height="10.99"/><rect class="cls-2" x="39.41" y="51.35" width="10.43" height="10.99"/><rect class="cls-5" x="88.84" y="109.89" width="10.99" height="10.43"/><rect class="cls-4" x="95.07" y="95.84" width="10.99" height="10.43"/><rect class="cls-9" x="96.9" y="59.84" width="10.99" height="10.43"/><rect class="cls-6" x="49.51" y="23.66" width="10.43" height="10.99"/><rect class="cls-6" x="41.38" y="38.36" width="10.43" height="10.99"/><rect class="cls-2" x="55.51" y="60.85" width="10.43" height="10.99"/><rect class="cls-5" x="72.11" y="108.07" width="10.99" height="10.43"/><rect class="cls-8" x="44.07" y="104.45" width="10.43" height="10.99"/><rect class="cls-2" x="37.22" y="81.39" width="10.43" height="10.99"/><rect class="cls-5" x="49.45" y="120.58" width="10.99" height="10.43"/><rect class="cls-4" x="77.71" y="82.31" width="10.99" height="10.43"/><rect class="cls-9" x="92.04" y="72.21" width="10.99" height="10.43"/><rect class="cls-6" x="63.3" y="14.58" width="10.43" height="10.99"/><rect class="cls-6" x="36.17" y="25.2" width="10.43" height="10.99"/><rect class="cls-2" x="41.26" y="64.83" width="10.43" height="10.99"/><rect class="cls-5" x="57.74" y="107.49" width="10.99" height="10.43"/><rect class="cls-8" x="27.41" y="109.95" width="10.43" height="10.99"/><rect class="cls-2" x="57" y="42.47" width="10.43" height="10.99"/><rect class="cls-4" x="79.92" y="95.58" width="10.99" height="10.43"/><rect class="cls-9" x="104.22" y="82.31" width="10.99" height="10.43"/><rect class="cls-6" x="71.09" y="42.47" width="10.43" height="10.99"/><rect class="cls-6" x="64.1" y="29.15" width="10.43" height="10.99"/><rect class="cls-2" x="28.55" y="68.7" width="10.43" height="10.99"/><rect class="cls-5" x="62.98" y="120.81" width="10.99" height="10.43"/><rect class="cls-9" x="79.92" y="60.66" width="10.99" height="10.43"/><ellipse class="cls-8" cx="157.44" cy="83.87" rx="5.49" ry="5.48" transform="translate(27.36 205.93) rotate(-71.22)"/><ellipse class="cls-8" cx="148.33" cy="66.22" rx="5.49" ry="5.48" transform="translate(37.88 185.34) rotate(-71.22)"/><ellipse class="cls-2" cx="171.68" cy="114.64" rx="5.48" ry="5.49"/><ellipse class="cls-2" cx="169.71" cy="130.85" rx="5.48" ry="5.49"/><ellipse class="cls-2" cx="156.95" cy="121.67" rx="5.48" ry="5.49"/><ellipse class="cls-2" cx="172.01" cy="147.07" rx="5.48" ry="5.49"/><ellipse class="cls-8" cx="155.99" cy="52.19" rx="5.49" ry="5.48" transform="translate(56.36 183.08) rotate(-71.22)"/><ellipse class="cls-8" cx="171.68" cy="94.01" rx="5.49" ry="5.48" transform="translate(27.41 226.29) rotate(-71.22)"/><ellipse class="cls-8" cx="172.54" cy="80.46" rx="5.49" ry="5.48" transform="translate(40.82 217.91) rotate(-71.22)"/><ellipse class="cls-5" cx="174.47" cy="33.22" rx="5.48" ry="5.49" transform="translate(50.94 160.82) rotate(-56.71)"/><ellipse class="cls-5" cx="182.99" cy="52.19" rx="5.39" ry="5.45" transform="translate(104.39 225.49) rotate(-81.52)"/><ellipse class="cls-4" cx="227.6" cy="65.94" rx="5.49" ry="5.48" transform="translate(142.9 287.25) rotate(-85.21)"/><ellipse class="cls-4" cx="218.87" cy="76.55" rx="5.49" ry="5.48" transform="translate(124.32 288.26) rotate(-85.21)"/><ellipse class="cls-9" cx="192.03" cy="42.04" rx="5.49" ry="5.48" transform="translate(134.11 229.89) rotate(-85.21)"/><ellipse class="cls-4" cx="223.23" cy="51.86" rx="5.49" ry="5.48" transform="translate(10.31 136.63) rotate(-34.79)"/><ellipse class="cls-4" cx="223.23" cy="36.63" rx="5.49" ry="5.48" transform="translate(19 133.91) rotate(-34.79)"/><ellipse class="cls-9" cx="206.14" cy="51.86" rx="5.49" ry="5.48" transform="translate(7.25 126.88) rotate(-34.79)"/><ellipse class="cls-9" cx="187.93" cy="28.39" rx="5.49" ry="5.48" transform="translate(143.96 213.3) rotate(-85.21)"/><ellipse class="cls-9" cx="208.22" cy="37.21" rx="5.49" ry="5.48" transform="translate(15.98 125.44) rotate(-34.79)"/></g></g><text class="cls-11" transform="translate(266.28 157.89)"><tspan x="0" y="0">Batch 1</tspan></text><text class="cls-11" transform="translate(266.28 177.87)"><tspan x="0" y="0">Batch 2</tspan></text><ellipse class="cls-7" cx="256.62" cy="151.57" rx="6.5" ry="6.48" transform="translate(-32.11 77.68) rotate(-16.21)"/><rect class="cls-7" x="250.45" y="165.52" width="12.34" height="13"/><g><polyline class="cls-3" points="431.8 171.88 387.75 171.88 387.75 130.19"/><text class="cls-11" transform="translate(387.75 188.34)"><tspan x="0" y="0">dim-2</tspan></text><text class="cls-11" transform="translate(383.03 171.88) rotate(-90)"><tspan x="0" y="0">dim-1</tspan></text></g><g><polyline class="cls-3" points="72.34 171.88 28.28 171.88 28.28 130.19"/><text class="cls-11" transform="translate(28.29 188.34)"><tspan x="0" y="0">dim-2</tspan></text><text class="cls-11" transform="translate(23.57 171.88) rotate(-90)"><tspan x="0" y="0">dim-1</tspan></text></g><g><line class="cls-1" x1="246.33" y1="106.88" x2="330.15" y2="106.88"/><polygon class="cls-10" points="327.96 114.36 340.92 106.88 327.96 99.4 327.96 114.36"/></g></svg>