<?xml version="1.0" encoding="UTF-8"?><svg id="Layer_1" xmlns="http://www.w3.org/2000/svg" viewBox="0 0 600 200"><defs><style>.cls-1,.cls-2{fill:#fff;}.cls-2{stroke:#333;}.cls-2,.cls-3,.cls-4,.cls-5,.cls-6,.cls-7{stroke-miterlimit:10;}.cls-3{fill:rgba(251,162,154,.2);stroke:#fba29a;}.cls-4{fill:rgba(155,126,189,.2);stroke:#9b7ebd;}.cls-5{fill:rgba(0,107,49,.2);stroke:#006b31;}.cls-6{fill:rgba(105,174,233,.2);stroke:#69aee9;}.cls-7{fill:none;stroke:#4d4d4d;stroke-width:.25px;}</style></defs><line class="cls-7" x1="389.43" y1="48.71" x2="307.95" y2="86.5"/><line class="cls-7" x1="414.31" y1="92.68" x2="307.95" y2="86.5"/><line class="cls-7" x1="490.17" y1="86.5" x2="528.84" y2="55.11"/><line class="cls-7" x1="307.95" y1="86.5" x2="182.24" y2="112"/><line class="cls-7" x1="127.16" y1="112" x2="51.3" y2="105.82"/><line class="cls-7" x1="182.24" y1="112" x2="127.16" y2="112"/><line class="cls-7" x1="199.52" y1="61.12" x2="127.16" y2="112"/><line class="cls-7" x1="165.82" y1="75.81" x2="127.16" y2="112"/><line class="cls-7" x1="183.1" y1="24.74" x2="127.16" y2="112"/><line class="cls-7" x1="127.16" y1="112" x2="136.92" y2="167.45"/><line class="cls-7" x1="127.16" y1="112" x2="103.88" y2="167.45"/><line class="cls-7" x1="127.16" y1="112" x2="62.39" y2="132.17"/><line class="cls-7" x1="127.16" y1="112" x2="62.39" y2="59.78"/><line class="cls-7" x1="127.16" y1="112" x2="85.93" y2="86.12"/><line class="cls-7" x1="127.16" y1="112" x2="29.12" y2="59.78"/><line class="cls-7" x1="127.16" y1="112" x2="79" y2="36.69"/><line class="cls-7" x1="127.16" y1="112" x2="105.02" y2="63.84"/><line class="cls-7" x1="127.16" y1="112" x2="116.65" y2="24.74"/><ellipse class="cls-2" cx="126.86" cy="112" rx="11.09" ry="11.12"/><ellipse class="cls-1" cx="183.1" cy="112.19" rx="11.09" ry="11.12"/><ellipse class="cls-3" cx="183.1" cy="112.19" rx="11.09" ry="11.12"/><ellipse class="cls-1" cx="165.82" cy="75.81" rx="11.09" ry="11.12"/><ellipse class="cls-3" cx="165.82" cy="75.81" rx="11.14" ry="11.07" transform="translate(56.31 221.59) rotate(-77.66)"/><ellipse class="cls-1" cx="182.24" cy="24.74" rx="11.09" ry="11.12"/><ellipse class="cls-6" cx="182.24" cy="24.74" rx="11.14" ry="11.07" transform="translate(119.11 197.48) rotate(-77.66)"/><ellipse class="cls-1" cx="136.92" cy="167.45" rx="11.09" ry="11.12"/><ellipse class="cls-5" cx="136.92" cy="167.45" rx="11.06" ry="11.15" transform="translate(-26.62 25.88) rotate(-9.85)"/><ellipse class="cls-1" cx="103.88" cy="167.45" rx="11.09" ry="11.12"/><ellipse class="cls-5" cx="103.88" cy="167.45" rx="11.09" ry="11.12"/><ellipse class="cls-1" cx="61.66" cy="132.26" rx="11.09" ry="11.12"/><ellipse class="cls-3" cx="62.39" cy="132.17" rx="11.09" ry="11.12"/><ellipse class="cls-1" cx="50.46" cy="105.82" rx="11.09" ry="11.12"/><ellipse class="cls-3" cx="50.46" cy="105.82" rx="11.06" ry="11.15" transform="translate(-17.35 10.19) rotate(-9.85)"/><ellipse class="cls-1" cx="85.93" cy="86.12" rx="11.09" ry="11.12"/><ellipse class="cls-3" cx="85.93" cy="86.12" rx="11.09" ry="11.12"/><ellipse class="cls-1" cx="62.39" cy="59.78" rx="11.09" ry="11.12"/><ellipse class="cls-3" cx="62.39" cy="59.78" rx="11.09" ry="11.12"/><ellipse class="cls-1" cx="29.12" cy="59.78" rx="11.09" ry="11.12"/><ellipse class="cls-3" cx="29.12" cy="59.78" rx="11.09" ry="11.12"/><ellipse class="cls-1" cx="79" cy="36.69" rx="11.09" ry="11.12"/><ellipse class="cls-3" cx="79" cy="36.69" rx="11.09" ry="11.12"/><ellipse class="cls-1" cx="104.72" cy="63.84" rx="11.09" ry="11.12"/><ellipse class="cls-3" cx="104.72" cy="63.84" rx="11.09" ry="11.12"/><ellipse class="cls-1" cx="116.95" cy="25.57" rx="11.09" ry="11.12"/><ellipse class="cls-6" cx="116.95" cy="25.57" rx="11.09" ry="11.12"/><ellipse class="cls-1" cx="199.52" cy="61.12" rx="11.09" ry="11.12"/><ellipse class="cls-1" cx="199.52" cy="61.12" rx="11.09" ry="11.12"/><ellipse class="cls-3" cx="199.52" cy="61.12" rx="11.09" ry="11.12"/><line class="cls-7" x1="490.17" y1="86.5" x2="414.31" y2="92.68"/><line class="cls-7" x1="545.26" y1="86.5" x2="490.17" y2="86.5"/><line class="cls-7" x1="562.54" y1="137.38" x2="490.17" y2="86.5"/><line class="cls-7" x1="528.84" y1="122.68" x2="490.17" y2="86.5"/><line class="cls-7" x1="546.12" y1="173.75" x2="490.17" y2="86.5"/><line class="cls-7" x1="490.17" y1="86.5" x2="499.93" y2="31.05"/><line class="cls-7" x1="490.17" y1="86.5" x2="466.9" y2="31.05"/><line class="cls-7" x1="490.17" y1="86.5" x2="389.43" y2="48.71"/><line class="cls-7" x1="490.17" y1="86.5" x2="425.41" y2="138.71"/><line class="cls-7" x1="490.17" y1="86.5" x2="418.47" y2="21.28"/><line class="cls-7" x1="490.17" y1="86.5" x2="386.09" y2="112.63"/><line class="cls-7" x1="490.17" y1="86.5" x2="442.02" y2="161.8"/><line class="cls-7" x1="490.17" y1="86.5" x2="468.03" y2="134.65"/><line class="cls-7" x1="490.17" y1="86.5" x2="479.67" y2="173.75"/><ellipse class="cls-2" cx="489.88" cy="86.5" rx="11.09" ry="11.12"/><ellipse class="cls-1" cx="546.12" cy="86.31" rx="11.09" ry="11.12"/><ellipse class="cls-4" cx="546.12" cy="86.31" rx="11.09" ry="11.12"/><ellipse class="cls-1" cx="528.84" cy="122.68" rx="11.09" ry="11.12"/><ellipse class="cls-4" cx="528.84" cy="122.68" rx="11.07" ry="11.14" transform="translate(-14 115.9) rotate(-12.34)"/><ellipse class="cls-1" cx="545.26" cy="173.75" rx="11.09" ry="11.12"/><ellipse class="cls-4" cx="545.26" cy="173.75" rx="11.07" ry="11.14" transform="translate(-24.54 120.59) rotate(-12.34)"/><ellipse class="cls-1" cx="499.93" cy="31.05" rx="11.09" ry="11.12"/><ellipse class="cls-6" cx="499.93" cy="31.05" rx="11.15" ry="11.06" transform="translate(383.86 518.31) rotate(-80.15)"/><ellipse class="cls-1" cx="466.9" cy="31.05" rx="11.09" ry="11.12"/><ellipse class="cls-6" cx="466.9" cy="31.05" rx="11.09" ry="11.12"/><ellipse class="cls-1" cx="389.43" cy="48.61" rx="11.09" ry="11.12"/><ellipse class="cls-6" cx="390.17" cy="48.71" rx="11.09" ry="11.12"/><ellipse class="cls-1" cx="413.47" cy="92.68" rx="11.09" ry="11.12"/><ellipse class="cls-5" cx="413.47" cy="92.68" rx="11.15" ry="11.06" transform="translate(251.45 484.21) rotate(-80.15)"/><ellipse class="cls-1" cx="418.47" cy="21.28" rx="11.09" ry="11.12"/><ellipse class="cls-6" cx="418.47" cy="21.28" rx="11.09" ry="11.12"/><ellipse class="cls-1" cx="425.41" cy="138.71" rx="11.09" ry="11.12"/><ellipse class="cls-5" cx="425.41" cy="138.71" rx="11.09" ry="11.12"/><ellipse class="cls-1" cx="528.69" cy="55.11" rx="11.09" ry="11.12"/><ellipse class="cls-4" cx="528.69" cy="55.11" rx="11.09" ry="11.12"/><ellipse class="cls-1" cx="442.02" cy="161.8" rx="11.09" ry="11.12"/><ellipse class="cls-5" cx="442.02" cy="161.8" rx="11.09" ry="11.12"/><ellipse class="cls-1" cx="467.74" cy="134.65" rx="11.09" ry="11.12"/><ellipse class="cls-4" cx="467.74" cy="134.65" rx="11.09" ry="11.12"/><ellipse class="cls-1" cx="479.97" cy="172.93" rx="11.09" ry="11.12"/><ellipse class="cls-4" cx="479.97" cy="172.93" rx="11.09" ry="11.12"/><ellipse class="cls-1" cx="562.54" cy="137.38" rx="11.09" ry="11.12"/><ellipse class="cls-1" cx="562.54" cy="137.38" rx="11.09" ry="11.12"/><ellipse class="cls-4" cx="562.54" cy="137.38" rx="11.09" ry="11.12"/><line class="cls-7" x1="386.09" y1="112.63" x2="307.95" y2="86.5"/><line class="cls-7" x1="363.9" y1="173.75" x2="307.95" y2="86.5"/><line class="cls-7" x1="307.95" y1="86.5" x2="317.71" y2="31.05"/><line class="cls-7" x1="307.95" y1="86.5" x2="284.68" y2="31.05"/><line class="cls-7" x1="307.95" y1="86.5" x2="243.19" y2="66.33"/><line class="cls-7" x1="307.95" y1="86.5" x2="243.19" y2="138.71"/><line class="cls-7" x1="307.95" y1="86.5" x2="266.73" y2="112.37"/><line class="cls-7" x1="307.95" y1="86.5" x2="209.92" y2="138.71"/><line class="cls-7" x1="307.95" y1="86.5" x2="259.8" y2="161.8"/><line class="cls-7" x1="307.95" y1="86.5" x2="285.81" y2="134.65"/><line class="cls-7" x1="307.95" y1="86.5" x2="318.78" y2="143.29"/><ellipse class="cls-2" cx="307.66" cy="86.5" rx="11.09" ry="11.12"/><ellipse class="cls-1" cx="386.09" cy="112.63" rx="11.09" ry="11.12"/><ellipse class="cls-6" cx="386.09" cy="112.63" rx="11.07" ry="11.14" transform="translate(-15.15 85.15) rotate(-12.34)"/><ellipse class="cls-1" cx="363.04" cy="173.75" rx="11.09" ry="11.12"/><ellipse class="cls-4" cx="363.04" cy="173.75" rx="11.07" ry="11.14" transform="translate(-28.75 81.63) rotate(-12.34)"/><ellipse class="cls-1" cx="317.71" cy="31.05" rx="11.09" ry="11.12"/><ellipse class="cls-6" cx="317.71" cy="31.05" rx="11.15" ry="11.06" transform="translate(232.8 338.77) rotate(-80.15)"/><ellipse class="cls-1" cx="284.68" cy="31.05" rx="11.09" ry="11.12"/><ellipse class="cls-6" cx="284.68" cy="31.05" rx="11.09" ry="11.12"/><ellipse class="cls-1" cx="242.46" cy="66.23" rx="11.09" ry="11.12"/><ellipse class="cls-6" cx="243.19" cy="66.33" rx="11.09" ry="11.12"/><ellipse class="cls-1" cx="266.73" cy="112.37" rx="11.09" ry="11.12"/><ellipse class="cls-5" cx="266.73" cy="112.37" rx="11.09" ry="11.12"/><ellipse class="cls-1" cx="243.19" cy="138.71" rx="11.09" ry="11.12"/><ellipse class="cls-5" cx="243.19" cy="138.71" rx="11.09" ry="11.12"/><ellipse class="cls-1" cx="209.92" cy="138.71" rx="11.09" ry="11.12"/><ellipse class="cls-3" cx="209.92" cy="138.71" rx="11.09" ry="11.12"/><ellipse class="cls-1" cx="259.8" cy="161.8" rx="11.09" ry="11.12"/><ellipse class="cls-5" cx="259.8" cy="161.8" rx="11.09" ry="11.12"/><ellipse class="cls-1" cx="285.52" cy="134.65" rx="11.09" ry="11.12"/><ellipse class="cls-5" cx="285.52" cy="134.65" rx="11.09" ry="11.12"/><ellipse class="cls-1" cx="318.75" cy="143.29" rx="11.09" ry="11.12"/><ellipse class="cls-5" cx="318.75" cy="143.29" rx="11.09" ry="11.12"/></svg>