<?xml version="1.0" encoding="UTF-8"?><svg id="Layer_1" xmlns="http://www.w3.org/2000/svg" viewBox="0 0 600 200"><defs><style>.cls-1{stroke:#211f1f;stroke-width:3px;}.cls-1,.cls-2{fill:none;stroke-miterlimit:10;}.cls-3{fill:#0056aa;}.cls-4{fill:#ed8620;}.cls-5{fill:#211f1f;}.cls-6{letter-spacing:-.07em;}.cls-7{font-family:ArialMT, Arial;font-size:16px;}.cls-8{letter-spacing:-.06em;}.cls-2{stroke:#231f20;stroke-width:2px;}</style></defs><g><g><text class="cls-7" transform="translate(545.37 159.87)"><tspan x="0" y="0">RN</tspan><tspan class="cls-8" x="23.11" y="0">A</tspan></text><text class="cls-7" transform="translate(545.4 176.09)"><tspan class="cls-6" x="0" y="0">AT</tspan><tspan x="18.07" y="0">AC</tspan></text><g><ellipse class="cls-4" cx="534.92" cy="170.57" rx="5.19" ry="5.13" transform="translate(317.76 688.33) rotate(-84.93)"/><ellipse class="cls-3" cx="534.92" cy="154.04" rx="5.21" ry="5.22" transform="translate(216.88 610.9) rotate(-71.22)"/><ellipse class="cls-4" cx="390.75" cy="80.91" rx="5.21" ry="5.23" transform="translate(2.76 174.16) rotate(-25.21)"/><ellipse class="cls-3" cx="488.8" cy="179.41" rx="5.23" ry="5.21" transform="translate(70.54 489.53) rotate(-56.71)"/><ellipse class="cls-3" cx="485.62" cy="158.04" rx="5.23" ry="5.21" transform="translate(86.96 477.23) rotate(-56.71)"/><ellipse class="cls-4" cx="478.74" cy="176.09" rx="5.23" ry="5.21" transform="translate(68.78 479.62) rotate(-56.71)"/><ellipse class="cls-4" cx="481.68" cy="117.48" rx="5.18" ry="5.13" transform="translate(294.45 576.57) rotate(-81.52)"/><ellipse class="cls-4" cx="491.19" cy="108.3" rx="5.23" ry="5.21" transform="translate(131.07 459.45) rotate(-56.71)"/><ellipse class="cls-3" cx="507.09" cy="81.61" rx="5.21" ry="5.23" transform="translate(-2.17 148.33) rotate(-16.61)"/><ellipse class="cls-3" cx="509.52" cy="103.46" rx="5.21" ry="5.23" transform="translate(4.47 226.9) rotate(-25.21)"/><ellipse class="cls-4" cx="485.47" cy="128.03" rx="5.21" ry="5.23" transform="translate(-8.29 219) rotate(-25.21)"/><ellipse class="cls-3" cx="480.26" cy="106.5" rx="5.21" ry="5.23" transform="translate(.39 214.73) rotate(-25.21)"/><ellipse class="cls-3" cx="507.09" cy="92.85" rx="5.21" ry="5.23" transform="translate(8.76 224.86) rotate(-25.21)"/><ellipse class="cls-3" cx="469.95" cy="182.07" rx="5.21" ry="5.23" transform="translate(-2.57 6.77) rotate(-.82)"/><ellipse class="cls-3" cx="496" cy="77.66" rx="5.21" ry="5.23" transform="translate(-1.06 7.13) rotate(-.82)"/><ellipse class="cls-3" cx="385.06" cy="71.75" rx="5.23" ry="5.21" transform="translate(201.13 417.56) rotate(-72.55)"/><ellipse class="cls-4" cx="395.99" cy="71.75" rx="5.23" ry="5.21" transform="translate(208.78 427.99) rotate(-72.55)"/><ellipse class="cls-3" cx="407.42" cy="71.04" rx="5.22" ry="5.21"/><ellipse class="cls-4" cx="495.37" cy="162.74" rx="5.22" ry="5.21"/><ellipse class="cls-4" cx="390.38" cy="61.86" rx="5.22" ry="5.21"/><ellipse class="cls-4" cx="476.32" cy="165.09" rx="5.22" ry="5.21"/><ellipse class="cls-3" cx="492.56" cy="120.03" rx="5.22" ry="5.21"/><ellipse class="cls-3" cx="395.99" cy="90.39" rx="5.22" ry="5.21"/><ellipse class="cls-3" cx="402.19" cy="80.91" rx="5.21" ry="5.22" transform="translate(196.11 435.64) rotate(-71.22)"/><ellipse class="cls-4" cx="487.34" cy="98.06" rx="5.22" ry="5.21"/><ellipse class="cls-4" cx="486.74" cy="168.97" rx="5.22" ry="5.21"/><ellipse class="cls-4" cx="401.22" cy="61.86" rx="5.21" ry="5.22" transform="translate(213.49 421.81) rotate(-71.22)"/><ellipse class="cls-3" cx="499.19" cy="99.95" rx="5.21" ry="5.22" transform="translate(243.86 540.39) rotate(-71.22)"/><ellipse class="cls-3" cx="467.69" cy="171.38" rx="5.21" ry="5.22" transform="translate(154.87 559) rotate(-71.22)"/><ellipse class="cls-4" cx="494.59" cy="90.02" rx="5.22" ry="5.21"/><ellipse class="cls-4" cx="501.87" cy="111.72" rx="5.21" ry="5.22" transform="translate(234.54 550.91) rotate(-71.22)"/><ellipse class="cls-3" cx="506.66" cy="59.17" rx="5.21" ry="5.23" transform="translate(-.8 7.28) rotate(-.82)"/><ellipse class="cls-4" cx="505.24" cy="70.39" rx="5.22" ry="5.21"/><ellipse class="cls-4" cx="407.59" cy="22.75" rx="5.23" ry="5.21" transform="translate(29.14 175.79) rotate(-25.21)"/><ellipse class="cls-3" cx="437.29" cy="170.82" rx="5.21" ry="5.23" transform="translate(-22 268.05) rotate(-33.29)"/><ellipse class="cls-3" cx="440.47" cy="149.46" rx="5.21" ry="5.23" transform="translate(-9.75 266.29) rotate(-33.29)"/><ellipse class="cls-4" cx="447.35" cy="167.5" rx="5.21" ry="5.23" transform="translate(-18.53 273.03) rotate(-33.29)"/><ellipse class="cls-4" cx="398.19" cy="39.15" rx="5.13" ry="5.18" transform="translate(300.75 427.21) rotate(-81.52)"/><ellipse class="cls-4" cx="438.06" cy="29.52" rx="5.21" ry="5.23" transform="translate(172.95 379.49) rotate(-56.71)"/><ellipse class="cls-3" cx="517.2" cy="64.78" rx="5.23" ry="5.21" transform="translate(307.31 541.89) rotate(-73.39)"/><ellipse class="cls-3" cx="442.89" cy="47.84" rx="5.23" ry="5.21" transform="translate(21.81 193.22) rotate(-25.21)"/><ellipse class="cls-4" cx="387.64" cy="42.94" rx="5.23" ry="5.21" transform="translate(18.64 169.22) rotate(-25.21)"/><ellipse class="cls-3" cx="439.86" cy="18.58" rx="5.23" ry="5.21" transform="translate(33.99 189.14) rotate(-25.21)"/><ellipse class="cls-3" cx="517.2" cy="76.01" rx="5.23" ry="5.21" transform="translate(228.11 511.55) rotate(-64.79)"/><ellipse class="cls-3" cx="456.14" cy="173.48" rx="5.23" ry="5.21" transform="translate(276.13 627.09) rotate(-89.18)"/><ellipse class="cls-3" cx="528.28" cy="60.82" rx="5.23" ry="5.21" transform="translate(459.88 588.17) rotate(-89.18)"/><ellipse class="cls-3" cx="416.75" cy="17.06" rx="5.21" ry="5.23" transform="translate(275.48 409.51) rotate(-72.55)"/><ellipse class="cls-4" cx="416.75" cy="27.99" rx="5.21" ry="5.23" transform="translate(265.06 417.16) rotate(-72.55)"/><ellipse class="cls-3" cx="417.46" cy="39.41" rx="5.21" ry="5.22"/><ellipse class="cls-4" cx="430.72" cy="154.15" rx="5.22" ry="5.21"/><ellipse class="cls-4" cx="426.64" cy="22.37" rx="5.21" ry="5.22"/><ellipse class="cls-4" cx="449.77" cy="156.5" rx="5.22" ry="5.21"/><ellipse class="cls-3" cx="395.64" cy="50.03" rx="5.21" ry="5.22"/><ellipse class="cls-3" cx="398.11" cy="27.99" rx="5.21" ry="5.22"/><ellipse class="cls-3" cx="407.59" cy="34.19" rx="5.22" ry="5.21" transform="translate(244.01 409.07) rotate(-71.22)"/><ellipse class="cls-4" cx="448.3" cy="25.66" rx="5.21" ry="5.22"/><ellipse class="cls-4" cx="439.35" cy="160.39" rx="5.22" ry="5.21"/><ellipse class="cls-4" cx="426.64" cy="33.21" rx="5.22" ry="5.21" transform="translate(257.85 426.44) rotate(-71.22)"/><ellipse class="cls-3" cx="446.4" cy="37.51" rx="5.22" ry="5.21" transform="translate(267.18 448.08) rotate(-71.22)"/><ellipse class="cls-3" cx="458.4" cy="162.79" rx="5.22" ry="5.21" transform="translate(-28 156.23) rotate(-18.78)"/><ellipse class="cls-4" cx="529.7" cy="73.18" rx="5.22" ry="5.21"/><ellipse class="cls-4" cx="434.64" cy="40.2" rx="5.22" ry="5.21" transform="translate(256.67 438.76) rotate(-71.22)"/><ellipse class="cls-3" cx="517.62" cy="42.33" rx="5.23" ry="5.21" transform="translate(467.86 559.29) rotate(-89.18)"/><ellipse class="cls-4" cx="519.04" cy="53.56" rx="5.22" ry="5.21"/></g></g><g><ellipse class="cls-3" cx="171.69" cy="49.33" rx="5.21" ry="5.23" transform="translate(-4.66 77.84) rotate(-25.21)"/><ellipse class="cls-4" cx="127.3" cy="143.48" rx="5.23" ry="5.21" transform="translate(-62.5 171.14) rotate(-56.71)"/><ellipse class="cls-4" cx="139.14" cy="78.05" rx="5.23" ry="5.21" transform="translate(-2.47 151.52) rotate(-56.71)"/><ellipse class="cls-4" cx="148.13" cy="140.16" rx="5.23" ry="5.21" transform="translate(-50.33 187.05) rotate(-56.71)"/><ellipse class="cls-4" cx="134.4" cy="125.02" rx="5.18" ry="5.13" transform="translate(-9.07 239.52) rotate(-81.52)"/><ellipse class="cls-4" cx="143.92" cy="115.83" rx="5.23" ry="5.21" transform="translate(-31.9 172.56) rotate(-56.71)"/><ellipse class="cls-4" cx="116.89" cy="134.14" rx="5.21" ry="5.23" transform="translate(-33.46 39) rotate(-16.61)"/><ellipse class="cls-4" cx="162.24" cy="111" rx="5.21" ry="5.23" transform="translate(-31.83 79.69) rotate(-25.21)"/><ellipse class="cls-4" cx="118.95" cy="89.53" rx="5.21" ry="5.23" transform="translate(-26.8 59.2) rotate(-25.21)"/><ellipse class="cls-4" cx="132.98" cy="114.04" rx="5.21" ry="5.23" transform="translate(-35.91 67.51) rotate(-25.21)"/><ellipse class="cls-4" cx="132.78" cy="168.21" rx="5.21" ry="5.23" transform="translate(-59 72.59) rotate(-25.21)"/><ellipse class="cls-4" cx="139.34" cy="146.14" rx="5.21" ry="5.23" transform="translate(-2.08 2.02) rotate(-.82)"/><ellipse class="cls-4" cx="85.08" cy="85.96" rx="5.21" ry="5.23" transform="translate(-1.23 1.23) rotate(-.82)"/><ellipse class="cls-3" cx="166" cy="40.17" rx="5.23" ry="5.21" transform="translate(77.9 186.48) rotate(-72.55)"/><ellipse class="cls-3" cx="176.93" cy="40.17" rx="5.23" ry="5.21" transform="translate(85.55 196.91) rotate(-72.55)"/><ellipse class="cls-3" cx="188.36" cy="39.46" rx="5.22" ry="5.21"/><ellipse class="cls-4" cx="125.65" cy="102.1" rx="5.22" ry="5.21"/><ellipse class="cls-3" cx="171.32" cy="30.28" rx="5.22" ry="5.21"/><ellipse class="cls-4" cx="145.71" cy="129.15" rx="5.22" ry="5.21"/><ellipse class="cls-4" cx="126.04" cy="81.52" rx="5.22" ry="5.21"/><ellipse class="cls-3" cx="42.22" cy="78.62" rx="5.22" ry="5.21"/><ellipse class="cls-3" cx="183.13" cy="49.33" rx="5.21" ry="5.22" transform="translate(77.47 206.83) rotate(-71.22)"/><ellipse class="cls-4" cx="140.06" cy="105.6" rx="5.22" ry="5.21"/><ellipse class="cls-4" cx="152.19" cy="73.88" rx="5.22" ry="5.21"/><ellipse class="cls-3" cx="182.16" cy="30.28" rx="5.21" ry="5.22" transform="translate(94.84 193) rotate(-71.22)"/><ellipse class="cls-4" cx="151.92" cy="107.49" rx="5.21" ry="5.22" transform="translate(1.24 216.71) rotate(-71.22)"/><ellipse class="cls-4" cx="137.07" cy="135.44" rx="5.21" ry="5.22" transform="translate(-35.29 221.62) rotate(-71.22)"/><ellipse class="cls-4" cx="130.87" cy="156.75" rx="5.22" ry="5.21"/><ellipse class="cls-4" cx="154.6" cy="119.25" rx="5.21" ry="5.22" transform="translate(-8.07 227.23) rotate(-71.22)"/><ellipse class="cls-4" cx="91.62" cy="97.32" rx="5.21" ry="5.23" transform="translate(-1.39 1.33) rotate(-.82)"/><ellipse class="cls-4" cx="109.79" cy="123.94" rx="5.22" ry="5.21"/><ellipse class="cls-3" cx="114.97" cy="29.76" rx="5.23" ry="5.21" transform="translate(-1.72 51.81) rotate(-25.21)"/><ellipse class="cls-3" cx="60.97" cy="64.75" rx="5.21" ry="5.23" transform="translate(-25.54 44.09) rotate(-33.29)"/><ellipse class="cls-3" cx="205.49" cy="53.83" rx="5.21" ry="5.23" transform="translate(4.17 121.62) rotate(-33.29)"/><ellipse class="cls-3" cx="71.04" cy="61.43" rx="5.21" ry="5.23" transform="translate(-22.06 49.07) rotate(-33.29)"/><ellipse class="cls-3" cx="105.57" cy="46.16" rx="5.13" ry="5.18" transform="translate(44.35 143.77) rotate(-81.52)"/><ellipse class="cls-3" cx="145.44" cy="36.53" rx="5.21" ry="5.23" transform="translate(35.08 138.05) rotate(-56.71)"/><ellipse class="cls-4" cx="102.15" cy="102.93" rx="5.23" ry="5.21" transform="translate(-25.68 171.41) rotate(-73.39)"/><ellipse class="cls-3" cx="33.76" cy="88.62" rx="5.23" ry="5.21" transform="translate(-34.53 22.83) rotate(-25.21)"/><ellipse class="cls-3" cx="95.02" cy="49.95" rx="5.23" ry="5.21" transform="translate(-12.23 45.24) rotate(-25.21)"/><ellipse class="cls-3" cx="147.24" cy="25.59" rx="5.23" ry="5.21" transform="translate(3.13 65.16) rotate(-25.21)"/><ellipse class="cls-4" cx="102.15" cy="114.17" rx="5.23" ry="5.21" transform="translate(-44.65 157.95) rotate(-64.79)"/><ellipse class="cls-3" cx="52" cy="72.6" rx="5.23" ry="5.21" transform="translate(-21.34 123.55) rotate(-89.18)"/><ellipse class="cls-4" cx="113.24" cy="98.98" rx="5.23" ry="5.21" transform="translate(12.64 210.78) rotate(-89.18)"/><ellipse class="cls-3" cx="124.13" cy="24.07" rx="5.21" ry="5.23" transform="translate(63.94 135.27) rotate(-72.55)"/><ellipse class="cls-3" cx="124.13" cy="35" rx="5.21" ry="5.23" transform="translate(53.52 142.92) rotate(-72.55)"/><ellipse class="cls-3" cx="124.84" cy="46.42" rx="5.21" ry="5.22"/><ellipse class="cls-3" cx="194.93" cy="48.27" rx="5.22" ry="5.21"/><ellipse class="cls-3" cx="134.02" cy="29.39" rx="5.21" ry="5.22"/><ellipse class="cls-3" cx="73.45" cy="50.43" rx="5.22" ry="5.21"/><ellipse class="cls-3" cx="86.19" cy="40.85" rx="5.21" ry="5.22"/><ellipse class="cls-3" cx="105.49" cy="35" rx="5.21" ry="5.22"/><ellipse class="cls-3" cx="114.97" cy="41.2" rx="5.22" ry="5.21" transform="translate(38.95 136.78) rotate(-71.22)"/><ellipse class="cls-3" cx="155.68" cy="32.67" rx="5.21" ry="5.22"/><ellipse class="cls-3" cx="63.04" cy="54.32" rx="5.22" ry="5.21"/><ellipse class="cls-3" cx="134.02" cy="40.22" rx="5.22" ry="5.21" transform="translate(52.79 154.15) rotate(-71.22)"/><ellipse class="cls-3" cx="153.78" cy="44.52" rx="5.22" ry="5.21" transform="translate(62.12 175.79) rotate(-71.22)"/><ellipse class="cls-3" cx="82.09" cy="56.72" rx="5.22" ry="5.21" transform="translate(-13.89 29.45) rotate(-18.78)"/><ellipse class="cls-4" cx="114.65" cy="111.33" rx="5.22" ry="5.21"/><ellipse class="cls-3" cx="142.02" cy="47.21" rx="5.22" ry="5.21" transform="translate(51.61 166.47) rotate(-71.22)"/><ellipse class="cls-4" cx="102.58" cy="80.49" rx="5.23" ry="5.21" transform="translate(20.63 181.9) rotate(-89.18)"/><ellipse class="cls-4" cx="104" cy="91.71" rx="5.22" ry="5.21"/><g><polyline class="cls-2" points="84.75 165.02 40.7 165.02 40.7 123.33"/><text class="cls-7" transform="translate(40.7 181.48)"><tspan x="0" y="0">dim-2</tspan></text><text class="cls-7" transform="translate(35.99 165.02) rotate(-90)"><tspan x="0" y="0">dim-1</tspan></text></g></g><g><line class="cls-1" x1="237.61" y1="98.98" x2="321.43" y2="98.98"/><polygon class="cls-5" points="319.24 106.46 332.19 98.98 319.24 91.5 319.24 106.46"/></g></g><g><polyline class="cls-2" points="416.63 165.02 372.58 165.02 372.58 123.33"/><text class="cls-7" transform="translate(372.58 181.48)"><tspan x="0" y="0">dim-2</tspan></text><text class="cls-7" transform="translate(367.86 165.02) rotate(-90)"><tspan x="0" y="0">dim-1</tspan></text></g></svg>