<?xml version="1.0" encoding="UTF-8" standalone="no"?>
<svg
   data-hk="00000001000000010000000100002150100"
   stroke="currentColor"
   stroke-width="1"
   stroke-linecap="round"
   stroke-linejoin="round"
   class="size-4 m-2 h-8 w-auto md:max-lg:hidden "
   viewBox="0 0 999 168"
   fill="none"
   iconclass="stroke-accent"
   version="1.1"
   id="svg2"
   sodipodi:docname="logo.svg"
   inkscape:version="1.4.2 (1:1.4.2+202505120737+ebf0e940d0)"
   xmlns:inkscape="http://www.inkscape.org/namespaces/inkscape"
   xmlns:sodipodi="http://sodipodi.sourceforge.net/DTD/sodipodi-0.dtd"
   xmlns="http://www.w3.org/2000/svg"
   xmlns:svg="http://www.w3.org/2000/svg">
  <defs
     id="defs2" />
  <sodipodi:namedview
     id="namedview2"
     pagecolor="#505050"
     bordercolor="#eeeeee"
     borderopacity="1"
     inkscape:showpageshadow="0"
     inkscape:pageopacity="0"
     inkscape:pagecheckerboard="0"
     inkscape:deskcolor="#505050"
     inkscape:zoom="2.4094094"
     inkscape:cx="251.92896"
     inkscape:cy="83.837973"
     inkscape:window-width="2560"
     inkscape:window-height="1371"
     inkscape:window-x="1152"
     inkscape:window-y="96"
     inkscape:window-maximized="1"
     inkscape:current-layer="svg2" />
  <path
     data-hk="00000001000000010000000100002150101"
     d="M123.569 83.9994C123.569 90.885 121.81 97.3601 118.719 103M83.9838 44.4147C62.1217 44.4147 44.399 62.1374 44.399 83.9994C44.399 100.493 54.4865 114.631 68.8285 120.579M83.9838 44.4147C98.9602 44.4147 111.994 52.7316 118.719 64.9987M83.9838 44.4147V26.3188M83.9838 26.3188C89.2285 26.3188 94.3097 27.0188 99.1391 28.3304M83.9838 26.3188C61.5316 26.3188 42.0757 39.1469 32.5454 57.8735M83.9838 162.038C95.214 162.038 105.89 159.666 115.538 155.395M5.94531 83.9994C5.94531 71.2551 9.00023 59.2243 14.4177 48.5993M123.077 41.5872C127.379 45.5541 131.075 50.1671 134.013 55.2722M134.013 55.2722C138.88 63.7306 141.664 73.5399 141.664 83.9994C141.664 93.8126 139.214 103.053 134.891 111.143M134.013 55.2722L151.252 44.4147M151.252 44.4147C137.68 21.4011 112.635 5.96094 83.9838 5.96094C53.6286 5.96094 27.3214 23.2923 14.4177 48.5993M151.252 44.4147C158.096 56.02 162.022 69.5511 162.022 83.9994C162.022 115.869 142.919 143.276 115.538 155.395M118.719 103C111.994 115.267 98.9602 123.584 83.9838 123.584C78.6154 123.584 73.4966 122.515 68.8285 120.579M118.719 103L134.891 111.143M134.891 111.143C128.989 122.19 119.597 131.09 108.187 136.372M14.4177 48.5993L32.5454 57.8735M32.5454 57.8735C28.5536 65.7171 26.3032 74.5954 26.3032 83.9994C26.3032 108.174 41.175 128.875 62.2687 137.453M108.187 136.372C100.827 139.779 92.6274 141.68 83.9838 141.68C76.3022 141.68 68.9714 140.178 62.2687 137.453M108.187 136.372L115.538 155.395M68.8285 120.579L62.2687 137.453M99.1391 76.7611C99.1391 85.1311 92.3538 91.9163 83.9838 91.9163C75.6137 91.9163 68.8285 85.1311 68.8285 76.7611C68.8285 68.391 75.6137 61.6058 83.9838 61.6058C92.3538 61.6058 99.1391 68.391 99.1391 76.7611Z"
     stroke="currentColor"
     stroke-width="9.01137"
     class="stroke-accent"
     id="path1"
     style="stroke:#165be4;stroke-opacity:1" />
  <path
     data-hk="00000001000000010000000100002150102"
     d="M256.056 127.76C250.527 127.76 245.348 126.78 240.519 124.82C235.689 122.791 231.455 119.956 227.816 116.317C224.246 112.677 221.447 108.408 219.417 103.509C217.388 98.5397 216.373 93.1506 216.373 87.3415C216.373 81.4625 217.388 76.0734 219.417 71.1742C221.447 66.2751 224.246 62.0058 227.816 58.3664C231.455 54.727 235.654 51.9275 240.414 49.9678C245.243 48.0081 250.457 47.0283 256.056 47.0283C261.655 47.0283 266.834 48.0431 271.593 50.0728C276.423 52.0324 280.622 54.832 284.191 58.4714C287.831 62.0408 290.665 66.2751 292.695 71.1742C294.795 76.0734 295.844 81.4625 295.844 87.3415C295.844 93.1506 294.795 98.5397 292.695 103.509C290.665 108.408 287.831 112.677 284.191 116.317C280.622 119.956 276.423 122.791 271.593 124.82C266.834 126.78 261.655 127.76 256.056 127.76ZM256.056 118.206C260.395 118.206 264.35 117.437 267.919 115.897C271.488 114.287 274.568 112.082 277.158 109.283C279.817 106.413 281.847 103.124 283.247 99.4145C284.716 95.6352 285.451 91.6108 285.451 87.3415C285.451 83.0723 284.716 79.0829 283.247 75.3735C281.847 71.6642 279.817 68.4097 277.158 65.6102C274.568 62.7406 271.488 60.536 267.919 58.9963C264.35 57.3865 260.395 56.5817 256.056 56.5817C251.787 56.5817 247.867 57.3865 244.298 58.9963C240.729 60.536 237.614 62.7406 234.955 65.6102C232.365 68.4097 230.335 71.6642 228.866 75.3735C227.396 79.0829 226.661 83.0723 226.661 87.3415C226.661 91.6108 227.396 95.6352 228.866 99.4145C230.335 103.124 232.365 106.413 234.955 109.283C237.614 112.082 240.729 114.287 244.298 115.897C247.867 117.437 251.787 118.206 256.056 118.206ZM309.695 147.496V69.9145H319.248V82.0924L317.988 79.6778C320.088 76.3184 322.957 73.6588 326.597 71.6992C330.236 69.6695 334.401 68.6547 339.09 68.6547C344.409 68.6547 349.168 69.9494 353.367 72.539C357.637 75.1286 360.996 78.663 363.446 83.1422C365.895 87.5515 367.12 92.5907 367.12 98.2597C367.12 103.789 365.895 108.793 363.446 113.272C360.996 117.751 357.637 121.286 353.367 123.875C349.168 126.465 344.374 127.76 338.985 127.76C334.436 127.76 330.271 126.745 326.492 124.715C322.783 122.686 319.913 119.816 317.883 116.107L319.458 114.427V147.496H309.695ZM338.25 118.311C341.819 118.311 345.004 117.437 347.803 115.687C350.603 113.937 352.773 111.557 354.312 108.548C355.922 105.469 356.727 102.039 356.727 98.2597C356.727 94.3404 355.922 90.9109 354.312 87.9714C352.773 84.9619 350.603 82.5823 347.803 80.8326C345.004 79.0129 341.819 78.1031 338.25 78.1031C334.681 78.1031 331.461 78.9779 328.592 80.7276C325.792 82.4774 323.552 84.892 321.873 87.9714C320.263 90.9809 319.458 94.4104 319.458 98.2597C319.458 102.039 320.263 105.469 321.873 108.548C323.552 111.557 325.792 113.937 328.592 115.687C331.461 117.437 334.681 118.311 338.25 118.311ZM405.958 127.76C400.499 127.76 395.635 126.465 391.365 123.875C387.096 121.286 383.737 117.751 381.287 113.272C378.837 108.723 377.613 103.649 377.613 98.0498C377.613 92.3807 378.802 87.3415 381.182 82.9323C383.632 78.523 386.921 75.0586 391.05 72.539C395.25 69.9494 399.939 68.6547 405.118 68.6547C409.317 68.6547 413.027 69.4245 416.246 70.9643C419.536 72.434 422.3 74.4637 424.54 77.0533C426.849 79.5728 428.599 82.4774 429.789 85.7668C431.049 88.9863 431.679 92.3457 431.679 95.8451C431.679 96.615 431.609 97.4898 431.469 98.4697C431.399 99.3795 431.294 100.254 431.154 101.094H384.751V92.6956H425.485L420.865 96.475C421.495 92.8356 421.145 89.5812 419.816 86.7116C418.486 83.8421 416.526 81.5675 413.937 79.8878C411.347 78.2081 408.407 77.3682 405.118 77.3682C401.829 77.3682 398.819 78.2081 396.09 79.8878C393.36 81.5675 391.225 83.9821 389.686 87.1316C388.216 90.2111 387.621 93.8854 387.901 98.1547C387.621 102.284 388.251 105.923 389.791 109.073C391.4 112.152 393.64 114.567 396.509 116.317C399.449 117.996 402.633 118.836 406.063 118.836C409.842 118.836 413.027 117.961 415.616 116.212C418.206 114.462 420.305 112.222 421.915 109.493L430.104 113.692C428.984 116.282 427.234 118.661 424.855 120.831C422.545 122.931 419.781 124.61 416.561 125.87C413.412 127.13 409.877 127.76 405.958 127.76ZM444.409 126.5V69.9145H453.962V80.9376L452.387 79.9928C453.787 76.4234 456.027 73.6588 459.106 71.6992C462.256 69.6695 465.93 68.6547 470.129 68.6547C474.189 68.6547 477.793 69.5645 480.942 71.3842C484.162 73.2039 486.681 75.7235 488.501 78.9429C490.391 82.1624 491.336 85.8018 491.336 89.8611V126.5H481.467V93.0106C481.467 89.8611 480.907 87.2016 479.788 85.0319C478.668 82.8623 477.058 81.1826 474.958 79.9928C472.929 78.733 470.584 78.1031 467.925 78.1031C465.265 78.1031 462.885 78.733 460.786 79.9928C458.756 81.1826 457.146 82.8973 455.957 85.1369C454.767 87.3065 454.172 89.9311 454.172 93.0106V126.5H444.409ZM524.608 126.5V48.2881H552.218C557.397 48.2881 561.947 49.2679 565.866 51.2276C569.785 53.1872 572.83 55.9868 574.999 59.6262C577.239 63.2656 578.359 67.5348 578.359 72.434C578.359 77.3332 577.239 81.6025 574.999 85.2419C572.83 88.8113 569.785 91.6108 565.866 93.6405C562.016 95.6002 557.467 96.58 552.218 96.58H534.896V126.5H524.608ZM534.896 87.1316H552.533C555.683 87.1316 558.412 86.5367 560.722 85.3469C563.031 84.1571 564.816 82.4424 566.076 80.2027C567.336 77.9631 567.965 75.3735 567.965 72.434C567.965 69.4245 567.336 66.835 566.076 64.6653C564.816 62.4257 563.031 60.711 560.722 59.5212C558.412 58.3314 555.683 57.7365 552.533 57.7365H534.896V87.1316ZM591.117 126.5V69.9145H600.671V80.3077L599.621 78.838C600.951 75.6185 602.98 73.2389 605.71 71.6992C608.44 70.0894 611.764 69.2846 615.683 69.2846H619.148V78.523H614.214C610.224 78.523 607.005 79.7828 604.555 82.3024C602.106 84.752 600.881 88.2514 600.881 92.8006V126.5H591.117ZM654.696 127.76C649.237 127.76 644.303 126.5 639.893 123.98C635.484 121.391 631.985 117.856 629.395 113.377C626.805 108.898 625.511 103.824 625.511 98.1547C625.511 92.4857 626.77 87.4465 629.29 83.0373C631.88 78.628 635.379 75.1286 639.788 72.539C644.198 69.9494 649.167 68.6547 654.696 68.6547C660.155 68.6547 665.089 69.9494 669.498 72.539C673.908 75.0586 677.372 78.523 679.892 82.9323C682.481 87.3415 683.776 92.4157 683.776 98.1547C683.776 103.894 682.446 109.003 679.787 113.482C677.127 117.891 673.593 121.391 669.183 123.98C664.844 126.5 660.015 127.76 654.696 127.76ZM654.696 118.311C658.195 118.311 661.345 117.437 664.144 115.687C667.014 113.937 669.253 111.523 670.863 108.443C672.543 105.364 673.383 101.934 673.383 98.1547C673.383 94.3054 672.543 90.9109 670.863 87.9714C669.253 84.9619 667.014 82.5823 664.144 80.8326C661.345 79.0129 658.195 78.1031 654.696 78.1031C651.126 78.1031 647.907 79.0129 645.037 80.8326C642.238 82.5823 639.998 84.9619 638.319 87.9714C636.639 90.9109 635.799 94.3054 635.799 98.1547C635.799 101.934 636.639 105.364 638.319 108.443C639.998 111.523 642.238 113.937 645.037 115.687C647.907 117.437 651.126 118.311 654.696 118.311ZM725.8 127.76C721.251 127.76 717.087 126.745 713.307 124.715C709.598 122.686 706.728 119.816 704.699 116.107L706.063 114.427V126.5H696.51V47.0283H706.273V82.0924L704.804 79.6778C706.903 76.3184 709.773 73.6588 713.412 71.6992C717.052 69.6695 721.216 68.6547 725.905 68.6547C731.224 68.6547 735.983 69.9494 740.183 72.539C744.452 75.1286 747.811 78.663 750.261 83.1422C752.711 87.5515 753.935 92.5907 753.935 98.2597C753.935 103.789 752.711 108.793 750.261 113.272C747.811 117.751 744.452 121.286 740.183 123.875C735.983 126.465 731.189 127.76 725.8 127.76ZM725.065 118.311C728.635 118.311 731.819 117.437 734.619 115.687C737.418 113.937 739.588 111.557 741.128 108.548C742.737 105.469 743.542 102.039 743.542 98.2597C743.542 94.3404 742.737 90.9109 741.128 87.9714C739.588 84.9619 737.418 82.5823 734.619 80.8326C731.819 79.0129 728.635 78.1031 725.065 78.1031C721.496 78.1031 718.276 78.9779 715.407 80.7276C712.607 82.4774 710.368 84.892 708.688 87.9714C707.078 90.9809 706.273 94.4104 706.273 98.2597C706.273 102.039 707.078 105.469 708.688 108.548C710.368 111.557 712.607 113.937 715.407 115.687C718.276 117.437 721.496 118.311 725.065 118.311ZM766.738 126.5V47.0283H776.501V126.5H766.738ZM817.686 127.76C812.227 127.76 807.363 126.465 803.093 123.875C798.824 121.286 795.465 117.751 793.015 113.272C790.565 108.723 789.341 103.649 789.341 98.0498C789.341 92.3807 790.53 87.3415 792.91 82.9323C795.36 78.523 798.649 75.0586 802.778 72.539C806.978 69.9494 811.667 68.6547 816.846 68.6547C821.045 68.6547 824.755 69.4245 827.974 70.9643C831.264 72.434 834.028 74.4637 836.268 77.0533C838.577 79.5728 840.327 82.4774 841.517 85.7668C842.777 88.9863 843.407 92.3457 843.407 95.8451C843.407 96.615 843.337 97.4898 843.197 98.4697C843.127 99.3795 843.022 100.254 842.882 101.094H796.479V92.6956H837.213L832.593 96.475C833.223 92.8356 832.873 89.5812 831.544 86.7116C830.214 83.8421 828.254 81.5675 825.665 79.8878C823.075 78.2081 820.136 77.3682 816.846 77.3682C813.557 77.3682 810.547 78.2081 807.818 79.8878C805.088 81.5675 802.953 83.9821 801.414 87.1316C799.944 90.2111 799.349 93.8854 799.629 98.1547C799.349 102.284 799.979 105.923 801.519 109.073C803.128 112.152 805.368 114.567 808.238 116.317C811.177 117.996 814.361 118.836 817.791 118.836C821.57 118.836 824.755 117.961 827.344 116.212C829.934 114.462 832.034 112.222 833.643 109.493L841.832 113.692C840.712 116.282 838.962 118.661 836.583 120.831C834.273 122.931 831.509 124.61 828.289 125.87C825.14 127.13 821.605 127.76 817.686 127.76ZM856.137 126.5V69.9145H865.69V81.4625L864.325 79.6778C865.725 76.1084 867.965 73.3789 871.044 71.4892C874.124 69.5995 877.588 68.6547 881.437 68.6547C885.847 68.6547 889.801 69.8795 893.3 72.329C896.87 74.7786 899.319 77.9981 900.649 81.9874L897.92 82.0924C899.389 77.6832 901.874 74.3587 905.373 72.1191C908.873 69.8095 912.757 68.6547 917.026 68.6547C920.946 68.6547 924.48 69.5645 927.63 71.3842C930.849 73.2039 933.404 75.7235 935.293 78.9429C937.183 82.1624 938.128 85.8018 938.128 89.8611V126.5H928.26V93.0106C928.26 89.8611 927.7 87.2016 926.58 85.0319C925.46 82.8623 923.92 81.1826 921.961 79.9928C920.071 78.733 917.831 78.1031 915.242 78.1031C912.722 78.1031 910.448 78.733 908.418 79.9928C906.458 81.1826 904.883 82.8973 903.694 85.1369C902.574 87.3065 902.014 89.9311 902.014 93.0106V126.5H892.146V93.0106C892.146 89.8611 891.586 87.2016 890.466 85.0319C889.346 82.8623 887.806 81.1826 885.847 79.9928C883.957 78.733 881.717 78.1031 879.128 78.1031C876.608 78.1031 874.334 78.733 872.304 79.9928C870.344 81.1826 868.77 82.8973 867.58 85.1369C866.46 87.3065 865.9 89.9311 865.9 93.0106V126.5H856.137ZM972.256 127.76C966.587 127.76 961.653 126.36 957.454 123.56C953.254 120.761 950.28 116.982 948.53 112.222L956.299 108.443C957.909 111.802 960.113 114.462 962.913 116.422C965.712 118.381 968.827 119.361 972.256 119.361C975.336 119.361 977.89 118.626 979.92 117.157C981.95 115.687 982.964 113.762 982.964 111.383C982.964 109.703 982.475 108.373 981.495 107.393C980.585 106.343 979.465 105.539 978.135 104.979C976.806 104.349 975.581 103.894 974.461 103.614L965.957 101.199C960.848 99.7295 957.104 97.6298 954.724 94.9003C952.415 92.1707 951.26 88.9863 951.26 85.3469C951.26 81.9874 952.1 79.0829 953.779 76.6333C955.529 74.1137 957.874 72.1541 960.813 70.7543C963.823 69.3545 967.182 68.6547 970.891 68.6547C975.861 68.6547 980.305 69.9145 984.224 72.434C988.214 74.9536 991.048 78.488 992.728 83.0373L984.749 86.7116C983.489 83.7721 981.6 81.4625 979.08 79.7828C976.561 78.0331 973.726 77.1582 970.577 77.1582C967.707 77.1582 965.432 77.8931 963.753 79.3629C962.073 80.7626 961.233 82.5473 961.233 84.717C961.233 86.3267 961.653 87.6565 962.493 88.7063C963.333 89.6861 964.348 90.456 965.537 91.0159C966.727 91.5058 967.882 91.9258 969.002 92.2757L978.24 95.0053C982.859 96.335 986.429 98.3997 988.948 101.199C991.538 103.999 992.833 107.358 992.833 111.278C992.833 114.427 991.958 117.262 990.208 119.781C988.459 122.301 986.044 124.26 982.964 125.66C979.885 127.06 976.316 127.76 972.256 127.76Z"
     fill="currentColor"
     stroke-width="0"
     id="path2" />
</svg>
