<?xml version="1.0" encoding="UTF-8" standalone="no"?>
<svg
   data-hk="00000001000000010000000100002150100"
   stroke="currentColor"
   stroke-width="1"
   stroke-linecap="round"
   stroke-linejoin="round"
   class="size-4 m-2 h-8 w-auto md:max-lg:hidden "
   viewBox="0 0 999.00002 168"
   fill="none"
   iconclass="stroke-accent"
   version="1.1"
   id="svg2"
   width="264.31876mm"
   height="44.450001mm"
   xmlns="http://www.w3.org/2000/svg"
   xmlns:svg="http://www.w3.org/2000/svg">
  <defs
     id="defs2" />
  <path
     data-hk="00000001000000010000000100002150101"
     d="m 123.569,83.9994 c 0,6.8856 -1.759,13.3607 -4.85,19.0006 M 83.9838,44.4147 c -21.8621,0 -39.5848,17.7227 -39.5848,39.5847 0,16.4936 10.0875,30.6316 24.4295,36.5796 M 83.9838,44.4147 c 14.9764,0 28.0102,8.3169 34.7352,20.584 M 83.9838,44.4147 V 26.3188 m 0,0 c 5.2447,0 10.3259,0.7 15.1553,2.0116 M 83.9838,26.3188 c -22.4522,0 -41.9081,12.8281 -51.4384,31.5547 M 83.9838,162.038 c 11.2302,0 21.9062,-2.372 31.5542,-6.643 M 5.94531,83.9994 c 0,-12.7443 3.05492,-24.7751 8.47239,-35.4001 M 123.077,41.5872 c 4.302,3.9669 7.998,8.5799 10.936,13.685 m 0,0 c 4.867,8.4584 7.651,18.2677 7.651,28.7272 0,9.8132 -2.45,19.0536 -6.773,27.1436 m -0.878,-55.8708 17.239,-10.8575 m 0,0 C 137.68,21.4011 112.635,5.96094 83.9838,5.96094 53.6286,5.96094 27.3214,23.2923 14.4177,48.5993 M 151.252,44.4147 c 6.844,11.6053 10.77,25.1364 10.77,39.5847 0,31.8696 -19.103,59.2766 -46.484,71.3956 M 118.719,103 c -6.725,12.267 -19.7588,20.584 -34.7352,20.584 -5.3684,0 -10.4872,-1.069 -15.1553,-3.005 M 118.719,103 l 16.172,8.143 m 0,0 c -5.902,11.047 -15.294,19.947 -26.704,25.229 M 14.4177,48.5993 32.5454,57.8735 m 0,0 c -3.9918,7.8436 -6.2422,16.7219 -6.2422,26.1259 0,24.1746 14.8718,44.8756 35.9655,53.4536 m 45.9183,-1.081 c -7.36,3.407 -15.5596,5.308 -24.2032,5.308 -7.6816,0 -15.0124,-1.502 -21.7151,-4.227 m 45.9183,-1.081 7.351,19.023 M 68.8285,120.579 62.2687,137.453 M 99.1391,76.7611 c 0,8.37 -6.7853,15.1552 -15.1553,15.1552 -8.3701,0 -15.1553,-6.7852 -15.1553,-15.1552 0,-8.3701 6.7852,-15.1553 15.1553,-15.1553 8.37,0 15.1553,6.7852 15.1553,15.1553 z"
     stroke="currentColor"
     stroke-width="9.01137"
     class="stroke-accent"
     id="path1"
     style="stroke:#165be4;stroke-opacity:1" />
  <path
     data-hk="00000001000000010000000100002150102"
     d="m 256.056,127.76 c -5.529,0 -10.708,-0.98 -15.537,-2.94 -4.83,-2.029 -9.064,-4.864 -12.703,-8.503 -3.57,-3.64 -6.369,-7.909 -8.399,-12.808 -2.029,-4.9693 -3.044,-10.3584 -3.044,-16.1675 0,-5.879 1.015,-11.2681 3.044,-16.1673 2.03,-4.8991 4.829,-9.1684 8.399,-12.8078 3.639,-3.6394 7.838,-6.4389 12.598,-8.3986 4.829,-1.9597 10.043,-2.9395 15.642,-2.9395 5.599,0 10.778,1.0148 15.537,3.0445 4.83,1.9596 9.029,4.7592 12.598,8.3986 3.64,3.5694 6.474,7.8037 8.504,12.7028 2.1,4.8992 3.149,10.2883 3.149,16.1673 0,5.8091 -1.049,11.1982 -3.149,16.1675 -2.03,4.899 -4.864,9.168 -8.504,12.808 -3.569,3.639 -7.768,6.474 -12.598,8.503 -4.759,1.96 -9.938,2.94 -15.537,2.94 z m 0,-9.554 c 4.339,0 8.294,-0.769 11.863,-2.309 3.569,-1.61 6.649,-3.815 9.239,-6.614 2.659,-2.87 4.689,-6.159 6.089,-9.8685 1.469,-3.7793 2.204,-7.8037 2.204,-12.073 0,-4.2692 -0.735,-8.2586 -2.204,-11.968 -1.4,-3.7093 -3.43,-6.9638 -6.089,-9.7633 -2.59,-2.8696 -5.67,-5.0742 -9.239,-6.6139 -3.569,-1.6098 -7.524,-2.4146 -11.863,-2.4146 -4.269,0 -8.189,0.8048 -11.758,2.4146 -3.569,1.5397 -6.684,3.7443 -9.343,6.6139 -2.59,2.7995 -4.62,6.054 -6.089,9.7633 -1.47,3.7094 -2.205,7.6988 -2.205,11.968 0,4.2693 0.735,8.2937 2.205,12.073 1.469,3.7095 3.499,6.9985 6.089,9.8685 2.659,2.799 5.774,5.004 9.343,6.614 3.569,1.54 7.489,2.309 11.758,2.309 z m 53.639,29.29 V 69.9145 h 9.553 v 12.1779 l -1.26,-2.4146 c 2.1,-3.3594 4.969,-6.019 8.609,-7.9786 3.639,-2.0297 7.804,-3.0445 12.493,-3.0445 5.319,0 10.078,1.2947 14.277,3.8843 4.27,2.5896 7.629,6.124 10.079,10.6032 2.449,4.4093 3.674,9.4485 3.674,15.1175 0,5.5293 -1.225,10.5333 -3.674,15.0123 -2.45,4.479 -5.809,8.014 -10.079,10.603 -4.199,2.59 -8.993,3.885 -14.382,3.885 -4.549,0 -8.714,-1.015 -12.493,-3.045 -3.709,-2.029 -6.579,-4.899 -8.609,-8.608 l 1.575,-1.68 v 33.069 z m 28.555,-29.185 c 3.569,0 6.754,-0.874 9.553,-2.624 2.8,-1.75 4.97,-4.13 6.509,-7.139 1.61,-3.079 2.415,-6.509 2.415,-10.2883 0,-3.9193 -0.805,-7.3488 -2.415,-10.2883 -1.539,-3.0095 -3.709,-5.3891 -6.509,-7.1388 -2.799,-1.8197 -5.984,-2.7295 -9.553,-2.7295 -3.569,0 -6.789,0.8748 -9.658,2.6245 -2.8,1.7498 -5.04,4.1644 -6.719,7.2438 -1.61,3.0095 -2.415,6.439 -2.415,10.2883 0,3.7793 0.805,7.2093 2.415,10.2883 1.679,3.009 3.919,5.389 6.719,7.139 2.869,1.75 6.089,2.624 9.658,2.624 z m 67.708,9.449 c -5.459,0 -10.323,-1.295 -14.593,-3.885 -4.269,-2.589 -7.628,-6.124 -10.078,-10.603 -2.45,-4.549 -3.674,-9.623 -3.674,-15.2222 0,-5.6691 1.189,-10.7083 3.569,-15.1175 2.45,-4.4093 5.739,-7.8737 9.868,-10.3933 4.2,-2.5896 8.889,-3.8843 14.068,-3.8843 4.199,0 7.909,0.7698 11.128,2.3096 3.29,1.4697 6.054,3.4994 8.294,6.089 2.309,2.5195 4.059,5.4241 5.249,8.7135 1.26,3.2195 1.89,6.5789 1.89,10.0783 0,0.7699 -0.07,1.6447 -0.21,2.6246 -0.07,0.9098 -0.175,1.7843 -0.315,2.6243 h -46.403 v -8.3984 h 40.734 l -4.62,3.7794 c 0.63,-3.6394 0.28,-6.8938 -1.049,-9.7634 -1.33,-2.8695 -3.29,-5.1441 -5.879,-6.8238 -2.59,-1.6797 -5.53,-2.5196 -8.819,-2.5196 -3.289,0 -6.299,0.8399 -9.028,2.5196 -2.73,1.6797 -4.865,4.0943 -6.404,7.2438 -1.47,3.0795 -2.065,6.7538 -1.785,11.0231 -0.28,4.1293 0.35,7.7683 1.89,10.9183 1.609,3.079 3.849,5.494 6.718,7.244 2.94,1.679 6.124,2.519 9.554,2.519 3.779,0 6.964,-0.875 9.553,-2.624 2.59,-1.75 4.689,-3.99 6.299,-6.719 l 8.189,4.199 c -1.12,2.59 -2.87,4.969 -5.249,7.139 -2.31,2.1 -5.074,3.779 -8.294,5.039 -3.149,1.26 -6.684,1.89 -10.603,1.89 z m 38.451,-1.26 V 69.9145 h 9.553 v 11.0231 l -1.575,-0.9448 c 1.4,-3.5694 3.64,-6.334 6.719,-8.2936 3.15,-2.0297 6.824,-3.0445 11.023,-3.0445 4.06,0 7.664,0.9098 10.813,2.7295 3.22,1.8197 5.739,4.3393 7.559,7.5587 1.89,3.2195 2.835,6.8589 2.835,10.9182 V 126.5 h -9.869 V 93.0106 c 0,-3.1495 -0.56,-5.809 -1.679,-7.9787 -1.12,-2.1696 -2.73,-3.8493 -4.83,-5.0391 -2.029,-1.2598 -4.374,-1.8897 -7.033,-1.8897 -2.66,0 -5.04,0.6299 -7.139,1.8897 -2.03,1.1898 -3.64,2.9045 -4.829,5.1441 -1.19,2.1696 -1.785,4.7942 -1.785,7.8737 V 126.5 Z m 80.199,0 V 48.2881 h 27.61 c 5.179,0 9.729,0.9798 13.648,2.9395 3.919,1.9596 6.964,4.7592 9.133,8.3986 2.24,3.6394 3.36,7.9086 3.36,12.8078 0,4.8992 -1.12,9.1685 -3.36,12.8079 -2.169,3.5694 -5.214,6.3689 -9.133,8.3986 -3.85,1.9597 -8.399,2.9395 -13.648,2.9395 h -17.322 v 29.92 z m 10.288,-39.3684 h 17.637 c 3.15,0 5.879,-0.5949 8.189,-1.7847 2.309,-1.1898 4.094,-2.9045 5.354,-5.1442 1.26,-2.2396 1.889,-4.8292 1.889,-7.7687 0,-3.0095 -0.629,-5.599 -1.889,-7.7687 -1.26,-2.2396 -3.045,-3.9543 -5.354,-5.1441 -2.31,-1.1898 -5.039,-1.7847 -8.189,-1.7847 H 534.896 Z M 591.117,126.5 V 69.9145 h 9.554 v 10.3932 l -1.05,-1.4697 c 1.33,-3.2195 3.359,-5.5991 6.089,-7.1388 2.73,-1.6098 6.054,-2.4146 9.973,-2.4146 h 3.465 v 9.2384 h -4.934 c -3.99,0 -7.209,1.2598 -9.659,3.7794 -2.449,2.4496 -3.674,5.949 -3.674,10.4982 V 126.5 Z m 63.579,1.26 c -5.459,0 -10.393,-1.26 -14.803,-3.78 -4.409,-2.589 -7.908,-6.124 -10.498,-10.603 -2.59,-4.479 -3.884,-9.553 -3.884,-15.2223 0,-5.669 1.259,-10.7082 3.779,-15.1174 2.59,-4.4093 6.089,-7.9087 10.498,-10.4983 4.41,-2.5896 9.379,-3.8843 14.908,-3.8843 5.459,0 10.393,1.2947 14.802,3.8843 4.41,2.5196 7.874,5.984 10.394,10.3933 2.589,4.4092 3.884,9.4834 3.884,15.2224 0,5.7393 -1.33,10.8483 -3.989,15.3273 -2.66,4.409 -6.194,7.909 -10.604,10.498 -4.339,2.52 -9.168,3.78 -14.487,3.78 z m 0,-9.449 c 3.499,0 6.649,-0.874 9.448,-2.624 2.87,-1.75 5.109,-4.164 6.719,-7.244 1.68,-3.079 2.52,-6.509 2.52,-10.2883 0,-3.8493 -0.84,-7.2438 -2.52,-10.1833 -1.61,-3.0095 -3.849,-5.3891 -6.719,-7.1388 -2.799,-1.8197 -5.949,-2.7295 -9.448,-2.7295 -3.57,0 -6.789,0.9098 -9.659,2.7295 -2.799,1.7497 -5.039,4.1293 -6.718,7.1388 -1.68,2.9395 -2.52,6.334 -2.52,10.1833 0,3.7793 0.84,7.2093 2.52,10.2883 1.679,3.08 3.919,5.494 6.718,7.244 2.87,1.75 6.089,2.624 9.659,2.624 z m 71.104,9.449 c -4.549,0 -8.713,-1.015 -12.493,-3.045 -3.709,-2.029 -6.579,-4.899 -8.608,-8.608 l 1.364,-1.68 V 126.5 H 696.51 V 47.0283 h 9.763 v 35.0641 l -1.469,-2.4146 c 2.099,-3.3594 4.969,-6.019 8.608,-7.9786 3.64,-2.0297 7.804,-3.0445 12.493,-3.0445 5.319,0 10.078,1.2947 14.278,3.8843 4.269,2.5896 7.628,6.124 10.078,10.6032 2.45,4.4093 3.674,9.4485 3.674,15.1175 0,5.5293 -1.224,10.5333 -3.674,15.0123 -2.45,4.479 -5.809,8.014 -10.078,10.603 -4.2,2.59 -8.994,3.885 -14.383,3.885 z m -0.735,-9.449 c 3.57,0 6.754,-0.874 9.554,-2.624 2.799,-1.75 4.969,-4.13 6.509,-7.139 1.609,-3.079 2.414,-6.509 2.414,-10.2883 0,-3.9193 -0.805,-7.3488 -2.414,-10.2883 -1.54,-3.0095 -3.71,-5.3891 -6.509,-7.1388 -2.8,-1.8197 -5.984,-2.7295 -9.554,-2.7295 -3.569,0 -6.789,0.8748 -9.658,2.6245 -2.8,1.7498 -5.039,4.1644 -6.719,7.2438 -1.61,3.0095 -2.415,6.439 -2.415,10.2883 0,3.7793 0.805,7.2093 2.415,10.2883 1.68,3.009 3.919,5.389 6.719,7.139 2.869,1.75 6.089,2.624 9.658,2.624 z m 41.673,8.189 V 47.0283 h 9.763 V 126.5 Z m 50.948,1.26 c -5.459,0 -10.323,-1.295 -14.593,-3.885 -4.269,-2.589 -7.628,-6.124 -10.078,-10.603 -2.45,-4.549 -3.674,-9.623 -3.674,-15.2222 0,-5.6691 1.189,-10.7083 3.569,-15.1175 2.45,-4.4093 5.739,-7.8737 9.868,-10.3933 4.2,-2.5896 8.889,-3.8843 14.068,-3.8843 4.199,0 7.909,0.7698 11.128,2.3096 3.29,1.4697 6.054,3.4994 8.294,6.089 2.309,2.5195 4.059,5.4241 5.249,8.7135 1.26,3.2195 1.89,6.5789 1.89,10.0783 0,0.7699 -0.07,1.6447 -0.21,2.6246 -0.07,0.9098 -0.175,1.7843 -0.315,2.6243 h -46.403 v -8.3984 h 40.734 l -4.62,3.7794 c 0.63,-3.6394 0.28,-6.8938 -1.049,-9.7634 -1.33,-2.8695 -3.29,-5.1441 -5.879,-6.8238 -2.59,-1.6797 -5.529,-2.5196 -8.819,-2.5196 -3.289,0 -6.299,0.8399 -9.028,2.5196 -2.73,1.6797 -4.865,4.0943 -6.404,7.2438 -1.47,3.0795 -2.065,6.7538 -1.785,11.0231 -0.28,4.1293 0.35,7.7683 1.89,10.9183 1.609,3.079 3.849,5.494 6.719,7.244 2.939,1.679 6.123,2.519 9.553,2.519 3.779,0 6.964,-0.875 9.553,-2.624 2.59,-1.75 4.69,-3.99 6.299,-6.719 l 8.189,4.199 c -1.12,2.59 -2.87,4.969 -5.249,7.139 -2.31,2.1 -5.074,3.779 -8.294,5.039 -3.149,1.26 -6.684,1.89 -10.603,1.89 z m 38.451,-1.26 V 69.9145 h 9.553 v 11.548 l -1.365,-1.7847 c 1.4,-3.5694 3.64,-6.2989 6.719,-8.1886 3.08,-1.8897 6.544,-2.8345 10.393,-2.8345 4.41,0 8.364,1.2248 11.863,3.6743 3.57,2.4496 6.019,5.6691 7.349,9.6584 l -2.729,0.105 c 1.469,-4.4092 3.954,-7.7337 7.453,-9.9733 3.5,-2.3096 7.384,-3.4644 11.653,-3.4644 3.92,0 7.454,0.9098 10.604,2.7295 3.219,1.8197 5.774,4.3393 7.663,7.5587 1.89,3.2195 2.835,6.8589 2.835,10.9182 V 126.5 H 928.26 V 93.0106 c 0,-3.1495 -0.56,-5.809 -1.68,-7.9787 -1.12,-2.1696 -2.66,-3.8493 -4.619,-5.0391 -1.89,-1.2598 -4.13,-1.8897 -6.719,-1.8897 -2.52,0 -4.794,0.6299 -6.824,1.8897 -1.96,1.1898 -3.535,2.9045 -4.724,5.1441 -1.12,2.1696 -1.68,4.7942 -1.68,7.8737 V 126.5 h -9.868 V 93.0106 c 0,-3.1495 -0.56,-5.809 -1.68,-7.9787 -1.12,-2.1696 -2.66,-3.8493 -4.619,-5.0391 -1.89,-1.2598 -4.13,-1.8897 -6.719,-1.8897 -2.52,0 -4.794,0.6299 -6.824,1.8897 -1.96,1.1898 -3.534,2.9045 -4.724,5.1441 -1.12,2.1696 -1.68,4.7942 -1.68,7.8737 V 126.5 Z m 116.119,1.26 c -5.669,0 -10.603,-1.4 -14.802,-4.2 -4.2,-2.799 -7.174,-6.578 -8.924,-11.338 l 7.769,-3.779 c 1.61,3.359 3.814,6.019 6.614,7.979 2.799,1.959 5.914,2.939 9.343,2.939 3.08,0 5.634,-0.735 7.664,-2.204 2.03,-1.47 3.044,-3.395 3.044,-5.774 0,-1.68 -0.489,-3.01 -1.469,-3.99 -0.91,-1.05 -2.03,-1.854 -3.36,-2.414 -1.329,-0.63 -2.554,-1.085 -3.674,-1.365 l -8.504,-2.415 c -5.109,-1.4695 -8.853,-3.5692 -11.233,-6.2987 -2.309,-2.7296 -3.464,-5.914 -3.464,-9.5534 0,-3.3595 0.84,-6.264 2.519,-8.7136 1.75,-2.5196 4.095,-4.4792 7.034,-5.879 3.01,-1.3998 6.369,-2.0996 10.078,-2.0996 4.97,0 9.414,1.2598 13.333,3.7793 3.99,2.5196 6.824,6.054 8.504,10.6033 l -7.979,3.6743 c -1.26,-2.9395 -3.149,-5.2491 -5.669,-6.9288 -2.519,-1.7497 -5.354,-2.6246 -8.503,-2.6246 -2.87,0 -5.145,0.7349 -6.824,2.2047 -1.68,1.3997 -2.52,3.1844 -2.52,5.3541 0,1.6097 0.42,2.9395 1.26,3.9893 0.84,0.9798 1.855,1.7497 3.044,2.3096 1.19,0.4899 2.345,0.9099 3.465,1.2598 l 9.238,2.7296 c 4.619,1.3297 8.189,3.3944 10.708,6.1937 2.59,2.8 3.885,6.159 3.885,10.079 0,3.149 -0.875,5.984 -2.625,8.503 -1.749,2.52 -4.164,4.479 -7.244,5.879 -3.079,1.4 -6.648,2.1 -10.708,2.1 z"
     fill="currentColor"
     stroke-width="0"
     id="path2" />
</svg>
